<svg xmlns="http://www.w3.org/2000/svg" viewBox="0 0 2600 1463"><path fill="#EEEEEE" d="M0 0h2600v1463H0z"/><g opacity=".2" fill="#62646F"><path d="M96.4 733.7V1002H-68.2v270.4h-4V998H92.3V737.8l-113.8-.1v-99.4l4-.1v95.5"/><path d="M94.4 990.5c5.9 0 10.8 4.9 10.8 10.9 0 5.9-4.9 10.8-10.8 10.8-6 0-10.9-4.9-10.9-10.8 0-6 4.9-10.9 10.9-10.9zm0-266.9c5.9 0 10.8 4.8 10.8 10.8s-4.9 10.9-10.8 10.9c-6 0-10.9-4.9-10.9-10.9s4.9-10.8 10.9-10.8zm76.5-558.9V433H6.3l-.1 270.3H2.3l-.1-274.4h164.7V168.7L53 168.6V69.1l4.1.1v95.4"/><path d="M4.3 692.4c5.9 0 10.8 4.8 10.8 10.9 0 5.9-4.9 10.8-10.8 10.8s-10.9-4.9-10.8-10.8c-.1-6 4.8-10.9 10.8-10.9zm-.1-271c6 0 10.8 4.9 10.8 10.9s-4.9 10.8-10.8 10.8-10.9-4.9-10.9-10.9c.1-5.9 5-10.8 10.9-10.8zM55 61.6c4.9 0 8.8 4 8.8 8.8 0 4.9-3.9 8.8-8.8 8.8-4.8 0-8.8-3.9-8.8-8.8 0-4.8 4-8.8 8.8-8.8zm113.9 359.8c6.1 0 10.8 4.9 10.8 10.8 0 6-4.8 10.9-10.8 10.9-5.9 0-10.9-4.9-10.9-10.9 0-5.9 5-10.8 10.9-10.8zm0-266.9c6 0 10.8 4.9 10.8 10.9s-4.8 10.9-10.8 10.9-10.9-4.9-10.9-10.9c0-6.1 4.9-10.9 10.9-10.9zm-112.4 4.1c3.7 0 6.7 3 6.7 6.7s-3 6.8-6.7 6.8c-3.9 0-6.8-3.1-6.8-6.8s3-6.8 6.8-6.7zm233.7 398.9v268.4l-164.6-.1v270.4h-4.2V821.8h164.7V561.7H172.3l-.1-99.6 4.2-.1v95.5"/><path d="M123.5 1085.3c5.9 0 10.8 4.9 10.8 10.9s-4.9 10.8-10.8 10.8c-6 0-10.8-4.8-10.8-10.8 0-6 4.8-10.8 10.8-10.9zm0-270.9c5.9 0 10.7 4.8 10.7 10.8 0 5.9-4.8 10.9-10.7 10.9-6 0-10.9-4.9-10.9-10.9s4.9-10.9 10.9-10.8zm50.8-359.8c4.9 0 8.9 3.9 8.9 8.9 0 4.8-4 8.7-8.9 8.7-4.8 0-8.7-3.9-8.7-8.7-.1-5 3.9-8.9 8.7-8.9zm113.9 359.7c6 0 10.8 4.8 10.8 10.9 0 5.9-4.8 10.8-10.8 10.8s-10.9-4.9-10.9-10.8c0-6 4.8-10.8 10.9-10.9zm0-266.9c6 0 10.8 4.8 10.8 10.8 0 5.9-4.8 10.9-10.8 10.9s-10.9-5-10.9-10.9 4.8-10.8 10.9-10.8zm-112.6 4.1c3.7 0 6.8 3.1 6.8 6.8s-3 6.8-6.8 6.8c-3.7 0-6.8-3-6.8-6.8.1-3.7 3.1-6.8 6.8-6.8zm332 723.6l.1 4h-95.6v113.8H143.9v-164.6h-270.4v-4h274.4v164.6h260.2l-.1-113.8"/><path d="M155.4 1226.2c0 6-4.8 10.9-10.9 10.9-6 0-10.8-4.9-10.8-10.8 0-6 4.8-10.9 10.8-10.9 6 0 10.9 4.9 10.9 10.8zm359.7 50.8c0 4.9-4 8.9-8.8 8.9-4.9 0-8.8-4-8.8-8.9 0-4.7 3.9-8.8 8.8-8.8 4.8 0 8.8 4.1 8.8 8.8zm-359.7 113.9c0 6-4.8 10.8-10.9 10.9-6.1 0-10.8-4.9-10.8-10.9s4.7-10.9 10.8-10.9 10.9 5 10.9 10.9zm267 0c0 6-4.9 10.9-10.9 10.9-6.1 0-10.8-4.9-10.8-10.9 0-5.9 4.8-10.8 10.8-10.8 5.9-.1 10.8 4.8 10.9 10.8zm-4.2-112.4c0 3.7-3 6.8-6.7 6.8-3.8 0-6.8-3.1-6.8-6.8 0-3.8 3-6.8 6.8-6.8 3.7 0 6.7 3 6.7 6.8zm89.5-865.3v4.2h-95.6v113.8H143.8V366.6h-270.3l-.1-4.1h274.5v164.6H408V413.3"/><path d="M155.3 364.5c0 5.9-4.8 10.8-10.8 10.8s-10.9-4.9-10.9-10.8c0-6.1 4.8-10.9 10.9-10.9s10.8 4.9 10.8 10.9zm359.8 50.8c0 4.9-4 8.9-8.8 8.9-4.9 0-8.8-3.9-8.8-8.8s3.9-8.8 8.8-8.8c4.8-.1 8.8 3.8 8.8 8.7zM155.3 529.2c0 5.9-4.7 10.8-10.8 10.8s-10.9-4.9-10.9-10.8c0-6.1 4.8-10.9 10.9-10.9 6 0 10.8 4.8 10.8 10.9zm267 0c0 5.9-4.9 10.8-10.8 10.8-6.1 0-10.9-4.9-10.9-10.8 0-6.1 4.8-10.9 10.9-10.9 5.9 0 10.8 4.8 10.8 10.9zm-4.1-112.6c0 3.8-3 6.8-6.7 6.8-3.9 0-6.8-3-6.8-6.8 0-3.7 3-6.7 6.8-6.7 3.7 0 6.7 3 6.7 6.7zm270.4 319.8l-.1 4.1H593v113.9H324.6l.1-164.7H54.5v-4.1h274.3v164.7h260.1V736.4"/><path d="M65.3 687.7c0 6-4.9 10.8-10.8 10.8-6 0-10.9-4.8-10.9-10.8s4.8-10.8 10.9-10.8c5.9-.1 10.8 4.7 10.8 10.8zm271-3.1c0 6-4.9 10.9-10.9 10.8-6 0-10.8-4.8-10.8-10.8s4.9-10.8 10.8-10.8c6 0 10.9 4.8 10.9 10.8zm359.8 53.9c0 4.9-3.9 8.8-8.8 8.8s-8.9-3.9-8.9-8.8 4-8.9 8.9-8.9c4.8.1 8.8 4 8.8 8.9zM336.3 852.3c0 6-4.9 10.9-10.9 10.9-5.9 0-10.8-4.9-10.8-10.9 0-5.9 4.9-10.8 10.8-10.8 6 0 10.9 4.9 10.9 10.8zm266.8 0c0 6-4.8 10.9-10.8 10.9s-10.9-4.9-10.9-10.9c0-5.9 4.9-10.8 10.9-10.8 6.1 0 10.8 4.9 10.8 10.8zm-4-112.5c0 3.7-3 6.8-6.7 6.7-3.7 0-6.8-3-6.8-6.8 0-3.7 3.1-6.7 6.7-6.7 3.7.1 6.8 3.1 6.8 6.8zm3.4-588.7v4l-95.6.1V269H238.7V104.3H-31.7v-4l274.5-.1v164.7h260.1V151.1"/><path d="M250.1 102.3c0 6-4.8 10.8-10.8 10.8-5.9 0-10.8-4.8-10.8-10.8s4.9-10.8 10.9-10.8 10.7 4.8 10.7 10.8zm359.8 50.9c0 4.8-3.9 8.8-8.8 8.8s-8.8-4-8.8-8.8c0-4.9 3.9-8.9 8.8-8.9s8.8 4 8.8 8.9zM250.1 266.9c0 6-4.8 10.8-10.8 10.8-5.9 0-10.9-4.9-10.8-10.8 0-6 4.9-10.8 10.8-10.8 6.1 0 10.8 4.8 10.8 10.8zm267 0c0 6-4.9 10.8-10.8 10.8-6 0-10.9-4.9-10.9-10.9s4.8-10.8 10.9-10.8c5.9.1 10.8 4.9 10.8 10.9zM513 154.5c0 3.7-2.9 6.8-6.7 6.8-3.7 0-6.8-3.1-6.7-6.8 0-3.8 3-6.8 6.8-6.8 3.7 0 6.6 3 6.6 6.8zm390.3 228.3v4h-95.5v113.9H539.5V336.1l-270.4-.1v-4h274.5l-.1 164.6h260.2V382.7"/><path d="M280 334c0 6-4.9 10.9-10.9 10.8-5.9 0-10.8-4.9-10.8-10.8 0-6 4.9-10.9 10.8-10.9 6 .1 10.9 5 10.9 10.9zm271 0c0 6-4.9 10.8-10.9 10.8s-10.9-4.9-10.8-10.8c0-6 4.9-10.9 10.9-10.9 6 .1 10.8 4.9 10.8 10.9zm359.7 50.8c0 4.9-4 8.8-8.7 8.8-4.9 0-8.9-3.9-8.9-8.8 0-4.8 4-8.8 8.9-8.8 4.8 0 8.7 4 8.7 8.8zM551 498.7c0 6-4.9 10.8-10.9 10.8s-10.8-4.9-10.8-10.8c0-6 4.9-10.9 10.9-10.9s10.8 4.9 10.8 10.9zm267 0c0 5.9-4.9 10.8-10.9 10.8s-10.9-4.9-10.8-10.8c0-6 4.9-10.9 10.8-10.8 6-.1 10.9 4.8 10.9 10.8zm-4.1-112.5c0 3.8-3.1 6.8-6.7 6.8-3.8 0-6.8-3.1-6.9-6.9 0-3.7 3-6.7 6.9-6.7 3.6 0 6.6 3 6.7 6.8zM591.7 670.4v1.8h-43.1v51.4H427.3v-74.3H305.2v-1.9h124v74.4h117.6v-51.4"/><path d="M310.2 648.4c0 2.7-2.2 4.9-5 4.8-2.7 0-4.9-2.1-4.9-4.9 0-2.7 2.2-4.8 4.9-4.9 2.8.1 5 2.2 5 5zm122.3 0c0 2.7-2.1 4.9-4.9 4.9-2.7 0-4.8-2.1-4.9-4.9 0-2.8 2.2-4.9 4.9-4.9 2.9 0 5 2.1 4.9 4.9zm162.6 22.9c0 2.2-1.8 4-4 4s-3.9-1.8-3.9-4 1.7-4 3.9-4c2.1 0 4 1.9 4 4zm-162.5 51.4c0 2.7-2.1 4.9-4.9 4.9-2.7 0-4.8-2.2-4.8-4.9s2.2-4.9 4.9-4.9c2.6.1 4.8 2.2 4.8 4.9zm120.6 0c0 2.7-2.3 4.9-4.9 4.9-2.7 0-4.9-2.2-4.9-4.9s2.2-4.9 4.9-4.9c2.6.1 4.9 2.2 4.9 4.9zm-1.9-50.8c0 1.7-1.4 3-3 3-1.7 0-3.1-1.3-3.1-3s1.3-3.1 3.1-3.1c1.7.1 3 1.4 3 3.1zm-58-371.6v-1.8h43.2V247h121.1v74.4h122.1v1.9H655.8v-74.4H538.3v51.4"/><path d="M774.9 322.3c0-2.8 2.2-4.9 4.9-4.9s5 2.1 5 4.9c0 2.7-2.3 4.9-5 4.9s-4.9-2.1-4.9-4.9zm-122.4 0c0-2.8 2.1-4.9 4.9-4.9 2.7 0 4.9 2.1 4.9 4.9 0 2.7-2.2 4.9-4.9 4.9-2.8 0-4.9-2.1-4.9-4.9zM490 299.4c0-2.2 1.8-4 3.9-4s3.9 1.8 3.9 4-1.8 4-3.9 4-3.9-1.8-3.9-4zM652.5 248c0-2.7 2.1-4.9 4.9-4.9 2.7 0 4.9 2.2 4.9 4.9 0 2.8-2.2 4.9-4.9 4.9-2.8-.1-4.9-2.2-4.9-4.9zm-120.7 0c0-2.7 2.2-4.9 4.9-4.9s4.9 2.2 4.9 4.9c0 2.8-2.2 4.9-4.9 4.9-2.6-.1-4.9-2.2-4.9-4.9zm1.9 50.7c0-1.6 1.4-3 3-3 1.8 0 3.1 1.3 3.1 3s-1.4 3.1-3.1 3.1c-1.6 0-2.9-1.4-3-3.1zM1.3 1201.8v-2.8h68.2v-81.2h191.4v117.4h192.7v3H257.9v-117.6H72.4v81.2"/><path d="M445.9 1236.6c0-4.2 3.5-7.7 7.7-7.7 4.3 0 7.8 3.6 7.8 7.8 0 4.3-3.4 7.7-7.7 7.7-4.3 0-7.8-3.4-7.8-7.8zm-193.3.1c0-4.2 3.5-7.8 7.8-7.8 4.2 0 7.7 3.6 7.7 7.8 0 4.3-3.4 7.7-7.7 7.7-4.3 0-7.8-3.5-7.8-7.7zM-4 1200.4c0-3.4 2.7-6.2 6.2-6.2s6.4 2.8 6.4 6.2c0 3.4-2.8 6.3-6.4 6.3-3.4 0-6.2-2.9-6.2-6.3zm256.6-81.2c0-4.3 3.4-7.7 7.7-7.7 4.3 0 7.7 3.4 7.7 7.7 0 4.3-3.4 7.8-7.7 7.8-4.2 0-7.6-3.5-7.7-7.8zm-190.4 0c0-4.3 3.5-7.7 7.7-7.7 4.3 0 7.8 3.4 7.8 7.7 0 4.3-3.4 7.8-7.8 7.8-4.2 0-7.7-3.5-7.7-7.8zm2.9 80.3c0-2.7 2.1-4.8 4.8-4.8 2.7 0 4.9 2.2 4.9 4.8 0 2.8-2.2 4.9-4.9 4.9-2.6 0-4.8-2.2-4.8-4.9zm400.5-463.7h2.9v68.1h81.2v191.5H432.3v192.7h-3V992.4h117.5V806.8l-81.2.1"/><path d="M429.8 1181.9c4.2 0 7.7 3.4 7.7 7.7 0 4.3-3.5 7.8-7.7 7.8-4.3 0-7.8-3.5-7.7-7.8 0-4.2 3.4-7.7 7.7-7.7zm1-194.7c4.3 0 7.7 3.4 7.7 7.7s-3.4 7.7-7.8 7.8c-4.2 0-7.6-3.4-7.7-7.8.1-4.3 3.5-7.7 7.8-7.7zM467 730.5c3.5 0 6.4 2.8 6.4 6.3s-2.9 6.3-6.4 6.3c-3.4 0-6.1-2.8-6.1-6.3s2.7-6.3 6.1-6.3zm81.3 256.7c4.2 0 7.7 3.4 7.7 7.7s-3.5 7.8-7.7 7.7c-4.2 0-7.8-3.4-7.7-7.7-.1-4.3 3.4-7.8 7.7-7.7zm0-190.5c4.3 0 7.7 3.4 7.8 7.8 0 4.3-3.5 7.7-7.8 7.8-4.2 0-7.8-3.5-7.8-7.8 0-4.4 3.5-7.8 7.8-7.8zm-80.3 2.9c2.7 0 4.8 2.1 4.8 4.8s-2.1 4.9-4.8 4.8c-2.7 0-4.9-2.1-4.9-4.8.1-2.7 2.2-4.8 4.9-4.8zm188.7-456.1h2.8v68.2l81.3-.1-.1 191.5H623.2l.1 192.8h-2.9V600.1h117.5V414.6h-81.3"/><path d="M621.9 788.1c4.2 0 7.7 3.5 7.8 7.8 0 4.3-3.5 7.7-7.8 7.8-4.3 0-7.8-3.5-7.8-7.8.1-4.3 3.4-7.8 7.8-7.8zm0-193.2c4.2 0 7.7 3.4 7.7 7.7 0 4.2-3.5 7.8-7.7 7.7-4.3 0-7.7-3.4-7.7-7.7-.1-4.3 3.3-7.7 7.7-7.7zm36.2-256.7c3.4 0 6.3 2.8 6.3 6.3 0 3.4-2.9 6.2-6.3 6.2-3.5 0-6.3-2.8-6.4-6.2.1-3.5 2.9-6.3 6.4-6.3zm81.2 256.7c4.3 0 7.7 3.4 7.7 7.7s-3.4 7.8-7.8 7.8c-4.2 0-7.7-3.5-7.7-7.7.1-4.4 3.5-7.8 7.8-7.8zm0-190.5c4.3 0 7.7 3.4 7.7 7.7 0 4.3-3.4 7.7-7.7 7.7s-7.8-3.5-7.8-7.8c0-4.1 3.5-7.6 7.8-7.6zm-80.2 2.9c2.7 0 4.9 2.2 4.9 4.8 0 2.7-2.2 4.9-4.9 4.9-2.6 0-4.8-2.2-4.8-4.9 0-2.6 2.1-4.7 4.8-4.8zm-480.6 763.9h1.3v29l34.6-.1v81.7h-50v82.2h-1.2v-83.5h49.9v-79l-34.6-.1"/><path d="M163.7 1360.6c1.9 0 3.3 1.5 3.3 3.4 0 1.7-1.4 3.3-3.3 3.3-1.8 0-3.3-1.6-3.3-3.3 0-1.8 1.5-3.4 3.3-3.4zm0-82.4c1.9 0 3.3 1.6 3.3 3.4s-1.4 3.2-3.3 3.2c-1.8 0-3.3-1.5-3.3-3.2 0-1.8 1.5-3.4 3.3-3.4zm15.5-109.2c1.5 0 2.7 1.2 2.7 2.6s-1.3 2.6-2.7 2.7c-1.5 0-2.7-1.2-2.7-2.7s1.2-2.7 2.7-2.6zm34.5 109.2c1.9 0 3.3 1.6 3.3 3.4s-1.4 3.2-3.3 3.2-3.3-1.4-3.3-3.2c.1-1.8 1.5-3.4 3.3-3.4zm.1-81.1c1.8 0 3.3 1.5 3.3 3.3s-1.4 3.4-3.3 3.4c-1.8 0-3.2-1.6-3.2-3.4-.1-1.8 1.3-3.3 3.2-3.3zm-34.2 1.3c1.1 0 2.1.8 2 2 0 1.1-.9 2-2 2-1.2 0-2.2-.8-2.2-2 .1-1.2 1-2 2.2-2zm62.5-364.8h1.3v29h34.5l.1 81.6-50.1.1v82.1h-1.3v-83.5h50v-79h-34.5"/><path d="M227.3 1023.1c1.8 0 3.3 1.5 3.3 3.3s-1.5 3.4-3.3 3.4c-1.9 0-3.3-1.6-3.3-3.4 0-1.9 1.3-3.4 3.3-3.3zm0-82.5c1.8 0 3.3 1.5 3.3 3.3s-1.5 3.3-3.3 3.3c-1.9 0-3.3-1.5-3.3-3.3 0-1.7 1.3-3.2 3.3-3.3zm15.4-109.3c1.5 0 2.7 1.2 2.7 2.7s-1.2 2.7-2.7 2.7c-1.4 0-2.6-1.2-2.6-2.7 0-1.5 1.1-2.7 2.6-2.7zm34.6 109.4c1.9 0 3.3 1.5 3.3 3.3s-1.4 3.3-3.3 3.4c-1.8 0-3.2-1.6-3.2-3.4-.1-1.8 1.3-3.4 3.2-3.3zm0-81.2c1.9 0 3.3 1.6 3.3 3.4 0 1.7-1.4 3.3-3.3 3.3-1.8 0-3.2-1.6-3.2-3.3-.1-1.8 1.3-3.5 3.2-3.4zm-34.2 1.3c1.1 0 2.1.9 2.1 2.1 0 1.2-1 2-2.1 2.1-1.1 0-2.1-.9-2.1-2.1 0-1.3 1-2.1 2.1-2.1zM69.6 441.7H71v33.2h39.6v93.3H53.3l.1 94h-1.5v-95.4h57.4l-.1-90.4H69.6"/><path d="M52.7 658.4c2.1 0 3.8 1.7 3.8 3.8s-1.7 3.8-3.8 3.8c-2 0-3.9-1.7-3.8-3.8 0-2.1 1.8-3.8 3.8-3.8zm0-94.2c2.1 0 3.8 1.7 3.8 3.8s-1.7 3.7-3.9 3.7c-2 0-3.8-1.6-3.8-3.7.1-2.1 1.9-3.8 3.9-3.8zm17.7-125c1.7 0 3 1.3 3 3 0 1.8-1.3 3-3 3s-3.1-1.3-3.1-3c0-1.8 1.3-3 3.1-3zm39.5 125c2.1 0 3.8 1.6 3.8 3.8 0 2.1-1.7 3.7-3.8 3.7-2 0-3.7-1.6-3.7-3.7s1.7-3.8 3.7-3.8zm0-92.8c2.1 0 3.8 1.7 3.8 3.7 0 2.1-1.7 3.8-3.8 3.8-2 0-3.7-1.7-3.7-3.9 0-1.8 1.6-3.6 3.7-3.6zm-39.1 1.4c1.3 0 2.4 1 2.3 2.3 0 1.3-1 2.4-2.3 2.4s-2.3-1-2.3-2.4c-.1-1.3 1-2.3 2.3-2.3zm341.5 614.1v1.4h-32.6v38.9H288l.1-56.1h-92.3v-1.5h93.7v56.3h88.8v-39"/><path d="M199.5 1070.4c0 2-1.7 3.7-3.7 3.7-1.9 0-3.7-1.6-3.7-3.7 0-2 1.7-3.7 3.7-3.7s3.7 1.6 3.7 3.7zm92.5 0c0 2-1.6 3.6-3.6 3.6-2.1 0-3.7-1.6-3.7-3.7s1.6-3.7 3.7-3.7c1.9 0 3.6 1.7 3.6 3.8zm122.9 17.2c0 1.6-1.4 3.1-3 3.1-1.7 0-3.1-1.4-3.1-3.1 0-1.6 1.4-3 3.1-2.9 1.6 0 3 1.2 3 2.9zM292 1126.5c0 2-1.6 3.7-3.7 3.7-2 0-3.7-1.6-3.7-3.6 0-2.1 1.6-3.7 3.7-3.7 2-.1 3.7 1.6 3.7 3.6zm91.2 0c0 2-1.7 3.6-3.7 3.6s-3.7-1.6-3.7-3.6c0-2.1 1.6-3.7 3.7-3.7 2 0 3.7 1.6 3.7 3.7zm-1.4-38.4c0 1.4-1 2.4-2.2 2.4-1.3 0-2.4-1.1-2.4-2.4s1-2.3 2.3-2.3c1.2 0 2.3 1 2.3 2.3zm6.6-471.4v-1.4H421l.1-38.9h91.5l.1 56.2H605l-.1 1.4h-93.6v-56.2h-88.9v38.9"/><path d="M601.2 633.4c0-2.1 1.7-3.7 3.7-3.7 1.9 0 3.7 1.6 3.7 3.7 0 2-1.7 3.6-3.7 3.6s-3.7-1.6-3.7-3.6zm-92.4 0c0-2.1 1.6-3.7 3.7-3.7 2 0 3.7 1.7 3.7 3.8 0 2-1.7 3.6-3.7 3.6-2.2-.1-3.8-1.7-3.7-3.7zm-122.9-17.5c0-1.6 1.3-3 3-3 1.6 0 3 1.3 3 3s-1.4 3-3 3c-1.7 0-3.1-1.3-3-3zm122.8-38.8c0-2 1.6-3.7 3.7-3.7 2 0 3.7 1.7 3.7 3.7 0 2.1-1.7 3.7-3.7 3.7-2.1 0-3.6-1.7-3.7-3.7zm-91.2-.1c0-2 1.7-3.6 3.7-3.6 2.1 0 3.7 1.6 3.7 3.7s-1.5 3.7-3.7 3.7c-2 0-3.7-1.7-3.7-3.8zm1.5 38.5c0-1.3 1-2.3 2.2-2.3 1.3 0 2.4 1 2.4 2.2 0 1.3-1 2.3-2.4 2.4-1.2 0-2.2-1-2.2-2.3zM-20.6 270.7l-.1-1.1H4.8v-30.3h71.6v43.9l72.1.1v1H75.3v-43.9H6l-.1 30.4"/><path d="M145.6 283.7c0-1.5 1.3-2.9 2.8-2.8 1.6 0 2.9 1.3 2.9 2.8 0 1.6-1.3 2.9-2.9 2.9-1.5 0-2.8-1.2-2.8-2.9zm-72.2 0c0-1.5 1.2-2.8 2.8-2.8 1.5 0 2.8 1.3 2.9 2.9 0 1.6-1.3 2.9-2.9 2.9-1.5-.1-2.8-1.4-2.8-3zm0-43.8c0-1.6 1.3-2.8 2.8-2.8s2.8 1.2 2.8 2.8-1.3 2.8-2.8 2.8c-1.5 0-2.8-1.3-2.8-2.8zm-71.3 0c0-1.6 1.3-2.8 3-2.9 1.5 0 2.9 1.2 2.9 2.9 0 1.6-1.3 2.8-2.9 2.9-1.7-.1-3-1.3-3-2.9zm1.2 30c0-1 .7-1.8 1.8-1.8.9 0 1.8.8 1.8 1.8s-.9 1.8-1.8 1.8c-1.1 0-1.8-.9-1.8-1.8zM-64 831.7v-1.1h25.5v-30.4H33v44h72.2v1H31.9l.1-43.8h-69.4v30.3"/><path d="M102.3 844.7c0-1.6 1.2-2.9 2.9-2.9 1.6 0 2.9 1.3 2.9 2.8 0 1.6-1.3 3-2.9 3-1.7.1-2.9-1.2-2.9-2.9zm-72.3 0c0-1.6 1.3-2.8 2.9-2.9 1.6 0 2.9 1.3 2.9 2.9 0 1.6-1.3 3-2.9 3s-2.9-1.3-2.9-3zm0-43.8c0-1.6 1.3-3 2.8-3 1.6 0 2.9 1.3 2.9 3 0 1.5-1.3 2.8-2.9 2.8-1.5 0-2.8-1.3-2.8-2.8zm152.4-352.3l.1-1.3 32.6-.1-.1-38.8h91.7v56.1H399v1.5h-93.8v-56.2h-88.8v38.8"/><path d="M395.3 465.3c0-2 1.6-3.7 3.7-3.7 2 0 3.7 1.7 3.7 3.7 0 2.1-1.7 3.7-3.7 3.7-2.1-.1-3.7-1.7-3.7-3.7zm-92.6-.1c0-2 1.6-3.6 3.7-3.6 2 0 3.7 1.7 3.7 3.7 0 2.1-1.7 3.7-3.7 3.7s-3.7-1.7-3.7-3.8zm-122.8-17.3c0-1.5 1.4-3 3.1-2.9 1.6 0 3 1.4 3 3s-1.3 3-3 3c-1.7-.1-3.1-1.5-3.1-3.1zM302.7 409c0-2 1.6-3.7 3.7-3.6 2 0 3.7 1.7 3.6 3.6 0 2.1-1.6 3.8-3.6 3.7-2 .1-3.7-1.6-3.7-3.7zm-91.1 0c0-2 1.6-3.7 3.7-3.7s3.7 1.7 3.7 3.7c0 2.1-1.6 3.8-3.7 3.8s-3.7-1.7-3.7-3.8zm1.3 38.5c0-1.3 1.1-2.4 2.3-2.4 1.3 0 2.3 1 2.3 2.4 0 1.2-1 2.2-2.3 2.2-1.2.1-2.3-.9-2.3-2.2zm217.6 587v4.2l-274.5-.1V874h-260.1v113.8h-99.6v-4h95.5V870h268.3v164.5"/><path d="M419.5 1036.6c0-6 4.9-10.9 10.9-10.9 5.9 0 10.8 4.9 10.8 10.9 0 5.9-4.9 10.9-10.8 10.9s-10.9-4.9-10.9-10.9zm-270.9 0c0-6 4.8-10.9 10.8-10.9s10.9 4.9 10.8 10.8c0 6-4.9 10.9-10.9 10.9-5.9.1-10.7-4.8-10.7-10.8zm0-164.6c0-6 4.8-10.9 10.8-10.8 6 0 10.9 4.9 10.9 10.9 0 5.9-4.9 10.9-10.8 10.8-6.1 0-10.9-5-10.9-10.9zm282.2 319.3v2.1h-128l-41.8 44-1.5-1.5 42.4-44.5m241.3-692.7v33.5H416.1v-2.1h125v-31.4M430.8 993.1v3H323.9V852.3h3l.1 140.8m-87.6-727.7l-.1 3.1h-42.8V161.4h-26.9v-3h29.9v107M413.6 390v26.6h-2.9l-.1-23.4-143-.1v-59l3.1-.1v56m197.4 412.9v3l-95.5.1V684.5l-47.2-.1v-3h50.3v121.5m15.4-211.4v24.4H389v-22.4h-83.8v54.8h-2v-56.8m-158.7 799v2.1h-32.8v-119.3l-182 .1v-2.1h184v119.2m-43.8-273v2H2.3v82.3h-2v-84.3m124.2-385.4v93.1h-2v-91.1H94.4v-2M243.7 69.5v32.8h-2V71.5H55v-2m604.2 274v3h-30.4v-10.9h-88.6v-3.2h91.5v11.1m-19.5 587.9v65.5h-62.4v-3.1h59.3v-59.3l-16.9-.1v-79.3h3v76.3"/></g><path fill="#62646F" d="M62.2 733.5V972H-84.1v240.2h-3.6V968.3H58.6V737.1H-42.6v-88.5h3.6l.1 84.9"/><path fill="#62646F" d="M60.4 961.7c5.3 0 9.7 4.3 9.7 9.7 0 5.3-4.4 9.6-9.7 9.7-5.3 0-9.6-4.4-9.7-9.7.1-5.4 4.4-9.7 9.7-9.7zm0-237.2c5.3 0 9.7 4.3 9.6 9.6 0 5.3-4.3 9.6-9.6 9.6s-9.6-4.3-9.6-9.6c-.1-5.3 4.3-9.6 9.6-9.6zm68-496.8v238.5H-17.9v240.2h-3.6V462.5h146.3V231.4H23.6v-88.6h3.6v84.9"/><path fill="#62646F" d="M25.4 136.2c4.3 0 7.9 3.5 7.8 7.8 0 4.3-3.4 7.8-7.8 7.8-4.3 0-7.8-3.5-7.8-7.8 0-4.2 3.5-7.8 7.8-7.8zm101.2 319.7c5.3 0 9.6 4.3 9.6 9.6s-4.3 9.7-9.6 9.6c-5.3 0-9.7-4.3-9.6-9.6-.1-5.2 4.3-9.6 9.6-9.6zm0-237.2c5.3 0 9.6 4.3 9.7 9.7 0 5.3-4.4 9.6-9.7 9.7-5.3 0-9.6-4.4-9.7-9.7.1-5.4 4.4-9.7 9.7-9.7zm-99.9 3.6c3.3 0 5.9 2.7 5.9 6.1 0 3.3-2.7 6-6 6s-6-2.8-6-6c.1-3.4 2.7-6 6.1-6.1zM234.4 577l-.1 238.4H88l.1 240.3h-3.7V811.8h146.3l.1-231.2-101.2-.1V492h3.7v85"/><path fill="#66bb6a" d="M86.3 1046c5.3 0 9.6 4.3 9.6 9.7 0 5.3-4.3 9.6-9.6 9.6s-9.6-4.3-9.6-9.6c-.1-5.3 4.2-9.7 9.6-9.7zm-.1-240.8c5.3 0 9.7 4.3 9.6 9.6 0 5.3-4.3 9.6-9.6 9.6s-9.6-4.3-9.6-9.6c0-5.4 4.4-9.7 9.6-9.6zm45.2-319.8c4.3 0 7.9 3.5 7.9 7.9 0 4.3-3.5 7.8-7.9 7.8-4.2 0-7.7-3.5-7.7-7.8 0-4.4 3.4-7.9 7.7-7.9zm101.1 319.8c5.4 0 9.7 4.3 9.6 9.6 0 5.3-4.2 9.6-9.6 9.6-5.3 0-9.6-4.3-9.6-9.6s4.4-9.7 9.6-9.6zm.1-237.3c5.4 0 9.6 4.3 9.6 9.6s-4.3 9.7-9.7 9.7c-5.3 0-9.6-4.3-9.6-9.6 0-5.4 4.4-9.7 9.7-9.7zm-100 3.6c3.3 0 6.1 2.8 6 6 0 3.4-2.8 6.1-6 6.1-3.4 0-6.1-2.7-6.1-6.1.1-3.2 2.8-6 6.1-6zm295.1 643.1v3.6h-85l.1 101.1-238.4.1v-146.3l-240.3-.1v-3.6H108v146.3h231.1v-101.1"/><path fill="#62646F" d="M114.6 1171.2c0 5.3-4.3 9.6-9.7 9.7-5.3 0-9.6-4.4-9.6-9.6 0-5.3 4.3-9.7 9.7-9.7 5.3 0 9.6 4.3 9.6 9.6zm319.7 45.2c0 4.3-3.5 7.9-7.8 7.8-4.3 0-7.8-3.5-7.8-7.8 0-4.2 3.5-7.8 7.8-7.8 4.3-.1 7.7 3.5 7.8 7.8zm-319.7 101.1c0 5.3-4.3 9.6-9.7 9.7-5.3 0-9.6-4.4-9.6-9.6 0-5.3 4.3-9.7 9.7-9.7 5.3 0 9.6 4.3 9.6 9.6zm237.2 0c0 5.3-4.3 9.7-9.6 9.6-5.4 0-9.6-4.3-9.6-9.6s4.2-9.6 9.6-9.6c5.3 0 9.6 4.3 9.6 9.6zm-3.7-99.9c0 3.3-2.7 6-6 6-3.4 0-6-2.7-6-6 0-3.4 2.7-6 6-6 3.4 0 6 2.7 6 6zm79.6-768.9v3.6h-85v101.2H104.4l-.1-146.3h-240.2v-3.6H108v146.3h231.1V448.7"/><path fill="#62646F" d="M114.5 405.4c0 5.3-4.2 9.6-9.6 9.6-5.3 0-9.7-4.3-9.6-9.6 0-5.4 4.3-9.7 9.6-9.6 5.4 0 9.7 4.3 9.6 9.6zm319.8 45.1c0 4.3-3.5 7.8-7.8 7.8s-7.9-3.5-7.9-7.9c0-4.3 3.5-7.8 7.8-7.8 4.4.1 7.9 3.6 7.9 7.9zM114.5 551.7c0 5.3-4.2 9.6-9.6 9.6-5.3 0-9.7-4.3-9.6-9.6 0-5.4 4.3-9.7 9.6-9.6 5.4-.1 9.7 4.3 9.6 9.6zm237.4 0c0 5.4-4.4 9.7-9.7 9.7-5.4 0-9.7-4.3-9.7-9.7s4.2-9.6 9.7-9.7c5.3 0 9.6 4.4 9.7 9.7zm-3.8-100c0 3.4-2.6 6.1-5.9 6.1-3.4 0-6-2.7-6-6s2.6-6 6-6c3.3-.1 5.9 2.6 5.9 5.9zm240.3 284.2v3.6h-84.9l.1 101.2H265.1V694.3H24.9v-3.6h243.8v146.4H500l-.1-101.2"/><path fill="#62646F" d="M34.5 692.5c0 5.4-4.3 9.7-9.7 9.7s-9.6-4.3-9.6-9.6c0-5.4 4.3-9.6 9.7-9.6 5.3-.1 9.6 4.2 9.6 9.5zm240.8-2.7c0 5.3-4.3 9.7-9.6 9.6-5.3 0-9.7-4.3-9.6-9.6 0-5.3 4.3-9.6 9.6-9.6s9.6 4.3 9.6 9.6zm319.8 47.9c0 4.3-3.5 7.8-7.8 7.8s-7.8-3.5-7.8-7.8 3.5-7.8 7.8-7.8 7.8 3.5 7.8 7.8zM275.3 838.9c0 5.2-4.3 9.6-9.6 9.6s-9.7-4.3-9.7-9.7c0-5.3 4.4-9.6 9.6-9.6 5.4.1 9.8 4.4 9.7 9.7zm237.3 0c0 5.3-4.3 9.7-9.7 9.7-5.3 0-9.6-4.4-9.6-9.6 0-5.3 4.3-9.7 9.7-9.7 5.2 0 9.5 4.3 9.6 9.6zm-3.6-100c0 3.3-2.8 6-6.1 6s-6-2.7-6-6 2.7-6 6-6 6.1 2.7 6.1 6zm2.9-523.2v3.6H427v101.2H188.6V174.1H-51.6v-3.6h243.9v146.3l231.2.1-.1-101.2"/><path fill="#62646F" d="M198.9 172.3c0 5.4-4.3 9.7-9.7 9.7-5.2 0-9.7-4.3-9.6-9.6 0-5.3 4.3-9.6 9.7-9.6 5.2-.1 9.6 4.2 9.6 9.5zm319.7 45.2c0 4.3-3.5 7.8-7.8 7.8s-7.8-3.6-7.9-7.9c0-4.3 3.5-7.8 7.8-7.8 4.4 0 7.9 3.6 7.9 7.9zM198.8 318.6c0 5.4-4.3 9.6-9.6 9.6s-9.6-4.3-9.6-9.6 4.3-9.6 9.7-9.6c5.2 0 9.6 4.3 9.5 9.6zm237.3 0c0 5.3-4.3 9.7-9.6 9.6-5.3 0-9.7-4.3-9.7-9.7 0-5.2 4.3-9.6 9.6-9.6 5.3.1 9.7 4.4 9.7 9.7zm-3.7-99.9c0 3.3-2.7 6-6 6s-6-2.8-6-6c0-3.4 2.7-6 6-6 3.4 0 6.1 2.7 6 6zm346.9 202.9v3.6h-85l.1 101.2H456V380.1H215.7v-3.6h243.9v146.3h231.2l-.1-101.2"/><path fill="#62646F" d="M225.3 378.2c0 5.3-4.3 9.7-9.7 9.7-5.3 0-9.6-4.3-9.6-9.6s4.3-9.7 9.7-9.7c5.3.1 9.6 4.4 9.6 9.6zm240.8.1c0 5.2-4.2 9.6-9.6 9.6-5.3 0-9.7-4.3-9.7-9.7 0-5.3 4.4-9.6 9.6-9.6 5.5 0 9.8 4.4 9.7 9.7zm319.8 45.1c0 4.3-3.5 7.8-7.8 7.8s-7.8-3.5-7.8-7.8 3.5-7.8 7.8-7.8 7.8 3.5 7.8 7.8zM466.2 524.6c-.1 5.3-4.3 9.7-9.7 9.7-5.3 0-9.7-4.3-9.7-9.7 0-5.2 4.3-9.6 9.7-9.7 5.4 0 9.6 4.4 9.7 9.7zm237.3 0c0 5.3-4.4 9.6-9.6 9.6-5.4 0-9.7-4.3-9.7-9.7 0-5.3 4.2-9.6 9.6-9.6 5.3 0 9.7 4.4 9.7 9.7zm-3.7-100c0 3.3-2.7 6-6 6-3.4 0-6-2.7-6-6 0-3.4 2.6-6 6-6 3.3 0 5.9 2.7 6 6zM502.4 677.2v1.6h-38.3v45.7l-107.8.1v-66.1H247.8v-1.7H358v66.1h104.4v-45.7"/><path fill="#62646F" d="M252.1 657.6c0 2.4-1.9 4.3-4.3 4.3s-4.3-1.9-4.3-4.3 1.9-4.3 4.3-4.3c2.5 0 4.4 1.9 4.3 4.3zm108.8.1c0 2.4-1.9 4.3-4.3 4.3-2.5 0-4.4-1.9-4.3-4.3 0-2.5 1.9-4.3 4.3-4.3 2.5-.2 4.4 1.8 4.3 4.3zM505.3 678c0 2-1.5 3.6-3.5 3.6-1.9 0-3.5-1.6-3.5-3.5 0-2 1.6-3.6 3.5-3.6 2 0 3.5 1.6 3.5 3.5zm-144.4 45.7c0 2.4-1.9 4.3-4.3 4.3s-4.3-1.9-4.3-4.3 2-4.3 4.3-4.3c2.5 0 4.4 1.9 4.3 4.3zm107.3 0c0 2.4-2.1 4.4-4.3 4.3-2.4 0-4.5-1.9-4.5-4.3s2-4.3 4.5-4.4c2.2.1 4.3 2 4.3 4.4zm-1.7-45.1c0 1.5-1.2 2.7-2.7 2.7s-2.7-1.2-2.7-2.7 1.2-2.7 2.7-2.7c1.5 0 2.7 1.2 2.7 2.7zM415 348.3l-.1-1.6h38.4V301H561v66.1h108.5l-.1 1.6h-110l-.1-66.1H454.9v45.7"/><path fill="#62646F" d="M665.1 367.9c0-2.5 2-4.3 4.3-4.3 2.5 0 4.4 1.9 4.4 4.3 0 2.5-2 4.3-4.4 4.3-2.3 0-4.3-1.9-4.3-4.3zm-108.7 0c0-2.4 1.9-4.4 4.3-4.3 2.3 0 4.3 1.9 4.3 4.3s-2 4.3-4.3 4.3c-2.4 0-4.2-1.9-4.3-4.3zm-144.5-20.4c0-1.9 1.6-3.6 3.6-3.6 1.9 0 3.5 1.6 3.6 3.6 0 1.9-1.6 3.6-3.5 3.5-2.1 0-3.7-1.6-3.7-3.5zm144.5-45.7c0-2.4 1.9-4.4 4.3-4.3 2.3 0 4.3 1.9 4.3 4.3s-2 4.3-4.3 4.3c-2.4 0-4.3-1.9-4.3-4.3zm-107.2 0c0-2.4 1.9-4.3 4.3-4.3 2.5 0 4.4 2 4.3 4.3 0 2.5-1.9 4.3-4.3 4.3s-4.3-1.9-4.3-4.3zm1.6 45.1c0-1.5 1.3-2.6 2.7-2.7 1.5 0 2.8 1.2 2.8 2.7s-1.3 2.7-2.8 2.8c-1.4 0-2.7-1.3-2.7-2.8zm-473.1 802.6v-2.5h60.6v-72.2h170v104.4h171.4v2.6h-174l.1-104.4h-165v72.1"/><path fill="#62646F" d="M372.8 1180.4c0-3.7 3.1-6.9 6.9-6.9s6.9 3.2 6.9 6.9c0 3.8-3.1 6.9-6.9 6.9s-6.9-3-6.9-6.9zm-171.8 0c0-3.7 3.1-6.9 6.9-6.9 3.8 0 6.9 3.2 6.9 6.9 0 3.8-3.1 6.9-6.9 6.9-3.9 0-6.9-3-6.9-6.9zm0-104.3c0-3.8 3.1-6.9 6.9-6.9 3.8 0 6.9 3.1 6.9 6.9s-3.1 6.9-6.9 6.9c-3.9 0-6.9-3.1-6.9-6.9zm-169.2 0c0-3.8 3.1-6.9 6.9-6.9 3.8 0 6.9 3.1 6.9 6.9s-3 6.9-6.9 6.9c-3.8 0-6.9-3.1-6.9-6.9zm2.6 71.3c0-2.3 1.9-4.2 4.3-4.2 2.3 0 4.3 1.9 4.3 4.2 0 2.4-2 4.3-4.3 4.3-2.4 0-4.3-1.9-4.3-4.3zm355.9-412h2.5v60.5h72.3V966H360.6v171.3h-2.5V963.4h104.3V798.5h-72.1"/><path fill="#62646F" d="M358.5 1131.8c3.7 0 6.9 3.1 6.9 6.9s-3.2 6.9-6.9 6.9c-3.8 0-6.9-3.1-6.9-6.9s3.1-6.9 6.9-6.9zm.9-173.1c3.8 0 6.9 3.1 6.9 6.9 0 3.8-3.1 6.9-6.9 6.9-3.7 0-6.8-3.1-6.9-6.9 0-3.8 3-6.9 6.9-6.9zm32.2-228.1c3.1 0 5.6 2.5 5.6 5.5 0 3.1-2.5 5.5-5.6 5.5s-5.5-2.5-5.5-5.5c-.1-3 2.4-5.5 5.5-5.5zm72.1 228.1c3.8 0 6.9 3.1 6.9 6.9 0 3.8-3.1 6.9-6.9 6.9-3.7 0-6.8-3.1-6.9-6.9 0-3.8 3.2-6.9 6.9-6.9zm0-169.3c3.8 0 6.9 3.1 6.9 6.9 0 3.8-3.1 6.9-6.9 6.9-3.7 0-6.9-3.1-6.9-6.9 0-3.8 3.2-6.9 6.9-6.9zm-71.3 2.6c2.4 0 4.3 1.9 4.3 4.3s-1.9 4.3-4.4 4.3c-2.3 0-4.2-1.9-4.2-4.3.1-2.4 2-4.3 4.3-4.3zm167.7-405.3h2.5l.1 60.5h72.1v170.2H530.5v171.3H528l-.1-174 104.3.1.1-164.9h-72.2"/><path fill="#62646F" d="M529.2 781.9c3.9 0 6.9 3.1 6.9 6.9 0 3.8-3 6.9-6.9 6.9-3.7 0-6.8-3.1-6.9-6.9 0-3.8 3.1-7 6.9-6.9zm0-171.9c3.8 0 6.9 3.1 6.9 6.9 0 3.8-3.1 6.9-6.9 6.9-3.9 0-6.9-3.1-6.9-6.9 0-3.7 3.1-6.8 6.9-6.9zm32.2-228c3.1 0 5.6 2.5 5.6 5.6s-2.5 5.6-5.6 5.6-5.6-2.5-5.6-5.5c0-3.2 2.5-5.7 5.6-5.7zm72.1 228.1c3.9 0 6.9 3 6.9 6.9 0 3.8-3 6.9-6.9 6.9-3.8 0-6.9-3.1-6.9-6.9.1-3.9 3.2-6.9 6.9-6.9zm0-169.3c3.8 0 6.9 3.1 6.9 6.9s-3 6.9-6.9 6.9c-3.8 0-6.9-3.1-6.9-6.9s3.1-6.9 6.9-6.9zm-71.2 2.6c2.3 0 4.3 1.9 4.3 4.3s-2 4.3-4.3 4.3-4.2-1.9-4.2-4.4c-.1-2.3 1.8-4.2 4.2-4.2zm-427.1 678.9h1.1v25.7h30.8v72.6h-44.5v73h-1.2v-74.2h44.5v-70.2h-30.7"/><path fill="#62646F" d="M122 1290.6c1.6 0 2.9 1.3 2.9 3 0 1.6-1.2 3-2.9 3-1.6 0-2.9-1.3-2.9-3 0-1.6 1.3-3 2.9-3zm0-73.2c1.6 0 2.9 1.3 2.9 2.9s-1.3 2.9-3 2.9c-1.6 0-2.8-1.3-2.9-2.9.1-1.5 1.4-2.9 3-2.9zm13.7-97.1c1.3 0 2.5 1.1 2.5 2.3 0 1.3-1.1 2.3-2.5 2.3-1.3 0-2.3-1-2.3-2.3s1-2.3 2.3-2.3zm30.8 97.1c1.6 0 3 1.4 3 3s-1.3 2.9-3 2.9c-1.6 0-2.9-1.3-2.9-2.9s1.3-3 2.9-3zm0-72.1c1.6 0 3 1.4 3 3s-1.3 3-3 3c-1.6 0-2.8-1.4-2.8-3-.1-1.6 1.2-3 2.8-3zm-30.3 1.1c.9 0 1.8.7 1.8 1.8s-.9 1.8-1.8 1.8c-1.1 0-1.9-.7-1.9-1.8-.1-1 .8-1.7 1.9-1.8z"/><g fill="#66bb6a"><path d="M191.7 822.2h1V848h30.8v72.6h-44.4v73l-1.2-.1v-74.1h44.4l.1-70.2h-30.7"/><path d="M178.4 990.6c1.7 0 3 1.4 3 3s-1.2 3-3 3c-1.6 0-2.9-1.4-2.9-3 .1-1.6 1.3-3 2.9-3zm0-73.2c1.7 0 3 1.3 3 3 0 1.6-1.3 2.9-3 3-1.6 0-2.9-1.4-2.8-3 0-1.6 1.2-3 2.8-3zm13.8-97.2c1.3 0 2.4 1.1 2.4 2.4 0 1.3-1.1 2.4-2.4 2.4-1.3 0-2.4-1.1-2.3-2.4 0-1.4 1-2.4 2.3-2.4zm30.7 97.2c1.7 0 3 1.3 3 3 0 1.6-1.3 2.9-3 3-1.6 0-2.9-1.4-2.8-3 0-1.6 1.2-3 2.8-3zm0-72.1c1.7 0 3 1.3 3 3 0 1.6-1.3 2.9-3 3-1.6 0-2.9-1.4-2.8-3 0-1.7 1.2-3.1 2.8-3zm-30.4 1.1c1 0 1.9.7 1.9 1.8 0 1-.9 1.8-1.9 1.8-.9 0-1.8-.8-1.8-1.8s.8-1.8 1.8-1.8z"/></g><g fill="#62646F"><path d="M38.4 474h1.2v29.5h35.2v82.9H23.9v83.5h-1.2v-84.7h50.8v-80.5l-35.1.1"/><path d="M23.3 666.6c1.9 0 3.4 1.5 3.4 3.3 0 1.9-1.5 3.4-3.4 3.4-1.8 0-3.4-1.6-3.4-3.4 0-1.8 1.6-3.3 3.4-3.3zm0-83.8c1.9 0 3.4 1.5 3.4 3.4 0 1.8-1.5 3.3-3.4 3.3-1.8 0-3.4-1.5-3.4-3.3 0-1.9 1.6-3.4 3.4-3.4zM39 471.7c1.5 0 2.7 1.2 2.8 2.7 0 1.5-1.3 2.7-2.8 2.7s-2.7-1.2-2.7-2.7c0-1.5 1.2-2.7 2.7-2.7zm35.2 111.1c1.9 0 3.4 1.5 3.4 3.4 0 1.8-1.5 3.3-3.4 3.3-1.8 0-3.3-1.5-3.3-3.3 0-1.9 1.5-3.4 3.3-3.4zm0-82.4c1.9 0 3.4 1.5 3.4 3.3 0 1.9-1.5 3.4-3.4 3.4-1.8 0-3.3-1.6-3.3-3.4 0-1.8 1.5-3.3 3.3-3.3zm-34.8 1.2c1.2 0 2.1.9 2.1 2.1s-.9 2.1-2.1 2.1c-1.2 0-2.1-1-2.1-2.1 0-1.2 1-2 2.1-2.1z"/></g><g fill="#62646F"><path d="M342.9 1047.4v1.3H314v34.5h-81.4l-.1-49.9h-82v-1.3h83.3v50h79l-.1-34.6"/><path d="M153.8 1032.6c0 1.8-1.5 3.3-3.3 3.3s-3.3-1.5-3.3-3.3 1.5-3.3 3.3-3.3c1.9.1 3.3 1.5 3.3 3.3zm82.3.1c0 1.8-1.5 3.3-3.3 3.3s-3.3-1.5-3.3-3.3 1.5-3.3 3.3-3.3c1.8 0 3.3 1.5 3.3 3.3zm109.2 15.3c0 1.5-1.3 2.8-2.7 2.7-1.5 0-2.7-1.3-2.7-2.7 0-1.5 1.2-2.7 2.7-2.7 1.4.1 2.7 1.2 2.7 2.7zm-109.2 34.6c0 1.8-1.5 3.3-3.3 3.3s-3.3-1.5-3.3-3.3 1.5-3.3 3.3-3.3c1.8 0 3.3 1.5 3.3 3.3zm81 0c0 1.8-1.5 3.3-3.3 3.3-1.9 0-3.3-1.5-3.3-3.3s1.3-3.3 3.3-3.3c1.8 0 3.3 1.5 3.3 3.3zm-1.3-34.2c0 1.2-.9 2.1-2 2.1-1.2 0-2.1-1-2.1-2.1 0-1.2 1-2 2.1-2 1.1.1 2 .9 2 2z"/></g><g fill="#62646F"><path d="M321.6 629.5v-1.3h29l.1-34.6h81.5l-.1 50 82 .1v1.2h-83.2v-50h-79v34.6"/><path d="M510.9 644.3c0-1.9 1.5-3.3 3.3-3.3s3.3 1.5 3.3 3.3-1.5 3.3-3.3 3.3c-1.9 0-3.3-1.5-3.3-3.3zm-82.3 0c0-1.9 1.4-3.4 3.3-3.4 1.8 0 3.3 1.5 3.3 3.4 0 1.8-1.5 3.2-3.3 3.2-1.9 0-3.3-1.4-3.3-3.2zm-109.2-15.5c0-1.5 1.2-2.7 2.7-2.7s2.7 1.2 2.7 2.7-1.3 2.6-2.8 2.6c-1.4.1-2.6-1.1-2.6-2.6zm109.3-34.5c0-1.8 1.4-3.3 3.3-3.3 1.8 0 3.3 1.5 3.3 3.3s-1.5 3.3-3.3 3.3c-2 0-3.3-1.5-3.3-3.3zm-81.1 0c0-1.8 1.5-3.3 3.3-3.3s3.3 1.5 3.3 3.3-1.5 3.3-3.3 3.3-3.3-1.5-3.3-3.3zm1.3 34.1c0-1.1.9-2 2-2 1.2 0 2.1.9 2.1 2 0 1.2-1 2.1-2.1 2.1-1.2-.1-2-.9-2-2.1z"/></g><g fill="#62646F"><path d="M-41.8 322v-.9h22.6l.1-27h63.5v39l64.1.1v.9h-65l-.1-39-61.6-.1v27"/><path d="M106 333.6c0-1.4 1.1-2.5 2.5-2.5s2.5 1.1 2.5 2.5c0 1.5-1.1 2.6-2.5 2.6-1.4-.1-2.6-1.2-2.5-2.6zm-64.2 0c0-1.4 1-2.5 2.5-2.5 1.3 0 2.5 1.2 2.5 2.5 0 1.5-1.1 2.6-2.5 2.6-1.5-.1-2.6-1.2-2.5-2.6zm-.1-39c0-1.5 1-2.5 2.5-2.5 1.4 0 2.5 1.1 2.5 2.5s-1.2 2.5-2.5 2.5c-1.4 0-2.5-1.1-2.5-2.5z"/></g><g fill="#62646F"><path d="M-80.3 820.6v-1h22.6v-27H5.9v39l64 .1v.9h-65v-39h-61.6v27"/><path d="M67.4 832.1c0-1.4 1.2-2.5 2.5-2.5 1.5 0 2.6 1.1 2.6 2.5 0 1.5-1.2 2.7-2.7 2.7-1.2 0-2.4-1.2-2.4-2.7zm-64.2 0c0-1.4 1.2-2.5 2.5-2.5s2.5 1.1 2.5 2.5c0 1.5-1.2 2.7-2.6 2.7-1.2 0-2.4-1.2-2.4-2.7zm0-39c0-1.4 1.2-2.6 2.5-2.6s2.5 1.2 2.5 2.6c0 1.3-1.2 2.5-2.5 2.5-1.3.1-2.5-1.1-2.5-2.5z"/></g><g fill="#66bb6a"><path d="M138.7 480.1v-1.2h28.9v-34.5h81.5v49.9H331l.1 1.2-83.3.1v-50h-78.9v34.5"/><path d="M327.8 494.9c0-1.8 1.5-3.3 3.3-3.3s3.3 1.5 3.3 3.3-1.5 3.3-3.3 3.3c-1.9 0-3.3-1.5-3.3-3.3zm-82.2 0c0-1.8 1.5-3.3 3.3-3.3s3.3 1.5 3.3 3.3-1.5 3.3-3.3 3.3c-1.8 0-3.3-1.5-3.3-3.3zm-109.2-15.4c0-1.5 1.2-2.7 2.7-2.7s2.7 1.2 2.7 2.7-1.2 2.7-2.7 2.7c-1.4 0-2.7-1.2-2.7-2.7zM245.6 445c0-1.8 1.5-3.3 3.3-3.3s3.3 1.5 3.3 3.3c0 1.9-1.5 3.4-3.3 3.4-1.8-.1-3.3-1.6-3.3-3.4zm-81 0c0-1.8 1.5-3.3 3.3-3.3 1.9 0 3.3 1.5 3.3 3.3 0 1.9-1.4 3.4-3.3 3.4-1.9-.1-3.4-1.6-3.3-3.4zm1.2 34.2c0-1.2 1-2.2 2-2.2 1.2 0 2.1.9 2.1 2.1 0 1.1-1 2-2.2 2-1 0-1.9-.9-1.9-1.9z"/></g><g fill="#62646F"><path d="M359 1000.9v3.6H115.2V858.2H-116v101.2l-88.6-.1v-3.6h85V854.6h238.4v146.3"/><path d="M349.4 1002.7c0-5.3 4.3-9.7 9.7-9.7 5.3 0 9.6 4.3 9.6 9.6s-4.3 9.7-9.7 9.7c-5.3 0-9.6-4.3-9.6-9.6zm-240.8 0c0-5.3 4.2-9.6 9.6-9.6s9.6 4.3 9.6 9.6-4.2 9.6-9.6 9.6c-5.4 0-9.6-4.3-9.6-9.6zm0-146.3c0-5.3 4.2-9.6 9.6-9.6s9.6 4.3 9.6 9.6-4.2 9.6-9.6 9.6c-5.4 0-9.6-4.3-9.6-9.6z"/></g><path fill="#62646F" d="M359.4 1140.2v1.8H245.6l-37.1 39.1-1.3-1.3 37.6-39.6m214.5-615.6v29.7l-113 .1v-1.8l111.2-.1v-27.9M359.4 964v2.7l-95.1-.1V838.9h2.8V964m-77.9-646.7v2.7h-38v-95.2l-23.9.1-.1-2.7h26.6v95.1m190.3 110.8v23.6h-2.6v-20.9H214.4l-.1-52.5h2.8v49.8M392.4 795v2.7h-84.7v-108h-42V687h44.7v108m13.7-188v21.8h-1.8v-20h-74.5v48.8H246V607m-141.1 710.2v1.8H75.8l-.1-105.9H-85.9v-1.8H77.5l.1 105.9M87.2 732v82.8h-1.8v-81h-25V732m132.7-588.8v29.1h-1.8V145l-165.9-.1v-1.8m536.9 243.6v2.7h-26.9v-9.8h-78.9v-2.7H538v9.8m-17.5 522.4v58.3h-55.4v-2.8l52.8.1-.1-52.8h-15v-70.5h2.6v67.7"/><path fill="#B9BFCA" d="M12 385.7h35.8v35.8H12zm706.9 18.6h35.8v35.8h-35.8zM207 984h35.8v35.8H207zm50.3-451.4h35.8v35.8h-35.8zm-88.2-376.3h35.8v35.8h-35.8z"/><path fill="#F3C96F" d="M399 1201.9l-35.9.1v-35.9H399m125.8-654.4h35.8v35.8h-35.8z"/><path fill="#AEC5E5" d="M518.3 720.8h35.8v35.8h-35.8zM314.9 299.3h35.8v35.8h-35.8zM153.1 798.4h30.7v30.7h-30.7zM13.2 211.1H49v35.8H13.2z"/><path fill="#D1DAE5" d="M124 673.3h35.8v35.8H124zm222.5 148h35.8v35.8h-35.8z"/><path fill="#62646F" d="M251.1 333.9c-9.7 0-17.5-7.8-17.5-17.4 0-9.7 7.8-17.5 17.5-17.5 9.6 0 17.4 7.8 17.4 17.5 0 9.6-7.8 17.4-17.4 17.4zm0-32.5c-8.4 0-15.1 6.7-15.1 15.1s6.7 15.1 15.1 15.1c8.4 0 15.1-6.8 15.1-15.1 0-8.4-6.8-15.1-15.1-15.1zm-124.9-55.9c-9.6 0-17.5-7.8-17.5-17.5 0-9.6 7.9-17.5 17.5-17.5 9.7 0 17.4 7.8 17.5 17.5-.1 9.7-7.9 17.5-17.5 17.5zm0-32.5c-8.4 0-15.2 6.8-15.2 15.1 0 8.4 6.8 15.1 15.1 15.1s15.1-6.8 15.1-15.1c.1-8.4-6.7-15.1-15-15.1zM25.1 162.2c-9.6 0-17.5-7.8-17.5-17.5 0-9.6 7.9-17.5 17.5-17.4 9.6 0 17.4 7.8 17.4 17.4 0 9.7-7.8 17.5-17.4 17.5zm0-32.5c-8.4 0-15.2 6.8-15.2 15.1 0 8.4 6.8 15.1 15.2 15.1 8.3 0 15.1-6.8 15-15.1.1-8.4-6.7-15.1-15-15.1zm402.2 107.1c-9.6 0-17.5-7.9-17.5-17.5s7.8-17.5 17.5-17.5 17.4 7.8 17.5 17.5c0 9.7-7.8 17.5-17.5 17.5zm0-32.6c-8.4 0-15.2 6.8-15.1 15.1 0 8.3 6.8 15.1 15.2 15.1 8.3 0 15.1-6.8 15.1-15.1-.1-8.3-6.9-15.1-15.2-15.1zm241.9 180.6c-9.6 0-17.5-7.8-17.5-17.5 0-9.6 7.8-17.5 17.5-17.5s17.4 7.8 17.5 17.5c-.1 9.7-7.9 17.5-17.5 17.5zm0-32.6c-8.4 0-15.1 6.8-15.1 15.1s6.8 15.1 15.2 15.1c8.3 0 15.1-6.8 15.1-15.1-.1-8.3-6.9-15.1-15.2-15.1zm-34.8 113.9c-9.6 0-17.5-7.8-17.5-17.5 0-9.6 7.8-17.4 17.5-17.5 9.6 0 17.4 7.8 17.5 17.5 0 9.8-7.8 17.6-17.5 17.5zm0-32.5c-8.3 0-15.1 6.8-15.1 15.1s6.8 15.1 15.2 15.1c8.3 0 15.1-6.8 15.1-15.1-.1-8.4-6.8-15.2-15.2-15.1zm-71.2 30.8c-9.6 0-17.5-7.8-17.5-17.5 0-9.6 7.9-17.5 17.5-17.5s17.4 7.8 17.5 17.5c0 9.7-7.8 17.6-17.5 17.5zm0-32.5c-8.4 0-15.1 6.8-15.1 15.1s6.8 15.1 15.1 15.1 15.1-6.8 15.1-15.1c0-8.4-6.8-15.1-15.1-15.1zm-489 165.6c-6.9 0-12.4-5.5-12.4-12.4s5.6-12.4 12.4-12.4c6.9 0 12.4 5.5 12.4 12.4-.1 6.9-5.5 12.4-12.4 12.4zm0-23.1c-5.9 0-10.7 4.8-10.8 10.8 0 5.9 4.8 10.7 10.8 10.7 5.8 0 10.7-4.8 10.7-10.7 0-6-4.8-10.8-10.7-10.8zM248 507.7c-6.9 0-12.4-5.5-12.4-12.4 0-6.8 5.6-12.4 12.4-12.4 6.9 0 12.4 5.5 12.4 12.4-.1 6.8-5.6 12.4-12.4 12.4zm-.1-23.1c-5.9 0-10.8 4.8-10.7 10.7 0 5.9 4.8 10.7 10.7 10.7 5.8 0 10.7-4.9 10.7-10.8 0-5.8-4.7-10.6-10.7-10.6zm-79.6-27.8c-6.9 0-12.4-5.5-12.4-12.4-.1-6.8 5.5-12.3 12.4-12.4 6.8 0 12.3 5.6 12.4 12.4-.1 6.9-5.6 12.4-12.4 12.4zm0-23.1c-6 0-10.8 4.8-10.8 10.8 0 5.9 4.8 10.7 10.8 10.7 5.9 0 10.7-4.8 10.7-10.7 0-5.9-4.9-10.8-10.7-10.8zm248.3-73.5c-6.8 0-12.4-5.5-12.4-12.4 0-6.8 5.6-12.4 12.4-12.4 6.9 0 12.4 5.5 12.4 12.4s-5.5 12.4-12.4 12.4zm0-23.1c-5.9 0-10.8 4.8-10.7 10.7 0 5.9 4.8 10.7 10.8 10.8 5.8 0 10.7-4.9 10.7-10.8-.1-5.9-4.9-10.7-10.8-10.7zm-372.9 9.5c-6.9 0-12.4-5.5-12.4-12.3s5.5-12.4 12.4-12.4c6.8 0 12.3 5.6 12.3 12.4s-5.5 12.4-12.3 12.3zm0-23.1c-6 0-10.8 4.8-10.8 10.8 0 5.9 4.8 10.7 10.7 10.7s10.7-4.8 10.7-10.7c.1-5.9-4.7-10.7-10.6-10.8zm514.7-4.2c-9.7 0-17.5-7.8-17.5-17.5 0-9.6 7.8-17.4 17.5-17.4 9.6 0 17.4 7.8 17.4 17.4.1 9.6-7.8 17.5-17.4 17.5zm0-32.6c-8.4 0-15.1 6.8-15.2 15.2 0 8.3 6.8 15.1 15.2 15.1 8.3 0 15.1-6.8 15.1-15.1 0-8.4-6.8-15.2-15.1-15.2zM356.2 676.4c-9.6 0-17.5-7.8-17.5-17.5 0-9.6 7.9-17.5 17.5-17.5s17.4 7.8 17.4 17.5c0 9.6-7.8 17.4-17.4 17.5zm0-32.6c-8.4 0-15.1 6.7-15.2 15.1 0 8.4 6.8 15.1 15.2 15.1 8.3 0 15.1-6.7 15.1-15.1 0-8.4-6.8-15.2-15.1-15.1zm75.7-31.9c-9.6 0-17.5-7.8-17.5-17.5 0-9.6 7.8-17.4 17.5-17.5 9.6 0 17.4 7.8 17.5 17.5-.1 9.7-7.9 17.5-17.5 17.5zm-.1-32.6c-8.3 0-15.1 6.8-15.1 15.1s6.8 15.1 15.2 15.1c8.3 0 15.1-6.8 15.1-15.1s-6.8-15.1-15.2-15.1zm9.3 276c-9.7 0-17.5-7.8-17.5-17.5s7.8-17.4 17.5-17.4c9.6 0 17.4 7.8 17.4 17.4 0 9.7-7.8 17.5-17.4 17.5zm0-32.6c-8.4 0-15.2 6.8-15.2 15.1 0 8.4 6.8 15.2 15.2 15.2 8.3 0 15.1-6.8 15.1-15.2-.1-8.3-6.8-15.1-15.1-15.1zM37.6 1095.2c-9.7 0-17.5-7.8-17.5-17.5 0-9.6 7.9-17.4 17.5-17.4 9.7 0 17.5 7.8 17.4 17.4 0 9.6-7.7 17.5-17.4 17.5zm0-32.6c-8.4 0-15.1 6.8-15.1 15.1 0 8.4 6.7 15.1 15.1 15.1 8.3 0 15.1-6.8 15.1-15.2 0-8.3-6.8-15-15.1-15zm168.7 32.6c-9.6 0-17.5-7.9-17.5-17.5 0-9.7 7.9-17.5 17.5-17.4 9.6 0 17.4 7.8 17.4 17.4 0 9.6-7.8 17.5-17.4 17.5zm0-32.6c-8.4 0-15.2 6.8-15.2 15.1 0 8.4 6.8 15.1 15.1 15.1 8.4 0 15.1-6.7 15.1-15.1.1-8.3-6.7-15.1-15-15.1zm209.3-78.5c-9.7 0-17.5-7.8-17.5-17.5 0-9.6 7.8-17.4 17.5-17.4S433 957 433 966.6c0 9.7-7.7 17.5-17.4 17.5zm0-32.6c-8.4 0-15.2 6.8-15.2 15.1 0 8.4 6.8 15.2 15.2 15.2 8.3 0 15.1-6.8 15.1-15.2 0-8.3-6.8-15.1-15.1-15.1zm-208 246.1c-9.7 0-17.5-7.8-17.5-17.5 0-9.6 7.8-17.4 17.5-17.4 9.6 0 17.4 7.8 17.4 17.4 0 9.7-7.8 17.5-17.4 17.5zm0-32.6c-8.4 0-15.1 6.8-15.1 15.1s6.7 15.1 15.1 15.1c8.3 0 15.1-6.8 15.1-15.2 0-8.2-6.8-15-15.1-15zm150.8-10.6c-9.7 0-17.5-7.8-17.5-17.5 0-9.6 7.8-17.4 17.5-17.4 9.6 0 17.4 7.8 17.4 17.4s-7.8 17.5-17.4 17.5zm0-32.6c-8.3 0-15.1 6.7-15.1 15.1s6.8 15.2 15.2 15.2c8.3 0 15.1-6.8 15.1-15.1-.1-8.4-6.9-15.2-15.2-15.2zm-16.1 114.8c-9.6 0-17.5-7.8-17.5-17.5s7.8-17.4 17.5-17.5c9.7 0 17.5 7.8 17.5 17.5-.1 9.7-7.9 17.5-17.5 17.5zm0-32.6c-8.4 0-15.2 6.8-15.2 15.1 0 8.4 6.8 15.1 15.1 15.1s15.1-6.8 15.1-15.1c.1-8.3-6.7-15.1-15-15.1zm-237.6-16.3c-9.7 0-17.5-7.8-17.5-17.5 0-9.6 7.8-17.4 17.5-17.4 9.6 0 17.4 7.8 17.4 17.4.1 9.7-7.7 17.6-17.4 17.5zm0-32.5c-8.4 0-15.1 6.8-15.1 15.1s6.7 15.1 15.1 15.1c8.3 0 15.1-6.8 15.1-15.2 0-8.3-6.7-15-15.1-15zm0 180.6c-9.7 0-17.5-7.8-17.5-17.5s7.8-17.4 17.5-17.4c9.6 0 17.4 7.8 17.4 17.4.1 9.6-7.7 17.4-17.4 17.5zm0-32.6c-8.4 0-15.2 6.8-15.2 15.1 0 8.4 6.8 15.2 15.2 15.2 8.3 0 15.1-6.8 15.1-15.2 0-8.3-6.7-15.1-15.1-15.1zm237.4 31.4c-9.7 0-17.5-7.8-17.5-17.5 0-9.6 7.8-17.4 17.5-17.4 9.6 0 17.4 7.8 17.4 17.4 0 9.7-7.9 17.5-17.4 17.5zm0-32.5c-8.4 0-15.2 6.8-15.2 15.1 0 8.4 6.8 15.2 15.2 15.2 8.3 0 15.1-6.8 15.1-15.2s-6.8-15.1-15.1-15.1zm85.8-68.1c-9.7 0-17.5-7.8-17.5-17.5 0-9.6 7.9-17.4 17.5-17.4s17.4 7.8 17.4 17.4c0 9.7-7.8 17.6-17.4 17.5zm0-32.5c-8.3 0-15.1 6.8-15.1 15.1 0 8.4 6.7 15.1 15.1 15.1 8.3 0 15.1-6.8 15.1-15.2 0-8.3-6.8-15-15.1-15zM60.7 988.9c-9.7 0-17.5-7.8-17.5-17.5 0-9.6 7.8-17.4 17.5-17.4 9.6 0 17.4 7.8 17.4 17.4 0 9.6-7.8 17.5-17.4 17.5zm0-32.6c-8.4 0-15.1 6.7-15.1 15.1 0 8.4 6.8 15.2 15.2 15.2 8.3 0 15.1-6.8 15.1-15.1-.2-8.4-6.9-15.2-15.2-15.2zm450.2-720.6c-9.6 0-17.5-7.8-17.5-17.5s7.8-17.4 17.5-17.5c9.7 0 17.5 7.8 17.5 17.5 0 9.6-7.8 17.5-17.5 17.5zm.1-32.6c-8.4 0-15.2 6.8-15.2 15.1 0 8.4 6.8 15.2 15.1 15.1 8.3 0 15.1-6.8 15.1-15.1.1-8.3-6.7-15.1-15-15.1zm184.7 338.5c-9.6 0-17.5-7.9-17.5-17.5s7.9-17.5 17.5-17.4c9.7 0 17.5 7.8 17.4 17.4.1 9.7-7.7 17.5-17.4 17.5zm0-32.6c-8.4 0-15.2 6.8-15.1 15.1 0 8.4 6.8 15.2 15.2 15.2 8.3 0 15.1-6.8 15.1-15.1-.1-8.4-6.9-15.2-15.2-15.2zm-237.3 33.5c-9.6 0-17.5-7.8-17.5-17.5s7.8-17.4 17.5-17.4c9.6 0 17.4 7.8 17.4 17.4s-7.7 17.5-17.4 17.5zm0-32.6c-8.4 0-15.2 6.8-15.2 15.1 0 8.4 6.8 15.2 15.1 15.1 8.3 0 15.1-6.8 15.1-15.1.1-8.3-6.7-15.1-15-15.1zM340.6 467c-9.7 0-17.5-7.8-17.5-17.5 0-9.6 7.8-17.4 17.5-17.4 9.6 0 17.4 7.8 17.4 17.4 0 9.7-7.7 17.6-17.4 17.5zm0-32.5c-8.4 0-15.1 6.7-15.2 15.1 0 8.4 6.8 15.1 15.2 15.2 8.3 0 15.1-6.8 15.1-15.2 0-8.4-6.7-15.2-15.1-15.1zM216 395.9c-9.6 0-17.5-7.9-17.5-17.5 0-9.7 7.9-17.5 17.5-17.4 9.7-.1 17.5 7.7 17.4 17.4 0 9.6-7.7 17.4-17.4 17.5zm.1-32.6c-8.4 0-15.2 6.8-15.2 15.1 0 8.4 6.8 15.2 15.1 15.1 8.3 0 15.1-6.8 15.1-15.1s-6.8-15.1-15-15.1zm50.8 344.5c-9.7 0-17.5-7.8-17.5-17.5s7.8-17.4 17.5-17.4c9.6 0 17.4 7.8 17.4 17.4s-7.8 17.4-17.4 17.5zm0-32.6c-8.4 0-15.2 6.8-15.2 15.1 0 8.4 6.8 15.2 15.2 15.2 8.3 0 15.1-6.8 15.1-15.2 0-8.4-6.8-15.1-15.1-15.1zm-34.8 155.4c-9.6 0-17.5-7.8-17.5-17.5 0-9.6 7.8-17.4 17.5-17.5 9.6 0 17.4 7.8 17.5 17.5-.1 9.7-7.8 17.5-17.5 17.5zm.1-32.5c-8.4 0-15.2 6.8-15.2 15.1 0 8.4 6.8 15.2 15.1 15.1 8.3 0 15.1-6.8 15.1-15.1.1-8.4-6.7-15.1-15-15.1zM60.1 752.9c-9.7 0-17.5-7.8-17.5-17.5S50.4 718 60.1 718c9.6 0 17.5 7.8 17.5 17.4-.1 9.6-7.9 17.4-17.5 17.5zm0-32.6c-8.4 0-15.2 6.8-15.2 15.1 0 8.4 6.8 15.2 15.2 15.2s15.1-6.8 15.2-15.2c0-8.3-6.8-15.1-15.2-15.1z"/><g opacity=".2" fill="#62646F"><path d="M2501.2 729.6V461.3h164.6V191l4-.1v274.4h-164.5v260.3h113.8v99.5h-4v-95.5"/><path d="M2503.2 472.9c-5.9 0-10.8-4.9-10.8-10.9 0-5.9 4.9-10.8 10.8-10.8 6 0 10.9 4.9 10.9 10.8 0 6-4.9 10.9-10.9 10.9zm0 266.9c-5.9 0-10.8-4.8-10.8-10.8s4.9-10.9 10.8-10.9c6 0 10.9 4.9 10.9 10.9 0 5.9-4.9 10.8-10.9 10.8zm-76.5 558.9v-268.3h164.6l.1-270.3h3.9l.1 274.4h-164.7v260.2h113.9v99.5h-4.1v-95.5"/><path d="M2593.3 770.9c-5.9 0-10.7-4.8-10.8-10.9 0-5.9 4.9-10.8 10.8-10.8s10.9 4.9 10.8 10.8c.1 6.1-4.8 10.9-10.8 10.9zm.1 271.1c-6 0-10.8-4.9-10.8-10.9s4.9-10.8 10.8-10.8 10.9 4.9 10.9 10.9c-.1 5.9-5 10.8-10.9 10.8zm-50.8 359.8c-4.9 0-8.8-4-8.8-8.8 0-4.9 3.9-8.8 8.8-8.8 4.8 0 8.8 3.9 8.8 8.8 0 4.7-4 8.8-8.8 8.8zM2428.7 1042c-6.1 0-10.8-4.9-10.8-10.8 0-6 4.8-10.9 10.8-10.9 5.9 0 10.9 4.9 10.9 10.9 0 5.9-5 10.8-10.9 10.8zm0 266.9c-6 0-10.8-4.9-10.8-10.9s4.8-10.9 10.8-10.9 10.9 4.9 10.9 10.9-4.9 10.9-10.9 10.9zm112.4-4.1c-3.7 0-6.7-3-6.7-6.7s3-6.8 6.7-6.8c3.9 0 6.8 3.1 6.8 6.8 0 3.7-3 6.7-6.8 6.7zm-233.7-399V637.5H2472V367.2l4.2-.1v274.4h-164.7v260.2h113.8l.1 99.6h-4.2v-95.5"/><path d="M2474.1 378c-5.9 0-10.8-4.9-10.8-10.9s4.9-10.8 10.8-10.8c6 0 10.8 4.8 10.8 10.8 0 6-4.8 10.9-10.8 10.9zm0 271c-5.9 0-10.7-4.8-10.7-10.8 0-5.9 4.8-10.9 10.7-10.9 6 0 10.9 4.9 10.9 10.9s-4.9 10.8-10.9 10.8zm-50.8 359.8c-4.9 0-8.9-3.9-8.9-8.9 0-4.8 4-8.7 8.9-8.7 4.8 0 8.7 3.9 8.7 8.7.1 4.9-3.9 8.9-8.7 8.9zM2309.4 649c-6 0-10.7-4.8-10.7-10.9 0-5.9 4.8-10.8 10.7-10.8 6 0 10.9 4.9 10.9 10.8 0 6.1-4.8 10.9-10.9 10.9zm0 266.9c-6 0-10.7-4.8-10.8-10.8 0-5.9 4.8-10.9 10.8-10.9s10.9 5 10.9 10.9c0 6-4.8 10.9-10.9 10.8zm112.6-4c-3.7 0-6.8-3.1-6.8-6.8s3-6.8 6.8-6.8c3.7 0 6.8 3 6.8 6.8-.1 3.7-3.1 6.8-6.8 6.8zm-332-723.6l-.1-4h95.6V70.4l268.2.1v164.6h270.4v4h-274.4V74.5h-260.2l.1 113.8"/><path d="M2442.2 237.1c0-6 4.8-10.9 10.9-10.9 6 0 10.8 4.9 10.8 10.8 0 6-4.8 10.9-10.8 10.9-6 0-10.9-4.9-10.9-10.8zm-359.7-50.8c0-4.9 4-8.9 8.8-8.9 4.9 0 8.8 4 8.8 8.9 0 4.7-3.9 8.8-8.8 8.8-4.8.1-8.8-4.1-8.8-8.8zm359.7-113.8c0-6 4.8-10.8 10.9-10.9 6.1 0 10.8 4.9 10.8 10.9s-4.7 10.9-10.8 10.9c-6.1-.1-10.9-5-10.9-10.9zm-267 0c0-6 4.9-10.9 10.9-10.9 6.1 0 10.8 4.9 10.8 10.9 0 5.9-4.8 10.8-10.8 10.8-5.9 0-10.8-4.9-10.9-10.8zm4.2 112.4c0-3.7 3-6.8 6.7-6.8 3.8 0 6.8 3.1 6.8 6.8 0 3.8-3 6.8-6.8 6.8-3.7-.1-6.7-3-6.7-6.8zm-89.5 865.2v-4.1h95.6V932.2h268.3v164.6h270.3l.1 4.1h-274.5V936.3h-260.1v113.8"/><path d="M2442.3 1098.8c0-5.9 4.8-10.7 10.8-10.8 6 0 10.9 4.9 10.9 10.8 0 6.1-4.8 10.9-10.9 10.9s-10.8-4.8-10.8-10.9zm-359.8-50.7c0-4.9 4-8.9 8.8-8.9 4.9 0 8.8 3.9 8.8 8.8s-3.9 8.8-8.8 8.8c-4.8.1-8.8-3.9-8.8-8.7zm359.8-113.9c0-5.9 4.7-10.8 10.8-10.8s10.9 4.9 10.9 10.8c0 6.1-4.8 10.9-10.9 10.9-6 0-10.8-4.9-10.8-10.9zm-267 0c0-5.9 4.9-10.8 10.8-10.8 6.1 0 10.9 4.9 10.9 10.8 0 6.1-4.8 10.9-10.9 10.9-5.9-.1-10.8-4.9-10.8-10.9zm4.1 112.5c0-3.8 3-6.8 6.7-6.8 3.9 0 6.8 3 6.8 6.8 0 3.7-3 6.7-6.8 6.7-3.7.1-6.7-2.9-6.7-6.7zM1909 726.9l.1-4.1h95.5V609H2273l-.1 164.7h270.2v4.1h-274.3V613.1h-260.1v113.8"/><path d="M2532.3 775.7c0-6 4.9-10.8 10.8-10.8 6 0 10.9 4.8 10.9 10.8s-4.8 10.8-10.9 10.8c-5.9 0-10.8-4.8-10.8-10.8zm-270.9 3.1c0-6 4.9-10.9 10.9-10.8 6 0 10.8 4.8 10.8 10.8s-4.9 10.8-10.8 10.8c-6.1 0-11-4.9-10.9-10.8zm-359.8-54c0-4.9 3.9-8.8 8.8-8.8s8.9 3.9 8.9 8.8-4 8.9-8.9 8.9-8.8-3.9-8.8-8.9zm359.7-113.7c0-6 4.9-10.9 10.9-10.9 5.9 0 10.8 4.9 10.8 10.9 0 5.9-4.9 10.8-10.8 10.8-6 0-10.9-4.9-10.9-10.8zm-266.8 0c0-6 4.8-10.9 10.8-10.9s10.9 4.9 10.9 10.9c0 5.9-4.9 10.8-10.9 10.8-6.1 0-10.8-4.9-10.8-10.8zm4 112.4c0-3.7 3-6.8 6.7-6.7 3.7 0 6.8 3 6.8 6.8 0 3.7-3.1 6.7-6.7 6.7-3.7 0-6.8-3.1-6.8-6.8zm-3.4 588.8v-4.1h95.6v-113.8h268.2v164.7h270.4v4h-274.5v-164.6h-260.1v113.8"/><path d="M2347.5 1361.1c0-6 4.8-10.8 10.8-10.8 5.9 0 10.8 4.8 10.8 10.8s-4.9 10.8-10.9 10.8-10.7-4.9-10.7-10.8zm-359.8-50.9c0-4.8 3.9-8.8 8.8-8.8s8.8 4 8.8 8.8c0 4.9-3.9 8.9-8.8 8.9s-8.8-4-8.8-8.9zm359.8-113.8c0-6 4.8-10.8 10.8-10.8 5.9 0 10.9 4.9 10.8 10.8 0 6-4.9 10.8-10.8 10.8-6.1.1-10.8-4.8-10.8-10.8zm-267 0c0-6 4.9-10.8 10.8-10.8 6 0 10.9 4.9 10.9 10.9s-4.8 10.8-10.9 10.8c-5.9 0-10.8-4.9-10.8-10.9zm4.1 112.5c0-3.7 3-6.9 6.7-6.8 3.7 0 6.8 3.1 6.7 6.8 0 3.8-3 6.8-6.8 6.8-3.7 0-6.6-3-6.6-6.8zm-390.3-228.3v-4.1h95.5V962.7h268.4v164.6h270.3v4.1H2054l.1-164.6h-260.2v113.8"/><path d="M2317.6 1129.4c0-6 4.9-10.9 10.9-10.8 5.9 0 10.8 4.9 10.8 10.8 0 6-4.9 10.9-10.8 10.9-6-.1-10.9-5-10.9-10.9zm-271 0c0-6 4.9-10.8 10.9-10.8s10.9 4.9 10.8 10.8c0 6-4.9 10.9-10.9 10.9-6-.1-10.8-5-10.8-10.9zm-359.7-50.8c0-4.9 4-8.8 8.7-8.8 4.9 0 8.9 3.9 8.9 8.8 0 4.8-4 8.8-8.9 8.8-4.8 0-8.7-4-8.7-8.8zm359.7-113.9c0-6 4.9-10.8 10.9-10.8s10.8 4.9 10.8 10.8c0 6-4.9 10.9-10.9 10.9s-10.8-4.9-10.8-10.9zm-267 0c0-5.9 4.9-10.8 10.9-10.8s10.9 4.9 10.9 10.8c0 6-4.9 10.9-10.9 10.9s-10.9-4.9-10.9-10.9zm4.1 112.5c0-3.8 3.1-6.8 6.7-6.8 3.8 0 6.9 3 6.9 6.9 0 3.8-3 6.7-6.9 6.7-3.6 0-6.6-3-6.7-6.8zm222.2-284.3v-1.7h43.1l.1-51.5h121.2V814h122.1v2l-124-.1v-74.3h-117.5v51.3"/><path d="M2287.4 815c0-2.7 2.2-4.9 5-4.8 2.7 0 4.9 2.1 4.9 4.9 0 2.7-2.2 4.8-4.9 4.9-2.8-.1-5-2.2-5-5zm-122.3 0c0-2.7 2.1-4.9 4.9-4.9 2.7 0 4.8 2.1 4.9 4.9 0 2.8-2.2 4.9-4.9 4.9-2.9 0-5-2.1-4.9-4.9zm-162.6-22.9c0-2.2 1.8-4 4-4s3.9 1.8 3.9 4-1.7 4-3.9 4c-2.1-.1-4-1.9-4-4zm162.5-51.5c0-2.7 2.1-4.9 4.9-4.9 2.7 0 4.8 2.2 4.8 4.9s-2.2 4.9-4.9 4.9c-2.6 0-4.8-2.2-4.8-4.9zm-120.6 0c0-2.7 2.3-4.9 4.9-4.9 2.7 0 4.9 2.2 4.9 4.9s-2.2 4.9-4.9 4.9c-2.6 0-4.9-2.2-4.9-4.9zm1.9 50.8c0-1.7 1.4-3 3-3 1.7 0 3.1 1.3 3.1 3s-1.4 3.1-3.1 3.1c-1.7 0-3-1.4-3-3.1zm58 371.7v1.8h-43.2v51.4H1940V1142h-122.1l-.1-1.9h123.9l.1 74.3h117.5v-51.3"/><path d="M1822.7 1141c0 2.8-2.2 4.9-4.9 4.9s-5-2.1-5-4.9c0-2.7 2.3-4.9 5-4.9 2.7.1 4.9 2.2 4.9 4.9zm122.4 0c0 2.8-2.1 4.9-4.9 4.9-2.7 0-4.9-2.1-4.9-4.9 0-2.7 2.2-4.9 4.9-4.9 2.8.1 4.9 2.2 4.9 4.9zm162.5 23c0 2.2-1.8 4-3.9 4-2.2 0-3.9-1.8-3.9-4s1.8-4 3.9-4 3.9 1.8 3.9 4zm-162.5 51.4c0 2.7-2.1 4.9-4.9 4.9-2.7 0-4.9-2.2-4.9-4.9 0-2.8 2.2-4.9 4.9-4.9 2.8.1 4.9 2.1 4.9 4.9zm120.7 0c0 2.7-2.2 4.9-4.9 4.9s-4.9-2.2-4.9-4.9c0-2.8 2.2-4.9 4.9-4.9 2.6.1 4.9 2.2 4.9 4.9zm-1.9-50.8c0 1.6-1.4 3-3 3-1.8 0-3.1-1.3-3.1-3s1.4-3.1 3.1-3.1c1.6.1 2.9 1.4 3 3.1zm532.4-903.1v2.9h-68.2v81.2h-191.3l-.1-117.5-192.7.1v-3h195.7v117.5h185.5v-81.2"/><path d="M2151.7 226.7c0 4.2-3.5 7.7-7.7 7.7-4.3 0-7.8-3.6-7.8-7.8 0-4.3 3.4-7.7 7.7-7.7 4.3.1 7.8 3.5 7.8 7.8zm193.3 0c0 4.2-3.5 7.8-7.8 7.8-4.2 0-7.7-3.6-7.7-7.8 0-4.3 3.4-7.7 7.7-7.7s7.8 3.4 7.8 7.7zm256.6 36.3c0 3.4-2.7 6.2-6.2 6.2s-6.4-2.8-6.4-6.2c0-3.4 2.8-6.3 6.4-6.3 3.4-.1 6.2 2.8 6.2 6.3zM2345 344.2c0 4.3-3.4 7.7-7.7 7.7s-7.7-3.4-7.7-7.7c0-4.3 3.4-7.8 7.7-7.8 4.2 0 7.7 3.5 7.7 7.8zm190.4 0c0 4.3-3.5 7.7-7.7 7.7-4.3 0-7.8-3.4-7.8-7.7 0-4.3 3.4-7.8 7.8-7.8 4.2 0 7.7 3.5 7.7 7.8zm-2.9-80.3c0 2.7-2.1 4.8-4.8 4.8s-4.9-2.2-4.9-4.8c0-2.8 2.3-4.9 4.9-4.9 2.6 0 4.8 2.1 4.8 4.9zM2132 727.5h-2.9v-68.1h-81.2V468h117.5V275.2h2.9V471h-117.4l-.1 185.5h81.2"/><path d="M2167.8 281.4c-4.2 0-7.7-3.4-7.7-7.7 0-4.3 3.5-7.8 7.7-7.8 4.3 0 7.8 3.5 7.7 7.8 0 4.3-3.4 7.7-7.7 7.7zm-1 194.8c-4.3 0-7.7-3.4-7.7-7.7 0-4.3 3.4-7.7 7.8-7.8 4.2 0 7.6 3.4 7.7 7.8-.1 4.3-3.5 7.7-7.8 7.7zm-36.2 256.7c-3.5 0-6.4-2.8-6.4-6.3 0-3.4 2.9-6.3 6.4-6.3 3.4 0 6.1 2.8 6.1 6.3 0 3.4-2.7 6.3-6.1 6.3zm-81.2-256.7c-4.2 0-7.7-3.4-7.7-7.7 0-4.3 3.5-7.8 7.7-7.7 4.2 0 7.8 3.4 7.7 7.7 0 4.3-3.5 7.7-7.7 7.7zm0 190.5c-4.3 0-7.7-3.4-7.8-7.8 0-4.3 3.5-7.7 7.8-7.8 4.2 0 7.8 3.5 7.8 7.8-.1 4.4-3.6 7.8-7.8 7.8zm80.2-2.9c-2.7 0-4.8-2.1-4.8-4.8s2.1-4.9 4.8-4.8c2.7 0 4.9 2.1 4.9 4.8-.1 2.6-2.2 4.8-4.9 4.8zm-188.7 456.1h-2.8v-68.2h-81.3l.1-191.4h117.5l-.1-192.8 2.9-.1v195.8h-117.5v185.6l81.3-.1"/><path d="M1975.7 675.2c-4.2 0-7.7-3.5-7.8-7.8 0-4.3 3.5-7.7 7.8-7.8 4.3 0 7.8 3.5 7.8 7.8-.1 4.3-3.4 7.8-7.8 7.8zm0 193.3c-4.2 0-7.7-3.4-7.7-7.7 0-4.2 3.5-7.8 7.7-7.7 4.3 0 7.7 3.4 7.7 7.7.1 4.2-3.3 7.7-7.7 7.7zm-36.2 256.7c-3.5 0-6.3-2.8-6.3-6.3 0-3.4 2.9-6.3 6.3-6.3 3.5 0 6.3 2.8 6.3 6.3s-2.8 6.3-6.3 6.3zm-81.2-256.7c-4.3 0-7.7-3.4-7.7-7.7s3.4-7.8 7.8-7.8c4.2 0 7.7 3.5 7.7 7.7-.1 4.4-3.5 7.8-7.8 7.8zm0 190.4c-4.3 0-7.7-3.4-7.8-7.7 0-4.3 3.4-7.8 7.8-7.8 4.2 0 7.8 3.5 7.8 7.8-.1 4.3-3.5 7.8-7.8 7.7zm80.2-2.9c-2.7 0-4.9-2.2-4.9-4.8 0-2.7 2.2-4.9 4.9-4.9 2.6 0 4.8 2.2 4.8 4.9s-2.1 4.8-4.8 4.8zm480.6-763.9h-1.3v-28.9h-34.6v-81.7h50V99.4h1.2v83.5l-49.9-.1v79.1h34.6"/><path d="M2433.9 102.7c-1.9 0-3.3-1.5-3.3-3.4 0-1.7 1.4-3.3 3.3-3.3 1.8 0 3.3 1.6 3.3 3.3 0 1.9-1.5 3.4-3.3 3.4zm0 82.4c-1.9 0-3.3-1.6-3.3-3.4 0-1.8 1.4-3.2 3.3-3.2 1.8 0 3.3 1.5 3.3 3.2 0 1.9-1.5 3.4-3.3 3.4zm-15.5 109.3c-1.5 0-2.7-1.2-2.7-2.6s1.3-2.6 2.7-2.7c1.5 0 2.7 1.2 2.7 2.7 0 1.4-1.2 2.6-2.7 2.6zm-34.5-109.3c-1.9 0-3.3-1.6-3.3-3.4 0-1.8 1.4-3.2 3.3-3.2s3.3 1.4 3.3 3.2-1.5 3.4-3.3 3.4zm-.1 81.2c-1.8 0-3.3-1.5-3.3-3.3s1.4-3.4 3.3-3.4c1.8 0 3.2 1.6 3.2 3.4.1 1.8-1.3 3.3-3.2 3.3zm34.2-1.4c-1.1 0-2.1-.8-2-2 0-1.1.9-2 2-2 1.2 0 2.2.8 2.2 2-.1 1.3-1 2-2.2 2zm-62.5 364.9h-1.3v-29h-34.5l-.1-81.7h50.1V437h1.3v83.4l-50 .1v79h34.5"/><path d="M2370.3 440.3c-1.8 0-3.3-1.5-3.3-3.3s1.5-3.4 3.3-3.4c1.9 0 3.3 1.6 3.3 3.4s-1.3 3.4-3.3 3.3zm.1 82.4c-1.8 0-3.3-1.5-3.3-3.3s1.5-3.3 3.3-3.3c1.9 0 3.3 1.5 3.3 3.3-.1 1.8-1.4 3.3-3.3 3.3zM2355 632.1c-1.5 0-2.7-1.2-2.7-2.7s1.2-2.7 2.7-2.7c1.4 0 2.6 1.2 2.6 2.7-.1 1.5-1.2 2.7-2.6 2.7zm-34.7-109.4c-1.9 0-3.3-1.5-3.3-3.3s1.4-3.3 3.3-3.4c1.8 0 3.2 1.6 3.2 3.4.1 1.8-1.3 3.3-3.2 3.3zm0 81.2c-1.9 0-3.3-1.6-3.3-3.4 0-1.7 1.4-3.3 3.3-3.3 1.8 0 3.2 1.6 3.2 3.3.1 1.8-1.3 3.4-3.2 3.4zm34.2-1.3c-1.1 0-2.1-.9-2.1-2.1 0-1.2 1-2 2.1-2.1 1.1 0 2.1.9 2.1 2.1 0 1.2-1 2.1-2.1 2.1zm173.5 419.1l-1.4-.1v-33.2H2487v-93.2l57.3-.1v-93.9h1.4v95.3h-57.4l.1 90.5h39.6"/><path d="M2544.9 804.9c-2.1 0-3.8-1.7-3.8-3.8s1.7-3.8 3.8-3.8c2 0 3.9 1.7 3.8 3.8.1 2.1-1.7 3.8-3.8 3.8zm0 94.3c-2.1 0-3.8-1.7-3.8-3.8s1.7-3.7 3.9-3.7c2 0 3.8 1.6 3.8 3.7s-1.8 3.8-3.9 3.8zm-17.6 125c-1.7 0-3-1.3-3-3 0-1.8 1.3-3 3-3s3.1 1.3 3.1 3c-.1 1.7-1.4 3-3.1 3zm-39.6-125.1c-2.1 0-3.8-1.6-3.8-3.8 0-2.1 1.7-3.7 3.8-3.7 2 0 3.7 1.6 3.7 3.7 0 2.2-1.7 3.9-3.7 3.8zm0 92.9c-2.1 0-3.8-1.7-3.8-3.7 0-2.1 1.7-3.8 3.8-3.8 2 0 3.7 1.7 3.7 3.9 0 1.8-1.6 3.6-3.7 3.6zm39.1-1.5c-1.3 0-2.4-1-2.3-2.3 0-1.3 1-2.4 2.3-2.4s2.3 1 2.3 2.4c.1 1.4-1 2.3-2.3 2.3zm-341.5-614V375h32.6v-38.8l91.7-.1-.1 56.2h92.3v1.4l-93.7.1v-56.3h-88.8v39"/><path d="M2398.1 393c0-2 1.7-3.7 3.7-3.7 1.9 0 3.7 1.7 3.7 3.7s-1.7 3.7-3.7 3.7-3.7-1.7-3.7-3.7zm-92.5 0c0-2 1.6-3.6 3.6-3.6 2.1 0 3.7 1.6 3.7 3.7s-1.7 3.7-3.7 3.7c-1.9-.1-3.6-1.7-3.6-3.8zm-122.9-17.3c0-1.6 1.4-3.1 3-3.1 1.7 0 3.1 1.4 3.1 3.1 0 1.6-1.4 3-3.1 2.9-1.6.1-3-1.2-3-2.9zm122.9-38.8c0-2 1.6-3.7 3.7-3.7 2 0 3.7 1.6 3.7 3.6 0 2.1-1.7 3.7-3.7 3.7s-3.7-1.6-3.7-3.6zm-91.2-.1c0-2 1.7-3.6 3.7-3.6s3.7 1.6 3.7 3.6c0 2.1-1.6 3.7-3.7 3.7-2 0-3.7-1.6-3.7-3.7zm1.4 38.5c0-1.3 1-2.4 2.2-2.4 1.3 0 2.4 1.1 2.4 2.4s-1 2.3-2.3 2.3c-1.2-.1-2.3-1-2.3-2.3zm-6.6 471.4l.1 1.4h-32.7V887H2085l-.1-56.2h-92.3l.1-1.4h93.6v56.2h88.9v-38.9"/><path d="M1996.4 830c0 2.1-1.7 3.7-3.7 3.7-1.9 0-3.7-1.6-3.7-3.7 0-2 1.7-3.6 3.7-3.6s3.7 1.6 3.7 3.6zm92.4 0c0 2.1-1.6 3.7-3.7 3.7-2 0-3.7-1.7-3.7-3.8 0-2 1.7-3.6 3.7-3.6 2.2.1 3.8 1.6 3.7 3.7zm122.9 17.4c0 1.6-1.3 3-3 3-1.6 0-3-1.3-3-3s1.4-3 3-3c1.7.1 3.1 1.3 3 3zm-122.8 38.9c0 2-1.6 3.7-3.7 3.7-2 0-3.7-1.6-3.7-3.7s1.7-3.7 3.7-3.7c2.1 0 3.6 1.6 3.7 3.7zm91.2 0c0 2-1.7 3.6-3.7 3.6-2.1 0-3.7-1.6-3.7-3.7s1.5-3.7 3.7-3.7c2 .1 3.7 1.7 3.7 3.8zm-1.5-38.4c0 1.3-1 2.3-2.2 2.3-1.3 0-2.4-1-2.4-2.2 0-1.3 1-2.3 2.4-2.4 1.2-.1 2.2 1 2.2 2.3zm439.6 344.8l.1 1h-25.5v30.3h-71.6v-43.9h-72.1v-1h73.2v43.9h69.3l.1-30.4"/><path d="M2452 1179.7c0 1.5-1.3 2.9-2.8 2.8-1.6 0-2.9-1.3-2.9-2.8 0-1.6 1.3-2.9 2.9-2.9 1.5-.1 2.8 1.2 2.8 2.9zm72.2 0c0 1.5-1.2 2.8-2.8 2.8-1.5 0-2.8-1.3-2.9-2.9 0-1.6 1.3-2.9 2.9-2.9 1.5.1 2.8 1.3 2.8 3zm0 43.8c0 1.6-1.3 2.8-2.8 2.8s-2.8-1.2-2.8-2.8c0-1.6 1.3-2.8 2.8-2.8s2.8 1.2 2.8 2.8zm71.3 0c0 1.6-1.3 2.8-3 2.9-1.5 0-2.9-1.2-2.9-2.9 0-1.6 1.3-2.8 2.9-2.9 1.7 0 3 1.3 3 2.9zm-1.2-30c0 1-.7 1.8-1.8 1.8-.9 0-1.8-.8-1.8-1.8s.9-1.8 1.8-1.8c1.1 0 1.8.8 1.8 1.8zm67.3-561.8v1h-25.5v30.4h-71.5v-43.9h-72.1l-.1-1.1h73.3l-.1 43.9h69.4v-30.3"/><path d="M2495.3 618.6c0 1.6-1.2 2.9-2.9 2.9-1.6 0-2.9-1.3-2.9-2.8 0-1.6 1.3-3 2.9-3 1.7 0 2.9 1.3 2.9 2.9zm72.3 0c0 1.6-1.3 2.8-2.9 2.9-1.6 0-2.9-1.3-2.9-2.9 0-1.6 1.3-3 2.9-3 1.6.1 2.9 1.4 2.9 3zm0 43.9c0 1.6-1.3 3-2.8 3-1.6 0-2.9-1.3-2.9-3 0-1.5 1.3-2.8 2.9-2.8 1.5-.1 2.8 1.3 2.8 2.8zm-152.4 352.3l-.1 1.3h-32.6l.1 38.9h-91.7v-56.2h-92.3v-1.4h93.8v56.2h88.8v-38.8"/><path d="M2202.3 998.1c0 2-1.6 3.7-3.7 3.7-2 0-3.7-1.7-3.7-3.7 0-2.1 1.7-3.7 3.7-3.7 2.1 0 3.7 1.7 3.7 3.7zm92.6 0c0 2-1.6 3.6-3.7 3.6-2 0-3.7-1.6-3.7-3.7s1.7-3.7 3.7-3.7c2 .1 3.7 1.7 3.7 3.8zm122.8 17.4c0 1.5-1.4 3-3.1 2.9-1.6 0-3-1.4-3-3s1.3-3 3-3c1.7.1 3.1 1.4 3.1 3.1zm-122.8 38.8c0 2-1.6 3.7-3.7 3.6-2 0-3.7-1.7-3.6-3.6 0-2.1 1.6-3.8 3.6-3.7 2 0 3.7 1.6 3.7 3.7zm91.1 0c0 2-1.6 3.7-3.7 3.7s-3.7-1.6-3.7-3.7 1.6-3.8 3.7-3.8c2.1.1 3.7 1.7 3.7 3.8zm-1.3-38.4c0 1.3-1.1 2.4-2.3 2.4-1.3 0-2.3-1.1-2.3-2.4 0-1.2 1-2.2 2.3-2.2 1.2-.1 2.3.9 2.3 2.2zm-217.5-587.1v-4.1h274.4v164.7h260.1V475.5h99.6v4.1l-95.5-.1v113.9h-268.3V428.8"/><path d="M2178.1 426.7c0 6-4.9 10.9-10.9 10.9-5.9 0-10.8-4.9-10.8-10.9 0-5.9 4.9-10.9 10.8-10.9 5.9.1 10.9 5 10.9 10.9zm270.9 0c0 6-4.8 10.9-10.8 10.9s-10.9-4.9-10.8-10.8c0-6 4.9-10.9 10.9-10.9 5.9 0 10.7 4.9 10.7 10.8zm0 164.7c0 6-4.8 10.9-10.7 10.8-6 0-10.9-4.9-10.9-10.9 0-5.9 4.9-10.9 10.8-10.8 6 0 10.8 5 10.8 10.9zM2166.9 272v-2h127.9l41.8-44 1.5 1.4-42.4 44.6m-241.3 692.7v-33.5h127.1v2.1l-125-.1v31.5m110.3-494.4l.1-3.1h106.8v143.9h-3l-.1-140.8m87.7 727.7v-3.1h42.8v107l26.9.1v3h-29.9v-107M2184 1073.4v-26.6h2.9l.1 23.4h143v59.1l-3.1.1v-56m-197.4-413v-3h95.5v121.5l47.3.1v2.9h-50.4V660.4m-15.4 211.5v-24.5h2.1v22.5h83.8V815h2v56.9m158.7-799.1v-2.1l32.8.1V190h182v2H2484V72.8m43.7 273.1v-2h67.6v-82.4h2v84.4m-124.2 385.4v-93.1l2-.1v91.2h28.1v2m-149.3 662.6V1361l2 .1v30.7h186.7v2.1m-604.2-274.1v-3h30.4v11h88.6v3.1l-91.5.1v-11.1m19.6-587.9v-65.5h62.4v3l-59.4.1v59.3h16.9v79.4h-3V532"/></g><path fill="#62646F" d="M2535.4 729.9V491.4h146.3V251.1h3.6V495H2539v231.3h101.2v88.4h-3.6l-.1-84.8"/><path fill="#62646F" d="M2537.2 501.7c-5.3 0-9.7-4.3-9.7-9.7 0-5.3 4.4-9.6 9.7-9.7 5.3 0 9.6 4.4 9.7 9.7-.1 5.3-4.4 9.7-9.7 9.7zm0 237.2c-5.3 0-9.7-4.3-9.6-9.6 0-5.3 4.3-9.6 9.6-9.6s9.6 4.3 9.6 9.6c.1 5.3-4.3 9.6-9.6 9.6zm-68 496.7V997.2h146.3V756.9h3.6v243.9h-146.3V1232H2574v88.5h-3.6v-84.9"/><path fill="#62646F" d="M2572.2 1327.2c-4.3 0-7.9-3.5-7.8-7.8 0-4.3 3.4-7.8 7.8-7.8 4.3 0 7.8 3.5 7.8 7.8 0 4.2-3.5 7.8-7.8 7.8zM2471 1007.4c-5.3 0-9.6-4.3-9.6-9.6s4.3-9.7 9.6-9.6c5.3 0 9.7 4.3 9.6 9.6.1 5.3-4.3 9.6-9.6 9.6zm0 237.3c-5.3 0-9.6-4.3-9.7-9.7 0-5.3 4.4-9.6 9.7-9.7 5.3 0 9.6 4.4 9.7 9.7-.1 5.4-4.4 9.6-9.7 9.7zm99.9-3.7c-3.3 0-5.9-2.7-5.9-6.1 0-3.3 2.7-6 6-6s6 2.8 6 6c0 3.4-2.7 6.1-6.1 6.1zm-207.7-354.6l.1-238.4h146.3l-.1-240.3h3.7v243.9h-146.3l-.1 231.2H2468v88.5h-3.7v-84.9"/><path fill="#62646F" d="M2511.3 417.4c-5.3 0-9.6-4.3-9.6-9.7 0-5.3 4.3-9.6 9.6-9.6s9.6 4.3 9.6 9.6c.1 5.3-4.2 9.7-9.6 9.7zm.1 240.8c-5.3 0-9.7-4.3-9.6-9.6 0-5.3 4.3-9.6 9.6-9.6s9.6 4.3 9.6 9.6-4.3 9.6-9.6 9.6zM2466.2 978c-4.3 0-7.9-3.5-7.9-7.9 0-4.3 3.5-7.8 7.9-7.8 4.2 0 7.7 3.5 7.7 7.8.1 4.3-3.4 7.8-7.7 7.9zm-101.1-319.8c-5.4 0-9.7-4.3-9.6-9.6 0-5.3 4.2-9.6 9.6-9.6 5.3 0 9.6 4.3 9.6 9.6s-4.4 9.6-9.6 9.6zm-.1 237.3c-5.4 0-9.6-4.3-9.6-9.6s4.3-9.7 9.7-9.7c5.3 0 9.6 4.3 9.6 9.6s-4.4 9.7-9.7 9.7zm100-3.6c-3.3 0-6.1-2.8-6-6 0-3.4 2.8-6.1 6-6.1 3.4 0 6.1 2.7 6.1 6.1-.1 3.2-2.8 6-6.1 6zm-295.1-643.1v-3.6h85l-.1-101.2h238.4v146.3h240.3v3.6h-243.9V147.6h-231.1v101.2"/><path fill="#62646F" d="M2483 292.1c0-5.3 4.3-9.6 9.7-9.7 5.3 0 9.6 4.4 9.6 9.6 0 5.3-4.3 9.7-9.7 9.7-5.3.1-9.6-4.2-9.6-9.6zM2163.3 247c0-4.3 3.5-7.9 7.8-7.8 4.3 0 7.8 3.5 7.8 7.8 0 4.2-3.5 7.8-7.8 7.8s-7.7-3.6-7.8-7.8zM2483 145.8c0-5.3 4.3-9.6 9.7-9.7 5.3 0 9.6 4.4 9.6 9.6 0 5.3-4.3 9.7-9.7 9.7-5.3.1-9.6-4.2-9.6-9.6zm-237.2 0c0-5.3 4.3-9.7 9.6-9.6 5.4 0 9.6 4.3 9.6 9.6s-4.2 9.6-9.6 9.6c-5.3.1-9.6-4.2-9.6-9.6zm3.7 99.9c0-3.3 2.7-6 6-6 3.4 0 6 2.7 6 6 0 3.4-2.7 6-6 6-3.4.1-6-2.6-6-6zm-79.6 768.9v-3.6h85V909.9h238.3l.1 146.3h240.2v3.6h-243.9V913.5h-231.1v101.1"/><path fill="#62646F" d="M2483.1 1058c0-5.3 4.2-9.5 9.6-9.6 5.3 0 9.7 4.3 9.6 9.6 0 5.4-4.3 9.7-9.6 9.6-5.4 0-9.6-4.3-9.6-9.6zm-319.8-45.2c0-4.3 3.5-7.8 7.8-7.8s7.9 3.5 7.9 7.9c0 4.3-3.5 7.8-7.8 7.8s-7.9-3.5-7.9-7.9zm319.8-101.1c0-5.3 4.2-9.6 9.6-9.6 5.3 0 9.7 4.3 9.6 9.6 0 5.4-4.3 9.7-9.6 9.6-5.4 0-9.6-4.3-9.6-9.6zm-237.4 0c0-5.4 4.4-9.7 9.7-9.7 5.4 0 9.7 4.3 9.7 9.7s-4.2 9.6-9.7 9.7c-5.3-.1-9.6-4.4-9.7-9.7zm3.8 100c0-3.4 2.6-6.1 5.9-6.1 3.4 0 6 2.7 6 6s-2.6 6-6 6c-3.3.1-5.9-2.6-5.9-5.9zm-240.3-284.2v-3.6h84.9l-.1-101.2 238.5-.1V769h240.2v3.6h-243.8V626.2l-231.3.1.1 101.2"/><path fill="#62646F" d="M2563.1 770.9c0-5.4 4.3-9.7 9.7-9.7s9.6 4.3 9.6 9.6c0 5.4-4.3 9.6-9.7 9.6-5.3.1-9.6-4.2-9.6-9.5zm-240.8 2.6c0-5.3 4.3-9.7 9.6-9.6 5.3 0 9.7 4.3 9.6 9.6 0 5.3-4.3 9.6-9.6 9.6-5.3.1-9.6-4.3-9.6-9.6zm-319.8-47.8c0-4.3 3.5-7.8 7.8-7.8s7.8 3.5 7.8 7.8-3.5 7.8-7.8 7.8-7.8-3.5-7.8-7.8zm319.8-101.3c0-5.2 4.3-9.6 9.6-9.6s9.7 4.3 9.7 9.7c0 5.3-4.4 9.6-9.6 9.6-5.4 0-9.7-4.3-9.7-9.7zm-237.3.1c0-5.3 4.3-9.7 9.7-9.7 5.3 0 9.6 4.4 9.6 9.6 0 5.3-4.3 9.7-9.7 9.7-5.2 0-9.5-4.3-9.6-9.6zm3.6 99.9c0-3.3 2.8-6 6.1-6s6 2.7 6 6-2.7 6-6 6c-3.3.1-6.1-2.6-6.1-6zm-3 523.3v-3.6l85-.1v-101.1H2409v146.3h240.2v3.6h-243.9v-146.3h-231.1v101.1"/><path fill="#62646F" d="M2398.7 1291.1c0-5.4 4.3-9.7 9.7-9.7 5.2 0 9.7 4.3 9.6 9.6 0 5.3-4.3 9.6-9.7 9.6-5.2.1-9.6-4.3-9.6-9.5zm-319.7-45.2c0-4.3 3.5-7.9 7.9-7.9 4.3 0 7.8 3.6 7.9 7.9 0 4.3-3.5 7.9-7.9 7.9-4.4-.1-7.9-3.6-7.9-7.9zm319.8-101.2c0-5.4 4.3-9.6 9.6-9.6s9.6 4.3 9.6 9.6-4.3 9.6-9.7 9.6c-5.2 0-9.6-4.3-9.5-9.6zm-237.3 0c0-5.3 4.3-9.7 9.6-9.6 5.3 0 9.7 4.3 9.7 9.7 0 5.2-4.3 9.6-9.6 9.6-5.3-.1-9.7-4.3-9.7-9.7zm3.7 99.9c0-3.3 2.7-6 6-6s6 2.8 6 6c0 3.4-2.7 6-6 6-3.4.1-6.1-2.6-6-6zm-346.9-202.8v-3.7l85 .1-.1-101.2h238.4v146.3h240.3v3.6H2138V940.6h-231.2l.1 101.2"/><path fill="#62646F" d="M2372.3 1085.1c0-5.3 4.3-9.7 9.7-9.7 5.3 0 9.6 4.3 9.6 9.6s-4.3 9.7-9.7 9.7c-5.3 0-9.6-4.3-9.6-9.6zm-240.8 0c0-5.2 4.2-9.6 9.6-9.6 5.3 0 9.7 4.3 9.7 9.7 0 5.3-4.4 9.6-9.6 9.6-5.5-.1-9.7-4.4-9.7-9.7zm-319.8-45.1c0-4.3 3.5-7.8 7.8-7.8s7.8 3.5 7.8 7.8-3.5 7.8-7.8 7.8-7.8-3.5-7.8-7.8zm319.7-101.2c.1-5.3 4.3-9.7 9.7-9.7 5.3 0 9.7 4.3 9.7 9.7 0 5.2-4.3 9.6-9.7 9.7-5.4 0-9.6-4.4-9.7-9.7zm-237.3 0c0-5.3 4.4-9.6 9.6-9.6 5.4 0 9.7 4.3 9.7 9.7 0 5.3-4.2 9.6-9.6 9.6-5.3-.1-9.7-4.4-9.7-9.7zm3.7 99.9c0-3.3 2.7-6 6-6 3.4 0 6 2.7 6 6 0 3.4-2.7 6-6.1 6-3.2.1-5.9-2.6-5.9-6zm197.4-252.6v-1.5l38.4-.1v-45.7h107.7v66.1h108.5v1.7h-110.2v-66.1l-104.4-.1v45.7"/><path fill="#62646F" d="M2345.5 805.7c0-2.4 1.9-4.3 4.3-4.3s4.3 1.9 4.3 4.3-1.9 4.3-4.3 4.3c-2.5.1-4.4-1.8-4.3-4.3zm-108.8 0c0-2.4 1.9-4.3 4.3-4.3 2.5 0 4.4 1.9 4.3 4.3 0 2.5-1.9 4.3-4.3 4.3-2.5.1-4.4-1.8-4.3-4.3zm-144.4-20.3c0-2 1.5-3.6 3.5-3.6 1.9 0 3.5 1.6 3.5 3.5 0 2-1.6 3.6-3.5 3.6s-3.5-1.6-3.5-3.5zm144.4-45.8c0-2.4 1.9-4.3 4.3-4.3s4.3 1.9 4.3 4.3-1.9 4.3-4.3 4.3c-2.5.1-4.4-1.8-4.3-4.3zm-107.3.1c0-2.4 2.1-4.4 4.3-4.3 2.4 0 4.5 1.9 4.5 4.3s-2 4.3-4.5 4.4c-2.2-.1-4.3-2-4.3-4.4zm1.7 45.1c0-1.5 1.2-2.7 2.7-2.7s2.7 1.2 2.7 2.7-1.2 2.7-2.7 2.7-2.7-1.2-2.7-2.7zm51.5 330.3l.1 1.6h-38.4v45.7h-107.7v-66.1h-108.5v-1.6l110.1-.1.1 66.1h104.4V1115"/><path fill="#62646F" d="M1932.5 1095.5c0 2.5-2 4.3-4.3 4.3-2.5 0-4.5-1.9-4.4-4.3 0-2.4 2-4.3 4.4-4.3 2.3-.1 4.3 1.9 4.3 4.3zm108.7 0c0 2.4-1.9 4.4-4.3 4.3-2.3 0-4.3-1.9-4.3-4.3s2-4.3 4.3-4.3c2.4 0 4.3 1.9 4.3 4.3zm144.5 20.4c0 1.9-1.6 3.6-3.6 3.6-1.9 0-3.5-1.6-3.6-3.6 0-1.9 1.6-3.6 3.5-3.5 2.1-.1 3.7 1.5 3.7 3.5zm-144.5 45.7c0 2.4-1.9 4.4-4.3 4.3-2.3 0-4.3-2-4.3-4.3 0-2.4 2-4.3 4.3-4.3 2.4 0 4.3 1.9 4.3 4.3zm107.2 0c0 2.4-1.9 4.3-4.3 4.3-2.5 0-4.4-2-4.3-4.3 0-2.5 1.9-4.3 4.3-4.3 2.4-.1 4.3 1.8 4.3 4.3zm-1.6-45.1c0 1.5-1.3 2.6-2.7 2.7-1.5 0-2.8-1.2-2.8-2.7s1.3-2.7 2.8-2.8c1.4 0 2.7 1.2 2.7 2.8zM2620 313.9v2.5h-60.6l-.1 72.2h-170V284.2h-171.4v-2.7h174l-.1 104.5h165v-72.1"/><path fill="#62646F" d="M2224.8 282.9c0 3.7-3.1 6.9-6.9 6.9-3.8 0-6.9-3.2-6.9-6.9 0-3.8 3.1-6.9 6.9-6.9s6.9 3.1 6.9 6.9zm171.8 0c0 3.7-3.1 6.9-6.9 6.9-3.8 0-6.9-3.2-6.9-6.9 0-3.8 3.1-6.9 6.9-6.9 3.9 0 6.9 3.1 6.9 6.9zm0 104.4c0 3.8-3.1 6.9-6.9 6.9-3.8 0-6.9-3.1-6.9-6.9s3.1-6.9 6.9-6.9c3.9 0 6.9 3.1 6.9 6.9zm169.2 0c0 3.8-3.1 6.9-6.9 6.9-3.8 0-6.9-3.1-6.9-6.9s3-6.9 6.9-6.9c3.8 0 6.9 3.1 6.9 6.9zm-2.6-71.3c0 2.3-1.9 4.2-4.3 4.2-2.3 0-4.3-1.9-4.3-4.2 0-2.4 1.9-4.3 4.3-4.3 2.4-.1 4.3 1.8 4.3 4.3zm-355.9 412h-2.5v-60.5h-72.3V497.3l104.5.1V326h2.5v174h-104.3v164.9h72.1"/><path fill="#62646F" d="M2239.1 331.5c-3.7 0-6.9-3.1-6.9-6.9s3.2-6.9 6.9-6.9c3.8 0 6.9 3.1 6.9 6.9 0 3.9-3.1 6.9-6.9 6.9zm-.9 173.1c-3.8 0-6.9-3.1-6.9-6.9s3.1-6.9 6.9-6.9c3.7 0 6.8 3.1 6.9 6.9 0 3.9-3 6.9-6.9 6.9zM2206 732.7c-3.1 0-5.6-2.5-5.6-5.5 0-3.1 2.5-5.5 5.6-5.5s5.5 2.5 5.5 5.5c.1 3.1-2.4 5.5-5.5 5.5zm-72.1-228.1c-3.8 0-6.9-3.1-6.9-6.9s3.1-6.9 6.9-6.9c3.7 0 6.8 3.1 6.9 6.9 0 3.9-3.2 7-6.9 6.9zm0 169.3c-3.8 0-6.9-3.1-6.9-6.9 0-3.8 3.1-6.9 6.9-6.9 3.7 0 6.9 3.1 6.9 6.9 0 3.9-3.2 7-6.9 6.9zm71.3-2.6c-2.4 0-4.3-1.9-4.3-4.3s1.9-4.3 4.4-4.3c2.3 0 4.2 1.9 4.2 4.3-.1 2.4-2 4.3-4.3 4.3zm-167.7 405.4h-2.5l-.1-60.6h-72.1V846h104.3V674.7l2.6-.1v174h-104.3l-.1 164.9h72.2"/><path fill="#62646F" d="M2068.4 681.5c-3.9 0-6.9-3.1-6.9-6.9 0-3.8 3-6.9 6.9-6.9 3.7 0 6.8 3.1 6.9 6.9 0 3.8-3.1 6.9-6.9 6.9zm0 171.8c-3.8 0-6.9-3.1-6.9-6.9 0-3.8 3.1-6.9 6.9-6.9 3.9 0 6.9 3.1 6.9 6.9 0 3.8-3.1 6.9-6.9 6.9zm-32.2 228.1c-3.1 0-5.6-2.5-5.6-5.6s2.5-5.6 5.6-5.6 5.6 2.5 5.6 5.5c0 3.2-2.5 5.7-5.6 5.7zm-72.1-228.1c-3.9 0-6.9-3-6.9-6.9 0-3.8 3-6.9 6.9-6.9 3.8 0 6.9 3.1 6.9 6.9-.1 3.8-3.1 6.9-6.9 6.9zm0 169.3c-3.8 0-6.9-3.1-6.9-6.9 0-3.8 3-6.9 6.9-6.9 3.8 0 6.9 3.1 6.9 6.9s-3.1 6.9-6.9 6.9zm71.2-2.6c-2.3 0-4.3-1.9-4.3-4.3s2-4.3 4.3-4.3 4.2 1.9 4.2 4.4c.1 2.3-1.8 4.1-4.2 4.2zm427.1-678.9h-1.1v-25.8h-30.8v-72.5h44.5v-73h1.2v74.1h-44.5v70.3h30.7"/><path fill="#62646F" d="M2475.6 172.7c-1.6 0-2.9-1.3-2.9-3 0-1.6 1.2-3 2.9-3 1.6 0 2.9 1.3 2.9 3s-1.3 3-2.9 3zm0 73.2c-1.6 0-2.9-1.3-2.9-2.9 0-1.6 1.3-2.9 3-2.9 1.6 0 2.8 1.3 2.9 2.9-.1 1.6-1.4 2.9-3 2.9zm-13.7 97.2c-1.3 0-2.5-1-2.5-2.3s1.1-2.3 2.5-2.3c1.3 0 2.3 1 2.3 2.3s-1 2.3-2.3 2.3zm-30.8-97.1c-1.6 0-3-1.4-3-3s1.3-2.9 3-2.9c1.6 0 2.9 1.3 2.9 2.9 0 1.6-1.3 2.9-2.9 3zm0 72.1c-1.6 0-3-1.4-3-3s1.3-3 3-3c1.6 0 2.8 1.4 2.8 3 .1 1.6-1.1 3-2.8 3zm30.3-1.2c-.9 0-1.8-.7-1.8-1.8s.9-1.8 1.8-1.8c1.1 0 1.9.7 1.9 1.8.1 1.1-.8 1.8-1.9 1.8z"/><g fill="#62646F"><path d="M2405.9 641.2h-1v-25.8l-30.8-.1v-72.5h44.5v-73h1.1l.1 74.2h-44.5l-.1 70.2h30.7"/><path d="M2419.2 472.8c-1.7 0-3-1.4-3-3s1.2-3 3-3c1.6 0 2.9 1.4 2.9 3-.1 1.6-1.3 3-2.9 3zm0 73.1c-1.7 0-3-1.3-3-3 0-1.6 1.3-2.9 3-3 1.6 0 2.9 1.4 2.8 3 0 1.7-1.2 3.1-2.8 3zm-13.8 97.3c-1.3 0-2.4-1.1-2.4-2.4 0-1.3 1.1-2.4 2.4-2.4 1.3 0 2.4 1.1 2.3 2.4 0 1.3-1 2.4-2.3 2.4zm-30.7-97.3c-1.7 0-3-1.3-3-3 0-1.6 1.3-2.9 3-3 1.6 0 2.9 1.4 2.8 3 0 1.7-1.2 3.1-2.8 3zm0 72.2c-1.7 0-3-1.4-3-3s1.3-2.9 3-3c1.6 0 2.9 1.4 2.8 3 0 1.6-1.2 3-2.8 3zm30.4-1.1c-1 0-1.9-.8-1.9-1.8s.9-1.8 1.9-1.8c.9 0 1.8.7 1.8 1.8 0 1-.8 1.8-1.8 1.8z"/></g><g fill="#62646F"><path d="M2559.2 989.4h-1.2v-29.5h-35.2V877h50.9v-83.6h1.2v84.8h-50.8v80.4h35.1"/><path d="M2574.3 796.8c-1.9 0-3.4-1.5-3.4-3.3 0-1.9 1.5-3.4 3.4-3.4 1.8 0 3.4 1.6 3.4 3.4 0 1.8-1.6 3.3-3.4 3.3zm0 83.7c-1.9 0-3.4-1.5-3.4-3.4 0-1.8 1.5-3.3 3.4-3.3 1.8 0 3.4 1.5 3.4 3.3 0 1.9-1.6 3.4-3.4 3.4zm-15.7 111.2c-1.5 0-2.7-1.2-2.8-2.7 0-1.5 1.3-2.7 2.8-2.7s2.7 1.2 2.7 2.7-1.2 2.7-2.7 2.7zm-35.2-111.2c-1.9 0-3.4-1.5-3.4-3.4 0-1.8 1.5-3.3 3.4-3.3 1.8 0 3.3 1.5 3.3 3.3 0 1.9-1.5 3.4-3.3 3.4zm0 82.5c-1.9 0-3.4-1.5-3.4-3.3 0-1.9 1.5-3.4 3.4-3.4 1.8 0 3.3 1.6 3.3 3.4 0 1.8-1.5 3.3-3.3 3.3zm34.8-1.3c-1.2 0-2.1-.9-2.1-2.1 0-1.2.9-2.1 2.1-2.1 1.2 0 2.1 1 2.1 2.1 0 1.2-.9 2.1-2.1 2.1z"/></g><g fill="#62646F"><path d="M2254.7 416v-1.3h28.9v-34.5h81.4l.1 49.9h82v1.2l-83.3.1v-50.1h-79l.1 34.7"/><path d="M2443.8 430.7c0-1.8 1.5-3.3 3.3-3.3s3.3 1.5 3.3 3.3-1.5 3.3-3.3 3.3c-1.9 0-3.3-1.5-3.3-3.3zm-82.3 0c0-1.8 1.5-3.3 3.3-3.3s3.3 1.5 3.3 3.3-1.5 3.3-3.3 3.3-3.3-1.5-3.3-3.3zm-109.2-15.4c0-1.5 1.3-2.8 2.7-2.7 1.5 0 2.7 1.3 2.7 2.7 0 1.5-1.2 2.7-2.7 2.7-1.4 0-2.7-1.2-2.7-2.7zm109.2-34.5c0-1.8 1.5-3.3 3.3-3.3s3.3 1.5 3.3 3.3-1.5 3.3-3.3 3.3c-1.8 0-3.3-1.5-3.3-3.3zm-81 0c0-1.8 1.5-3.3 3.3-3.3 1.9 0 3.3 1.5 3.3 3.3s-1.3 3.3-3.3 3.3c-1.8 0-3.3-1.5-3.3-3.3zm1.3 34.1c0-1.2.9-2.1 2-2.1 1.2 0 2.1 1 2.1 2.1 0 1.2-1 2-2.1 2s-2-.8-2-2z"/></g><g fill="#62646F"><path d="M2276 833.9v1.3h-29l-.1 34.5h-81.5l.1-50h-82v-1.2h83.2v50h79v-34.6"/><path d="M2086.7 819.1c0 1.9-1.5 3.3-3.3 3.3s-3.3-1.5-3.3-3.3 1.5-3.3 3.3-3.3c1.9 0 3.3 1.5 3.3 3.3zm82.3 0c0 1.9-1.4 3.4-3.3 3.4-1.8 0-3.3-1.5-3.3-3.4 0-1.8 1.5-3.2 3.3-3.2 1.9-.1 3.3 1.4 3.3 3.2zm109.2 15.4c0 1.5-1.2 2.7-2.7 2.7s-2.7-1.2-2.7-2.7 1.3-2.6 2.8-2.6c1.4 0 2.6 1.2 2.6 2.6zm-109.3 34.6c0 1.8-1.3 3.3-3.3 3.3-1.8 0-3.3-1.5-3.3-3.3s1.5-3.3 3.3-3.3c2 0 3.4 1.5 3.3 3.3zm81.1 0c0 1.8-1.5 3.3-3.3 3.3s-3.3-1.5-3.3-3.3 1.5-3.3 3.3-3.3 3.3 1.5 3.3 3.3zm-1.3-34.1c0 1.1-.9 2-2 2-1.2 0-2.1-.9-2.1-2 0-1.2 1-2.1 2.1-2.1 1.2 0 2 .9 2 2.1z"/></g><g fill="#62646F"><path d="M2639.4 1141.3v1h-22.6l-.1 27h-63.5v-39l-64.1-.1v-.9h65l.1 39h61.6v-27"/><path d="M2491.6 1129.8c0 1.4-1.1 2.5-2.5 2.5s-2.5-1.1-2.5-2.5c0-1.5 1.1-2.6 2.5-2.6s2.6 1.1 2.5 2.6zm64.2 0c0 1.4-1 2.5-2.5 2.5-1.3 0-2.5-1.2-2.5-2.5 0-1.5 1.1-2.6 2.5-2.6 1.5.1 2.6 1.1 2.5 2.6zm.1 39c0 1.5-1.1 2.5-2.5 2.5s-2.5-1.1-2.5-2.5 1.2-2.5 2.5-2.5c1.4-.1 2.5 1.1 2.5 2.5z"/></g><g fill="#62646F"><path d="M2677.9 642.8v.9h-22.6v27.1h-63.6v-39l-64-.1v-.9h65v38.9l61.6.1v-27"/><path d="M2530.2 631.3c0 1.4-1.2 2.5-2.5 2.5-1.5 0-2.6-1.1-2.6-2.5 0-1.5 1.2-2.7 2.7-2.7 1.2 0 2.4 1.2 2.4 2.7zm64.2 0c0 1.4-1.2 2.5-2.5 2.5s-2.5-1.1-2.5-2.5c0-1.5 1.2-2.7 2.6-2.7 1.2 0 2.4 1.2 2.4 2.7zm0 38.9c0 1.4-1.2 2.6-2.5 2.6s-2.5-1.2-2.5-2.6c0-1.3 1.2-2.5 2.5-2.5s2.5 1.2 2.5 2.5z"/></g><g fill="#62646F"><path d="M2458.9 983.2v1.2l-28.9.1v34.5h-81.5v-49.9h-81.9l-.1-1.3h83.3v50h78.9v-34.6"/><path d="M2269.8 968.4c0 1.8-1.5 3.3-3.3 3.3s-3.3-1.5-3.3-3.3 1.5-3.3 3.3-3.3c1.9.1 3.3 1.5 3.3 3.3zm82.2.1c0 1.8-1.5 3.3-3.3 3.3s-3.3-1.5-3.3-3.3 1.5-3.3 3.3-3.3 3.3 1.5 3.3 3.3zm109.2 15.4c0 1.5-1.2 2.7-2.7 2.7s-2.7-1.2-2.7-2.7 1.2-2.7 2.7-2.7c1.4 0 2.8 1.2 2.7 2.7zm-109.2 34.5c0 1.8-1.5 3.3-3.3 3.3s-3.3-1.5-3.3-3.3c0-1.9 1.5-3.4 3.3-3.4 1.8.1 3.3 1.6 3.3 3.4zm81.1 0c0 1.8-1.5 3.3-3.3 3.3-1.9 0-3.3-1.5-3.3-3.3 0-1.9 1.4-3.4 3.3-3.4 1.8.1 3.3 1.6 3.3 3.4zm-1.3-34.2c0 1.2-1 2.2-2 2.2-1.2 0-2.1-.9-2.1-2.1 0-1.1 1-2 2.2-2 1-.1 1.9.8 1.9 1.9z"/></g><g fill="#62646F"><path d="M2238.6 462.5v-3.6h243.8v146.3h231.2V504h88.6v3.6h-85v101.2h-238.4V462.5"/><path d="M2248.2 460.7c0 5.3-4.3 9.7-9.7 9.7-5.3 0-9.6-4.3-9.6-9.6s4.3-9.7 9.7-9.7c5.3 0 9.6 4.3 9.6 9.6zm240.8 0c0 5.3-4.2 9.6-9.6 9.6-5.4 0-9.6-4.3-9.6-9.6s4.2-9.6 9.6-9.6 9.6 4.3 9.6 9.6zm0 146.3c0 5.3-4.2 9.6-9.6 9.6-5.4 0-9.6-4.3-9.6-9.6s4.2-9.6 9.6-9.6 9.6 4.3 9.6 9.6z"/></g><path fill="#62646F" d="M2238.2 323.2v-1.8H2352l37.1-39.1 1.3 1.3-37.6 39.6m-214.5 615.6V909h113v1.8h-111.2v28m98.1-439.4v-2.7h95.1v127.7l-2.8.1V499.3m77.9 646.8v-2.7h38v95.1h24v2.7h-26.6v-95.1m-190.3-110.8v-23.6h2.6v20.8l127.1.1.1 52.5h-2.8v-49.8m-175.3-366.9v-2.7h84.7v108h42v2.7h-44.7v-108m-13.7 187.9v-21.7l1.8-.1v20h74.5v-48.8h1.8v50.6m141.1-710.2v-1.8h29.1l.1 106h161.6v1.8h-163.4l-.1-106m-9.6 585.3v-82.8h1.8v81h25v1.8m-132.7 588.8V1291h1.8v27.4h165.9v1.8m-536.9-243.5v-2.7h26.9v9.7l78.9.1v2.7h-81.5l.1-9.8m17.4-522.5v-58.3l55.4.1v2.7h-52.8l.1 52.8h15V622h-2.6v-67.8"/><path fill="#B9BFCA" d="M2549.8 1041.9h35.8v35.8h-35.8zm-706.9-18.7h35.8v35.8h-35.8zm511.9-579.7h35.8v35.8h-35.8zM2304.5 895h35.8v35.8h-35.8zm88.2 376.3h35.8v35.8h-35.8z"/><path fill="#F3C96F" d="M2198.7 261.4h35.8v35.8h-35.8M2037 915.9h35.8v35.8H2037z"/><path fill="#AEC5E5" d="M2043.5 706.8h35.8v35.8h-35.8zm203.4 421.5h35.8v35.8h-35.8zm166.9-494.1h30.7v30.7h-30.7zm134.8 582.3h35.8v35.8h-35.8z"/><path fill="#D1DAE5" d="M2437.8 754.3h35.8v35.8h-35.8zm-222.5-148.1h35.8V642h-35.8z"/><path fill="#62646F" d="M2346.5 1129.5c9.7 0 17.5 7.8 17.5 17.4 0 9.7-7.8 17.5-17.5 17.5-9.6 0-17.4-7.8-17.4-17.5 0-9.6 7.8-17.5 17.4-17.4zm0 32.5c8.4 0 15.1-6.7 15.1-15.1s-6.7-15.1-15.1-15.1c-8.4 0-15.1 6.8-15.1 15.1s6.8 15.1 15.1 15.1zm124.9 55.9c9.6 0 17.5 7.8 17.5 17.5 0 9.6-7.9 17.5-17.5 17.5-9.7 0-17.4-7.8-17.5-17.5.1-9.7 7.9-17.5 17.5-17.5zm0 32.5c8.3 0 15.2-6.8 15.2-15.1s-6.8-15.1-15.1-15.1-15.1 6.8-15.1 15.1c-.1 8.3 6.7 15.1 15 15.1zm101.1 50.7c9.6 0 17.5 7.8 17.5 17.5 0 9.6-7.9 17.5-17.5 17.4-9.6 0-17.4-7.8-17.4-17.4s7.8-17.4 17.4-17.5zm0 32.6c8.3 0 15.2-6.8 15.2-15.1s-6.8-15.1-15.2-15.1c-8.3 0-15.1 6.8-15 15.1-.1 8.3 6.7 15.1 15 15.1zm-402.2-107.2c9.6 0 17.5 7.9 17.5 17.5s-7.8 17.5-17.5 17.5-17.4-7.8-17.5-17.5c0-9.6 7.8-17.5 17.5-17.5zm0 32.6c8.4 0 15.2-6.8 15.1-15.1 0-8.3-6.8-15.1-15.2-15.1-8.3 0-15.1 6.8-15.1 15.1.1 8.4 6.9 15.1 15.2 15.1zm-241.9-180.5c9.7 0 17.5 7.8 17.5 17.5 0 9.6-7.8 17.5-17.5 17.5s-17.4-7.8-17.5-17.5c.1-9.7 7.8-17.5 17.5-17.5zm0 32.6c8.4 0 15.2-6.8 15.1-15.1 0-8.4-6.7-15.1-15.1-15.1-8.3 0-15.1 6.8-15.1 15.1s6.8 15.1 15.1 15.1zm34.8-114c9.6 0 17.5 7.8 17.5 17.5 0 9.6-7.8 17.4-17.5 17.5-9.6 0-17.4-7.8-17.5-17.5.1-9.7 7.8-17.5 17.5-17.5zm0 32.6c8.3 0 15.1-6.8 15.1-15.1s-6.8-15.1-15.2-15.1c-8.3 0-15.1 6.8-15.1 15.1.1 8.3 6.9 15.1 15.2 15.1zm71.2-30.9c9.6 0 17.5 7.8 17.5 17.5 0 9.6-7.9 17.5-17.5 17.5s-17.4-7.8-17.5-17.5c0-9.7 7.8-17.5 17.5-17.5zm0 32.6c8.4 0 15.1-6.8 15.1-15.1s-6.8-15.1-15.1-15.1-15.1 6.8-15.1 15.1 6.8 15.1 15.1 15.1zm489-165.7c6.9 0 12.4 5.5 12.4 12.4s-5.6 12.4-12.4 12.4c-6.9 0-12.4-5.5-12.4-12.4.1-6.8 5.5-12.3 12.4-12.4zm0 23.2c5.9 0 10.7-4.8 10.7-10.7s-4.8-10.7-10.8-10.7c-5.8 0-10.7 4.8-10.7 10.8.1 5.8 4.9 10.6 10.8 10.6zm-173.8 66.7c6.9 0 12.4 5.5 12.4 12.4 0 6.8-5.6 12.4-12.4 12.4-6.9 0-12.4-5.5-12.4-12.4.1-6.9 5.6-12.4 12.4-12.4zm.1 23.1c5.9 0 10.8-4.8 10.7-10.7 0-5.9-4.8-10.7-10.7-10.7-5.8 0-10.7 4.9-10.7 10.7 0 5.9 4.8 10.7 10.7 10.7zm79.6 27.8c6.9 0 12.4 5.5 12.4 12.4.1 6.8-5.5 12.3-12.4 12.4-6.8 0-12.3-5.6-12.4-12.4.1-6.9 5.6-12.4 12.4-12.4zm0 23c6 0 10.8-4.8 10.7-10.7 0-5.9-4.8-10.7-10.7-10.7s-10.7 4.8-10.7 10.7c0 5.9 4.9 10.7 10.7 10.7zm-248.3 73.6c6.8 0 12.4 5.5 12.4 12.4 0 6.8-5.6 12.4-12.4 12.4-6.9 0-12.4-5.5-12.4-12.4s5.5-12.4 12.4-12.4zm0 23c5.9 0 10.7-4.8 10.7-10.7 0-5.9-4.8-10.7-10.8-10.8-5.8 0-10.7 4.9-10.7 10.8.1 5.9 4.9 10.7 10.8 10.7zm372.9-9.4c6.9 0 12.4 5.5 12.4 12.3s-5.5 12.4-12.4 12.4c-6.8 0-12.3-5.6-12.3-12.4 0-6.8 5.5-12.4 12.3-12.3zm0 23c6 0 10.7-4.8 10.7-10.7 0-5.9-4.8-10.7-10.7-10.7s-10.7 4.8-10.7 10.7 4.8 10.7 10.7 10.7zm-514.7 4.3c9.7 0 17.5 7.8 17.5 17.5 0 9.6-7.8 17.4-17.5 17.4-9.6 0-17.4-7.8-17.4-17.4-.1-9.7 7.8-17.5 17.4-17.5zm0 32.6c8.4 0 15.2-6.8 15.2-15.2 0-8.3-6.8-15.1-15.2-15.1-8.3 0-15.1 6.8-15.1 15.2 0 8.3 6.8 15.1 15.1 15.1zM2241.4 787c9.6 0 17.5 7.8 17.5 17.5 0 9.6-7.9 17.5-17.5 17.5s-17.4-7.8-17.4-17.5 7.8-17.5 17.4-17.5zm0 32.6c8.4 0 15.1-6.7 15.2-15.1 0-8.4-6.8-15.1-15.2-15.1-8.3 0-15.1 6.7-15.1 15.1 0 8.4 6.8 15.1 15.1 15.1zm-75.7 31.9c9.6 0 17.5 7.8 17.5 17.5 0 9.6-7.8 17.4-17.5 17.5-9.6 0-17.4-7.8-17.5-17.5.1-9.8 7.9-17.6 17.5-17.5zm.1 32.5c8.3 0 15.1-6.8 15.1-15.1s-6.8-15.1-15.2-15.1c-8.3 0-15.1 6.8-15.1 15.1 0 8.4 6.8 15.2 15.2 15.1zm-9.3-276c9.7 0 17.5 7.8 17.5 17.5s-7.8 17.4-17.5 17.4c-9.6 0-17.4-7.8-17.4-17.4 0-9.6 7.8-17.4 17.4-17.5zm.1 32.6c8.4 0 15.2-6.8 15.2-15.1 0-8.4-6.8-15.2-15.2-15.2-8.3 0-15.1 6.8-15.1 15.2 0 8.3 6.7 15.1 15.1 15.1zM2560 368.2c9.7 0 17.5 7.8 17.5 17.5 0 9.6-7.9 17.4-17.5 17.4-9.7 0-17.5-7.8-17.4-17.4 0-9.7 7.7-17.5 17.4-17.5zm0 32.6c8.4 0 15.1-6.8 15.1-15.1 0-8.4-6.7-15.1-15.1-15.1-8.3 0-15.1 6.8-15.1 15.2 0 8.2 6.8 15 15.1 15zm-168.7-32.6c9.6 0 17.5 7.9 17.5 17.5 0 9.7-7.9 17.5-17.5 17.4-9.6 0-17.4-7.8-17.4-17.4 0-9.7 7.8-17.5 17.4-17.5zm0 32.6c8.4 0 15.2-6.8 15.2-15.1 0-8.4-6.8-15.1-15.1-15.1-8.4 0-15.1 6.7-15.1 15.1-.1 8.3 6.7 15.1 15 15.1zM2182 479.2c9.7 0 17.5 7.8 17.5 17.5 0 9.6-7.8 17.4-17.5 17.4s-17.5-7.8-17.4-17.4c0-9.6 7.7-17.5 17.4-17.5zm0 32.6c8.4 0 15.2-6.8 15.2-15.1 0-8.4-6.8-15.2-15.2-15.2-8.3 0-15.1 6.8-15.1 15.2 0 8.3 6.8 15.1 15.1 15.1zm208.1-246c9.7 0 17.5 7.8 17.5 17.5 0 9.6-7.8 17.4-17.5 17.4-9.6 0-17.4-7.8-17.4-17.4-.1-9.7 7.7-17.6 17.4-17.5zm0 32.6c8.4 0 15.1-6.8 15.1-15.1 0-8.4-6.7-15.1-15.1-15.1-8.3 0-15.1 6.8-15.1 15.2 0 8.2 6.7 15 15.1 15zM2239.2 309c9.7 0 17.5 7.8 17.5 17.5 0 9.6-7.8 17.4-17.5 17.4-9.6 0-17.4-7.8-17.4-17.4 0-9.7 7.8-17.5 17.4-17.5zm0 32.5c8.3 0 15.1-6.7 15.1-15.1s-6.8-15.2-15.2-15.2c-8.3 0-15.1 6.8-15.1 15.1.1 8.5 6.9 15.2 15.2 15.2zm16.1-114.7c9.6 0 17.5 7.8 17.5 17.5s-7.8 17.4-17.5 17.5c-9.7 0-17.5-7.8-17.5-17.5.1-9.7 7.9-17.5 17.5-17.5zm0 32.5c8.4 0 15.2-6.8 15.2-15.1s-6.8-15.1-15.1-15.1-15.1 6.8-15.1 15.1c-.1 8.4 6.7 15.1 15 15.1zm237.6 16.3c9.7 0 17.5 7.8 17.5 17.5 0 9.6-7.8 17.4-17.5 17.4-9.6 0-17.4-7.8-17.4-17.4-.1-9.6 7.7-17.5 17.4-17.5zm0 32.6c8.4 0 15.1-6.8 15.1-15.1 0-8.4-6.7-15.1-15.1-15.1-8.3 0-15.1 6.8-15.1 15.2 0 8.2 6.7 15 15.1 15zm0-180.6c9.7 0 17.5 7.8 17.5 17.5s-7.8 17.4-17.5 17.4c-9.6 0-17.4-7.8-17.4-17.4-.1-9.7 7.7-17.5 17.4-17.5zm0 32.6c8.4 0 15.2-6.8 15.2-15.1 0-8.4-6.8-15.2-15.2-15.2-8.3 0-15.1 6.8-15.1 15.2 0 8.3 6.7 15.1 15.1 15.1zm-237.4-31.5c9.7 0 17.5 7.8 17.5 17.5 0 9.6-7.8 17.4-17.5 17.4-9.6 0-17.4-7.8-17.4-17.4 0-9.7 7.9-17.5 17.4-17.5zm0 32.6c8.4 0 15.2-6.8 15.2-15.1 0-8.4-6.8-15.2-15.2-15.2-8.3 0-15.1 6.8-15.1 15.2.1 8.3 6.8 15.1 15.1 15.1zm-85.8 68c9.7 0 17.5 7.8 17.5 17.5 0 9.6-7.9 17.4-17.5 17.4s-17.4-7.8-17.4-17.4c0-9.6 7.8-17.5 17.4-17.5zm0 32.6c8.4 0 15.1-6.8 15.1-15.1 0-8.4-6.7-15.1-15.1-15.1-8.3 0-15.1 6.8-15.1 15.2 0 8.2 6.8 15 15.1 15zm367.2 212.6c9.7 0 17.5 7.8 17.5 17.5 0 9.6-7.8 17.4-17.5 17.4-9.6 0-17.4-7.8-17.4-17.4 0-9.7 7.8-17.5 17.4-17.5zm0 32.6c8.4 0 15.1-6.7 15.1-15.1s-6.8-15.2-15.2-15.2c-8.3 0-15.1 6.8-15.1 15.1.2 8.4 6.9 15.2 15.2 15.2zm-450.2 720.6c9.6 0 17.5 7.8 17.5 17.5s-7.9 17.5-17.5 17.5c-9.7 0-17.5-7.8-17.5-17.5 0-9.6 7.8-17.5 17.5-17.5zm-.1 32.6c8.4 0 15.2-6.8 15.2-15.1s-6.8-15.1-15.1-15.1-15.1 6.8-15.1 15.1c-.1 8.3 6.7 15.1 15 15.1zm-184.7-338.6c9.6 0 17.5 7.9 17.5 17.5s-7.9 17.5-17.5 17.4c-9.7 0-17.5-7.8-17.4-17.4-.1-9.6 7.7-17.5 17.4-17.5zm0 32.6c8.4 0 15.2-6.8 15.1-15.1 0-8.4-6.8-15.2-15.2-15.2-8.3 0-15.1 6.8-15.1 15.1.1 8.4 6.9 15.2 15.2 15.2zm237.3-33.4c9.6 0 17.5 7.8 17.5 17.5s-7.8 17.4-17.5 17.4c-9.6 0-17.4-7.8-17.4-17.4 0-9.7 7.7-17.5 17.4-17.5zm0 32.6c8.4 0 15.2-6.8 15.2-15.1 0-8.4-6.8-15.2-15.1-15.1-8.3 0-15.1 6.8-15.1 15.1-.1 8.3 6.7 15.1 15 15.1zm117.8 42.8c9.7 0 17.5 7.8 17.5 17.5 0 9.6-7.8 17.4-17.5 17.4-9.6 0-17.4-7.8-17.4-17.4 0-9.7 7.7-17.5 17.4-17.5zm0 32.6c8.4 0 15.1-6.7 15.2-15.1 0-8.4-6.8-15.1-15.2-15.2-8.4 0-15.1 6.8-15.1 15.2 0 8.4 6.8 15.1 15.1 15.1zm124.6 38.6c9.6 0 17.5 7.9 17.5 17.5 0 9.7-7.9 17.5-17.5 17.4-9.7.1-17.5-7.7-17.4-17.4 0-9.6 7.7-17.5 17.4-17.5zm-.1 32.6c8.4 0 15.2-6.8 15.2-15.1 0-8.4-6.8-15.2-15.1-15.1-8.3 0-15.1 6.8-15.1 15.1s6.8 15.1 15 15.1zm-50.8-344.5c9.7 0 17.5 7.8 17.5 17.5s-7.8 17.4-17.5 17.4c-9.6 0-17.4-7.8-17.4-17.4 0-9.7 7.8-17.4 17.4-17.5zm0 32.6c8.4 0 15.2-6.8 15.2-15.1 0-8.4-6.8-15.2-15.2-15.2-8.3 0-15.1 6.8-15.1 15.2 0 8.3 6.8 15.1 15.1 15.1zm34.8-155.4c9.6 0 17.5 7.8 17.5 17.5 0 9.6-7.8 17.4-17.5 17.5-9.6 0-17.4-7.8-17.5-17.5.1-9.7 7.9-17.6 17.5-17.5zm-.1 32.5c8.4 0 15.2-6.8 15.2-15.1 0-8.4-6.8-15.2-15.1-15.1-8.3 0-15.1 6.8-15.1 15.1-.1 8.3 6.7 15.1 15 15.1zm172.1 45.2c9.7 0 17.5 7.8 17.5 17.5s-7.8 17.4-17.5 17.4c-9.6 0-17.5-7.8-17.5-17.4.1-9.7 7.9-17.5 17.5-17.5zm0 32.6c8.4 0 15.2-6.8 15.2-15.1 0-8.4-6.8-15.2-15.2-15.2s-15.1 6.8-15.2 15.2c0 8.3 6.8 15.1 15.2 15.1z"/></svg>