<svg xmlns="http://www.w3.org/2000/svg" viewBox="0 0 2600 1463"><style>.st0{fill:url(#SVGID_1_);} .st1{opacity:0.7;} .st2{opacity:0.2;} .st3{fill:#636570;} .st4{fill:#B9BFCA;} .st5{fill:#F3C96E;} .st6{fill:#AEC5E4;} .st7{fill:#D1DAE6;}</style><g id="_x34_"><linearGradient id="SVGID_1_" gradientUnits="userSpaceOnUse" x1="1300" y1="1463" x2="1300"><stop offset="0" stop-color="#F7F9FD"/><stop offset="1" stop-color="#DFE4F2"/></linearGradient><path class="st0" d="M0 0h2600v1463H0z"/></g><g class="st1" id="Layer_6"><g class="st2"><path class="st3" d="M45.2 278.5v113.8h95.6l-.1 4H41.1l.1-113.8"/><path class="st3" d="M139.4 403.2c-4.9 0-8.8-4.1-8.8-8.8 0-4.9 3.9-8.9 8.8-8.9 4.8 0 8.8 4 8.8 8.9 0 4.7-4 8.8-8.8 8.8zM44.6 291.3c-6 0-10.8-4.9-10.8-10.8 0-6 4.7-10.9 10.8-10.9 6 0 10.9 4.9 10.9 10.9-.1 6-5 10.9-10.9 10.8zm0 108.4c-3.8 0-6.8-3-6.8-6.8 0-3.7 3-6.8 6.8-6.8 3.7 0 6.7 3.1 6.7 6.8 0 3.8-3 6.8-6.7 6.8zm-267.7 740.5H45.2V1254h95.6v4.2l-99.7-.1v-113.8H-219"/><path class="st3" d="M139.4 1264.8c-4.9 0-8.8-3.9-8.8-8.8s3.9-8.8 8.8-8.8c4.8 0 8.8 4 8.8 8.9s-4 8.8-8.8 8.7zm-94.8-111.7c-6.1 0-10.9-4.8-10.9-10.9 0-5.9 4.8-10.8 10.9-10.8 5.9 0 10.8 4.9 10.8 10.8 0 6.1-4.9 10.9-10.8 10.9zm0 108.4c-3.8 0-6.8-3-6.8-6.7 0-3.8 2.9-6.8 6.8-6.8 3.7 0 6.7 3 6.7 6.8 0 3.7-3 6.7-6.7 6.7zM-42.3 817h268.4v113.9h95.5l.1 4.1H222V821.1H-38.1"/><path class="st3" d="M320.4 941.8c-4.9 0-8.9-4-8.9-8.9s4-8.8 8.9-8.8 8.8 3.9 8.8 8.8-4 8.8-8.8 8.9zm-95-111.9c-6 0-10.9-4.9-10.9-10.8 0-6 4.9-10.9 10.9-10.9s10.8 4.9 10.8 10.9c0 5.9-4.7 10.8-10.8 10.8zm0 108.5c-3.6 0-6.7-3-6.7-6.7 0-3.8 3.1-6.8 6.8-6.8 3.7-.1 6.7 3 6.7 6.7s-3.1 6.7-6.8 6.8zm-353.6 464H140v113.8l95.6.1v4H136v-113.8h-260.1"/><path class="st3" d="M139.4 1415.4c-6.1 0-10.9-4.8-10.9-10.8s4.9-10.9 10.9-10.9c5.9 0 10.8 4.8 10.8 10.8s-4.9 10.8-10.8 10.9zm297.4-126.7v-113.9H176.6l.1 164.6H-97.8v-4l270.4-.1v-164.6h268.3v113.9h95.5v4z"/><path class="st3" d="M173.3 1348.3c-6 0-10.9-4.9-10.9-10.9-.1-5.9 4.8-10.8 10.8-10.8s10.9 4.8 10.9 10.8-4.8 10.8-10.8 10.9zm361.8-52.9c-4.9 0-8.9-4-8.9-8.8 0-4.9 4-8.8 8.9-8.8 4.7 0 8.7 3.9 8.7 8.8 0 4.8-3.9 8.8-8.7 8.8zm-361.8-111.8c-6 0-10.9-4.9-10.9-10.9 0-5.9 4.8-10.8 10.8-10.8s10.9 4.8 10.9 10.8-4.8 10.9-10.8 10.9zm266.9-.1c-5.9.1-10.8-4.8-10.8-10.8-.1-5.9 4.8-10.8 10.8-10.8s10.9 4.9 10.9 10.8c0 6-4.9 10.9-10.9 10.8zm.1 108.5c-3.9 0-6.9-3-6.9-6.7.1-3.8 3.1-6.9 6.9-6.9 3.6 0 6.7 3 6.7 6.8-.1 3.8-3.1 6.8-6.7 6.8zm-260.4-291v-51.4H62.3v74.4h-124v-1.9H60.4v-74.3h121.3v51.4h43.1v1.8z"/><path class="st3" d="M60.7 1027.9c-2.7 0-4.9-2.1-4.9-4.9.1-2.8 2.2-4.9 4.9-4.9 2.8 0 4.9 2.2 4.9 4.9.1 2.8-2 4.9-4.9 4.9zm163.5-23.8c-2.2 0-3.9-1.8-3.9-4s1.7-4 3.9-4 4 1.8 4 4c0 2.1-1.9 4-4 4zM60.9 953.6c-2.7 0-4.9-2.2-4.9-4.9s2.1-4.9 4.8-4.9c2.8 0 4.9 2.2 4.9 4.9s-2.2 4.8-4.8 4.9zm120.5 0c-2.7 0-4.9-2.2-4.9-4.9s2.2-4.9 4.9-4.9c2.6 0 4.9 2.2 4.9 4.9s-2.3 4.8-4.9 4.9zm0 49c-1.8 0-3.1-1.4-3.1-3.1s1.4-3 3.1-3c1.6 0 3 1.3 3 3s-1.3 3-3 3.1zm-10 368.5v51.4h117.5v-74.4h123.9v1.9H290.7v74.4H169.6v-51.5h-43.2v-1.8z"/><path class="st3" d="M412.9 1344.2c2.7 0 5 2.2 5 4.9 0 2.8-2.3 4.9-5 4.9s-4.9-2.1-4.9-4.9c0-2.8 2.2-4.9 4.9-4.9zm-122.4 0c2.7 0 4.9 2.2 4.9 4.9 0 2.8-2.2 4.9-4.9 4.9-2.8 0-4.9-2.1-4.9-4.9 0-2.8 2.1-4.9 4.9-4.9zM127 1368c2.1 0 3.9 1.8 3.9 4s-1.8 4-3.9 4c-2.1 0-3.9-1.8-3.9-4s1.8-4 3.9-4zm163.5 50.5c2.7 0 4.9 2.1 4.9 4.9 0 2.7-2.2 4.9-4.9 4.9-2.8 0-4.9-2.2-4.9-4.9s2.1-4.8 4.9-4.9zm-120.7 0c2.7 0 4.9 2.1 4.9 4.9 0 2.7-2.2 4.9-4.9 4.9s-4.9-2.2-4.9-4.9 2.3-4.8 4.9-4.9zm0-48.9c1.7 0 3.1 1.4 3.1 3.1 0 1.7-1.3 3-3.1 3-1.6 0-3-1.4-3-3 .1-1.7 1.4-3.1 3-3.1zM-109 433.2H86.7v3H-106"/><path class="st3" d="M86.8 427c4.3 0 7.7 3.4 7.7 7.7 0 4.2-3.5 7.8-7.8 7.8-4.2 0-7.7-3.5-7.7-7.7 0-4.4 3.5-7.8 7.8-7.8zm11.9 437.5l81.2.1V679H62.4V483.3h3V676h117.4v191.5h-81.2v68.1h-2.9z"/><path class="st3" d="M55.2 481.8c-.1-4.3 3.4-7.8 7.7-7.8 4.2 0 7.7 3.5 7.7 7.8s-3.5 7.7-7.7 7.7c-4.3 0-7.7-3.5-7.7-7.7zm.9 194.7c.1-4.4 3.5-7.8 7.7-7.8 4.4.1 7.8 3.5 7.8 7.8s-3.4 7.7-7.7 7.7-7.7-3.4-7.8-7.7zM94 934.6c0-3.5 2.7-6.3 6.1-6.3 3.5 0 6.4 2.8 6.4 6.3s-2.9 6.3-6.4 6.3c-3.4 0-6.1-2.8-6.1-6.3zm79.7-258.1c-.1-4.3 3.5-7.7 7.7-7.7 4.2-.1 7.7 3.4 7.7 7.7s-3.5 7.7-7.7 7.7c-4.3.1-7.8-3.4-7.7-7.7zm-.1 190.4c0-4.3 3.6-7.8 7.8-7.8 4.3.1 7.8 3.5 7.8 7.8-.1 4.4-3.5 7.8-7.8 7.8s-7.8-3.4-7.8-7.8zm-77.4.1c0-2.7 2.2-4.8 4.9-4.8 2.7-.1 4.8 2.1 4.8 4.8s-2.1 4.8-4.8 4.8-4.8-2.1-4.9-4.8zm193.5 389.8H371v-185.5H253.5V875.5h2.9l-.1 192.8h117.5l.1 191.5-81.3-.1v68.2h-2.8z"/><path class="st3" d="M247.2 875.5c0-4.3 3.5-7.8 7.8-7.8 4.3.1 7.8 3.5 7.8 7.8-.1 4.3-3.6 7.8-7.8 7.8-4.4 0-7.7-3.5-7.8-7.8zm.1 193.3c0-4.3 3.4-7.7 7.7-7.7 4.2-.1 7.7 3.5 7.7 7.7 0 4.3-3.5 7.7-7.7 7.7-4.4 0-7.8-3.4-7.7-7.7zm37.5 258.1c.1-3.4 2.9-6.2 6.4-6.2 3.4 0 6.3 2.8 6.3 6.2 0 3.5-2.9 6.3-6.3 6.3-3.5 0-6.3-2.8-6.4-6.3zm79.8-258.2c0-4.2 3.5-7.7 7.7-7.7 4.4 0 7.8 3.5 7.8 7.8s-3.4 7.7-7.7 7.7-7.7-3.4-7.8-7.8zm0 190.7c0-4.3 3.5-7.8 7.8-7.8s7.7 3.4 7.7 7.7c0 4.3-3.4 7.7-7.7 7.7s-7.8-3.5-7.8-7.6zm-77.2-.1c0-2.7 2.2-4.9 4.8-4.9 2.7 0 4.9 2.2 4.9 4.9 0 2.6-2.2 4.8-4.9 4.8-2.7-.1-4.8-2.2-4.8-4.8zM12.8 544.2v38.9h32.6v1.4h-34v-39"/><path class="st3" d="M45 586.7c-1.7.1-3.1-1.3-3.1-2.9 0-1.7 1.4-3.1 3.1-3.1 1.6 0 3 1.5 3 3.1 0 1.7-1.4 2.9-3 2.9zm-32.4-38.1c-2.1 0-3.7-1.6-3.7-3.7 0-2 1.7-3.6 3.7-3.6s3.7 1.6 3.7 3.6c0 2.1-1.7 3.7-3.7 3.7zm0 37c-1.3 0-2.3-1-2.3-2.3s1.1-2.4 2.4-2.4c1.2 0 2.2 1 2.2 2.4 0 1.3-1.1 2.3-2.3 2.3zm42.9 469.1v38.9h88.9v-56.2H238l.1 1.4h-92.3l-.1 56.2H54.2l-.1-38.9H21.5v-1.4z"/><path class="st3" d="M238 1034.4c2 0 3.7 1.6 3.7 3.6 0 2.1-1.8 3.7-3.7 3.7-2 0-3.7-1.6-3.7-3.7 0-2 1.7-3.6 3.7-3.6zm-92.4-.1c2 0 3.7 1.6 3.7 3.6 0 2.1-1.7 3.8-3.7 3.8-2.1 0-3.7-1.6-3.7-3.7-.1-2 1.5-3.6 3.7-3.7zM22 1052.5c1.6 0 3 1.3 3 3s-1.4 3-3 3c-1.7 0-3-1.4-3-3-.1-1.7 1.3-3 3-3zm123.5 38.1c2 0 3.7 1.6 3.7 3.7 0 2-1.7 3.7-3.7 3.7-2.1 0-3.7-1.7-3.7-3.7.1-2 1.6-3.7 3.7-3.7zm-91.2 0c2.2 0 3.7 1.6 3.7 3.7s-1.6 3.7-3.7 3.7c-2 0-3.7-1.6-3.7-3.6 0-2.1 1.7-3.8 3.7-3.8zm0-37c1.4.1 2.4 1.1 2.4 2.4 0 1.2-1.1 2.2-2.4 2.2-1.2 0-2.2-1-2.2-2.3 0-1.3 1-2.3 2.2-2.3zm-116 151.8h93.8v1.5h-92.3"/><path class="st3" d="M32.1 1202.4c2 0 3.7 1.6 3.7 3.7 0 2-1.7 3.7-3.7 3.7-2.1 0-3.7-1.7-3.7-3.7s1.6-3.6 3.7-3.7zm31.5-569.7v4.2m-.1-13c5.9 0 10.8 5 10.8 10.9 0 6-4.9 10.9-10.8 10.9-6 0-10.9-4.9-10.9-10.9s5-10.9 10.9-10.9zM-64.1 478h128v2.1L-65 480m-42.4-44.5l1.5-1.5m280.1 738.7v-31.4h-125v-2.1h127.1v33.5zM-39.9 678.3l-.1 140.8h-3V675.3H63.9v3zm-59.4 600l143-.1.1-23.4h2.9v26.6H-96.2m0 56l-3.1-.1M8.8 868.5V990h-50.3v-3l47.2-.1V865.4l95.5.1v3zm-70.5 209.4h83.8v-22.4h2.1v24.4h-87.9m328.5 248v11.1h-91.5v-3.2h88.6v-10.9h30.4v3zM228.3 740v76.3h-3V737l16.9-.1v-59.3h-59.3v-3.1h62.4V740z"/></g><path class="st3" d="M-24.2 453.2h85v3.6h-88.6"/><path class="st3" d="M59.6 462.8c-4.3 0-7.8-3.6-7.8-7.8 0-4.3 3.5-7.8 7.8-7.8 4.3-.1 7.8 3.5 7.8 7.8-.1 4.3-3.5 7.9-7.8 7.8zm-83.8 756.3h85v3.6h-88.6"/><path class="st3" d="M59.5 1228.8c-4.3 0-7.8-3.5-7.8-7.8 0-4.4 3.6-7.9 7.9-7.9s7.8 3.5 7.8 7.8-3.5 7.8-7.9 7.9zm-161.3-398.1h238.5l-.1 101.2h84.9v3.6H133l.1-101.2H-98.2"/><path class="st3" d="M220.4 941.5c-4.3 0-7.8-3.5-7.8-7.8s3.5-7.8 7.8-7.8 7.8 3.5 7.8 7.8-3.5 7.8-7.8 7.8zm-84.3-99.4c-5.4 0-9.7-4.4-9.7-9.7 0-5.2 4.3-9.6 9.6-9.6 5.4 0 9.7 4.4 9.7 9.7-.1 5.3-4.4 9.6-9.6 9.6zm-.1 96.4c-3.3 0-6-2.7-6-6s2.7-6 6-6 6.1 2.7 6.1 6-2.8 6-6.1 6zm-314.3 412.4H60.1v101.2H145v3.6H56.5l.1-101.2-231.2.1"/><path class="st3" d="M143.8 1461.8c-4.3 0-7.8-3.5-7.8-7.8.1-4.3 3.6-7.9 7.9-7.9s7.8 3.5 7.8 7.8-3.5 7.9-7.9 7.9zm-84.3-99.3c-5.3 0-9.6-4.4-9.6-9.6 0-5.4 4.4-9.7 9.7-9.7 5.3-.1 9.6 4.3 9.6 9.6s-4.4 9.6-9.7 9.7zm0 96.2c-3.3 0-6-2.6-6-6 0-3.2 2.7-6 6-6s6 2.7 6 6c.1 3.3-2.6 6-6 6zm264.3-208.9l.1-101.2H92.7v146.3h-243.9v-3.6H89.1V1145h238.4l-.1 101.2h85v3.6z"/><path class="st3" d="M89.5 1302.8c-5.2 0-9.6-4.3-9.6-9.6 0-5.4 4.4-9.7 9.7-9.7 5.4 0 9.6 4.4 9.6 9.6.1 5.3-4.2 9.7-9.7 9.7zm321.7-47c-4.3 0-7.8-3.5-7.8-7.8s3.5-7.8 7.8-7.8 7.8 3.5 7.8 7.8-3.5 7.8-7.8 7.8zm-321.6-99.3c-5.4-.1-9.7-4.5-9.7-9.7 0-5.4 4.4-9.7 9.7-9.7 5.4 0 9.6 4.4 9.7 9.7-.1 5.3-4.3 9.7-9.7 9.7zm237.3 0c-5.4 0-9.6-4.3-9.6-9.6 0-5.4 4.3-9.7 9.7-9.7 5.2 0 9.6 4.3 9.6 9.6s-4.4 9.7-9.7 9.7zm0 96.3c-3.4 0-6-2.6-6-6 0-3.3 2.6-6 6-6 3.3 0 6 2.7 6 6-.1 3.3-2.7 6-6 6zm-337.5-306l107.8.1v45.7h38.3v1.6h-40v-45.7H-8.9"/><path class="st3" d="M134.9 996.9c-1.9 0-3.5-1.6-3.5-3.6 0-1.9 1.6-3.5 3.5-3.5 2 0 3.5 1.6 3.5 3.6 0 1.9-1.5 3.5-3.5 3.5zM97 952.1c-2.5-.1-4.5-2-4.5-4.4 0-2.4 2.1-4.3 4.5-4.3 2.2-.1 4.3 1.9 4.3 4.3s-2.1 4.3-4.3 4.4zm-.1 43.4c-1.5 0-2.7-1.2-2.7-2.7s1.2-2.7 2.7-2.7 2.7 1.2 2.7 2.7-1.2 2.7-2.7 2.7zM88 1323.1v45.7h104.4l.1-66.1h110l.1 1.6H194.1v66.1H86.4v-45.7H48l.1-1.6z"/><path class="st3" d="M302.5 1299.2c2.4 0 4.4 1.8 4.4 4.3 0 2.4-1.9 4.3-4.4 4.3-2.3 0-4.3-1.8-4.3-4.3 0-2.4 2-4.3 4.3-4.3zm-108.7 0c2.3 0 4.3 1.9 4.3 4.3s-2 4.3-4.3 4.3c-2.4.1-4.3-1.9-4.3-4.3.1-2.4 1.9-4.3 4.3-4.3zm-145.1 21.2c1.9-.1 3.5 1.6 3.5 3.5-.1 2-1.7 3.6-3.6 3.6-2 0-3.6-1.7-3.6-3.6s1.6-3.5 3.7-3.5zm145.1 44.9c2.3 0 4.3 1.9 4.3 4.3s-2 4.3-4.3 4.3c-2.4.1-4.3-1.9-4.3-4.3s1.9-4.3 4.3-4.3zm-107.2 0c2.4 0 4.3 1.8 4.3 4.3.1 2.3-1.8 4.3-4.3 4.3-2.4 0-4.3-1.9-4.3-4.3s1.9-4.3 4.3-4.3zm0-43.6c1.5.1 2.8 1.3 2.8 2.8s-1.3 2.7-2.8 2.7c-1.4-.1-2.7-1.2-2.7-2.7s1.3-2.8 2.7-2.8zM12.8 489.6v2.6m0-8.1c3.8 0 6.9 3.1 6.9 6.9 0 3.7-3.1 6.9-6.9 6.9s-6.9-3.2-6.9-6.9c0-3.9 3.1-6.9 6.9-6.9zm10.6 388.8h72.1V708H-8.8V534.1h2.5v171.3H98.2v170.1H25.9V936h-2.5z"/><path class="st3" d="M19.2 935.3c0-3 2.4-5.5 5.5-5.5s5.6 2.4 5.6 5.5c0 3-2.5 5.5-5.6 5.5s-5.6-2.5-5.5-5.5zm70.7-229.5c.1-3.8 3.2-6.9 6.9-6.9 3.8 0 6.9 3.1 6.9 6.9 0 3.8-3.1 6.9-6.9 6.9-3.7 0-6.9-3.1-6.9-6.9zm0 169.3c0-3.8 3.2-6.9 6.9-6.9 3.8 0 6.9 3.1 6.9 6.9 0 3.8-3.1 6.9-6.9 6.9-3.7 0-6.9-3.1-6.9-6.9zm-68.7 0c0-2.4 1.9-4.3 4.2-4.3 2.5 0 4.4 1.9 4.4 4.3s-1.9 4.3-4.3 4.3c-2.3 0-4.2-1.9-4.3-4.3zm172 346.4h72.2l-.1-164.9-104.3.1.1-174h2.5V1054h104.3v170.2h-72.1l-.1 60.5h-2.5z"/><path class="st3" d="M155.4 882.6c.1-3.8 3.2-6.9 6.9-6.9 3.9 0 6.9 3.1 6.9 6.9 0 3.8-3 6.9-6.9 6.9-3.8.1-6.9-3.1-6.9-6.9zm0 171.9c0-3.8 3-6.9 6.9-6.9 3.8 0 6.9 3.1 6.9 6.9s-3.1 6.9-6.9 6.9c-3.8-.1-6.9-3.2-6.9-6.9zm33.5 229.2c0-3 2.5-5.5 5.6-5.5s5.6 2.5 5.6 5.6c0 3.1-2.5 5.6-5.6 5.6-3.1 0-5.6-2.5-5.6-5.7zm70.8-229.3c0-3.8 3.1-6.9 6.9-6.9 3.9 0 6.9 3.1 6.9 6.9 0 3.9-3 6.9-6.9 6.9-3.7 0-6.8-3-6.9-6.9zm0 169.3c0-3.8 3.1-6.9 6.9-6.9 3.9 0 6.9 3.1 6.9 6.9 0 3.8-3.1 6.9-6.9 6.9s-6.9-3.1-6.9-6.9zm-68.5.1c0-2.5 1.9-4.4 4.2-4.4s4.3 1.9 4.3 4.3-2 4.3-4.3 4.3c-2.4 0-4.3-1.9-4.2-4.2zM-15 1076.5h79v-50h83.2v1.2l-82 .1.1 50h-81.5"/><path class="st3" d="M147.3 1023.8c1.8 0 3.3 1.5 3.3 3.3 0 1.8-1.5 3.3-3.3 3.3s-3.3-1.4-3.3-3.3c0-1.8 1.4-3.3 3.3-3.3zm-82.3.1c1.8 0 3.3 1.4 3.3 3.2 0 1.9-1.5 3.4-3.3 3.4-1.9 0-3.3-1.5-3.3-3.4 0-1.8 1.4-3.2 3.3-3.2zm.1 49.9c1.8 0 3.3 1.5 3.3 3.3 0 1.8-1.5 3.3-3.3 3.3-1.9 0-3.3-1.5-3.3-3.3 0-1.8 1.3-3.3 3.3-3.3zm-73-406.9v3.6m.4-141.1v1.8m98.1 615.6v-27.9l-111.2-.1v-1.8l113 .1v29.7zM-59.2 873.7h84.7v2.7h-82m227.6 408.3v9.8H89.6v-2.7h78.9v-9.8h26.9v2.7zm-32.6-522.4V830h-2.6v-70.5h15l.1-52.8-52.8.1V704h55.4v58.3z"/><path class="st4" d="M352 1231.3h35.8v35.8H352z"/><path class="st5" d="M32.1 505.3H-3.8v-35.9l35.9.1zm125.8 618.6h35.8v35.8h-35.8z"/><path class="st6" d="M151.4 914.8h35.8v35.8h-35.8z"/><path class="st7" d="M-20.4 814.3h35.8v35.8h-35.8z"/><path class="st3" d="M77.9 1452.1c-.1 9.7-7.8 17.5-17.5 17.5s-17.5-7.9-17.5-17.5 7.9-17.5 17.5-17.5c9.7 0 17.5 7.8 17.5 17.5zm-2.3 0c0-8.3-6.8-15.1-15.1-15.1-8.4 0-15.2 6.8-15.2 15.1-.1 8.3 6.7 15.1 15.1 15.1 8.3 0 15.1-6.8 15.2-15.1zm244.2-148c-.1 9.7-7.8 17.5-17.5 17.5s-17.5-7.9-17.5-17.5c0-9.7 7.9-17.5 17.5-17.5s17.4 7.8 17.5 17.5zm-2.3 0c0-8.3-6.8-15.1-15.1-15.1-8.4 0-15.2 6.8-15.2 15.1s6.7 15.1 15.1 15.1c8.3 0 15.1-6.8 15.2-15.1zm-32.5-81.3c-.1 9.7-7.9 17.5-17.5 17.5-9.7-.1-17.5-7.9-17.5-17.5 0-9.7 7.9-17.5 17.5-17.5 9.7-.1 17.5 7.7 17.5 17.5zm-2.3-.1c0-8.3-6.8-15.1-15.1-15.1-8.4 0-15.2 6.8-15.2 15.1s6.8 15.1 15.1 15.1c8.4.1 15.1-6.7 15.2-15.1zm-68.9 1.8c-.1 9.7-7.9 17.5-17.5 17.5s-17.5-7.9-17.5-17.5c0-9.7 7.9-17.5 17.5-17.5 9.7-.1 17.5 7.8 17.5 17.5zm-2.4-.1c0-8.3-6.8-15.1-15.1-15.1s-15.1 6.8-15.1 15.1 6.7 15.1 15.1 15.1c8.3 0 15.1-6.7 15.1-15.1zm-149.3 99.2c0 6.9-5.5 12.4-12.4 12.4-6.8 0-12.4-5.6-12.4-12.4 0-6.9 5.6-12.4 12.4-12.4 6.9 0 12.4 5.5 12.4 12.4zm-1.6 0c0-5.9-4.9-10.8-10.7-10.8-6 .1-10.8 4.9-10.8 10.8-.1 5.9 4.8 10.7 10.7 10.7s10.7-4.8 10.8-10.7zm148.4 46c0 9.6-7.8 17.4-17.4 17.4-9.7 0-17.5-7.8-17.5-17.4 0-9.7 7.8-17.5 17.5-17.5 9.6 0 17.5 7.9 17.4 17.5zm-2.3-.1c0-8.3-6.8-15.1-15.1-15.1-8.4 0-15.2 6.8-15.2 15.1.1 8.4 6.8 15.2 15.2 15.2 8.3 0 15.1-6.8 15.1-15.2zM82.5 1077c-.1 9.7-7.9 17.5-17.5 17.5-9.7-.1-17.5-7.9-17.5-17.5 0-9.7 7.9-17.5 17.5-17.5s17.4 7.8 17.5 17.5zm-2.4 0c0-8.3-6.8-15.1-15.1-15.1-8.4 0-15.2 6.8-15.2 15.1s6.8 15.1 15.1 15.1c8.4 0 15.2-6.8 15.2-15.1zm11.5-243.4c0 9.6-7.8 17.4-17.4 17.4-9.7 0-17.5-7.7-17.5-17.4s7.8-17.5 17.5-17.5c9.6 0 17.4 7.8 17.4 17.5zm-2.3 0c0-8.4-6.8-15.2-15.1-15.2-8.4 0-15.2 6.8-15.2 15.2 0 8.3 6.8 15.1 15.2 15.1 8.3 0 15-6.8 15.1-15.1zM66.1 704.8c0 9.6-7.7 17.4-17.4 17.4s-17.5-7.8-17.5-17.4c0-9.7 7.8-17.5 17.5-17.5s17.4 7.8 17.4 17.5zm-2.3 0c0-8.4-6.8-15.2-15.1-15.2-8.4 0-15.2 6.8-15.2 15.2 0 8.3 6.8 15.1 15.2 15.1 8.3 0 15.1-6.8 15.1-15.1zM-8.5 517c9.6 0 17.4 7.9 17.4 17.5s-7.8 17.4-17.4 17.4m0-2.3c8.3 0 15.1-6.8 15.2-15.2 0-8.3-6.8-15.1-15.1-15.1m86.8-64.4c0 9.6-7.8 17.4-17.4 17.4s-17.5-7.8-17.5-17.4c0-9.7 7.8-17.5 17.5-17.5 9.6-.1 17.4 7.8 17.4 17.5zm-2.3 0c0-8.4-6.8-15.2-15.1-15.2-8.4 0-15.1 6.7-15.1 15.1 0 8.3 6.8 15.1 15.1 15.1s15.1-6.7 15.1-15zm85.4 998.3c0 9.7-7.8 17.5-17.5 17.5-9.7-.1-17.5-7.8-17.5-17.5s7.9-17.5 17.5-17.5c9.7 0 17.5 7.9 17.5 17.5zm-2.4 0c0-8.3-6.8-15.1-15.1-15.1-8.3-.1-15.1 6.7-15.1 15.1 0 8.3 6.8 15.1 15.2 15.1 8.3 0 15.1-6.8 15-15.1zm187.1-305.9c.1 9.6-7.7 17.4-17.4 17.4-9.6.1-17.5-7.8-17.5-17.4s7.9-17.5 17.5-17.5c9.7 0 17.5 7.8 17.4 17.5zm-2.2-.1c0-8.3-6.8-15.1-15.1-15.1-8.4 0-15.2 6.8-15.2 15.2-.1 8.3 6.7 15.1 15.1 15.1 8.3 0 15.1-6.8 15.2-15.2zm-235.1-.8c0 9.6-7.8 17.4-17.4 17.4-9.7 0-17.5-7.7-17.5-17.4s7.9-17.5 17.5-17.5c9.7 0 17.4 7.9 17.4 17.5zm-2.4 0c0-8.3-6.8-15.1-15.1-15.1-8.3-.1-15.1 6.7-15.1 15.1 0 8.3 6.8 15.1 15.2 15.1 8.3 0 15.1-6.8 15-15.1z"/><g class="st2"><path class="st3" d="M696.4 1524.7v-260.2l-113.9-.1v-99.5l4.1.1v95.4l113.8.1v268.3"/><path class="st3" d="M584.5 1157.4c4.9 0 8.8 4 8.8 8.8 0 4.9-3.9 8.8-8.8 8.8-4.8 0-8.8-3.9-8.8-8.8 0-4.8 4-8.8 8.8-8.8zm113.9 92.9c6 0 10.8 4.9 10.8 10.9s-4.8 10.9-10.8 10.9-10.9-4.9-10.9-10.9c0-6.1 4.9-10.9 10.9-10.9zm-112.4 4.1c3.7 0 6.7 3 6.7 6.7s-3 6.8-6.7 6.8c-3.9 0-6.8-3.1-6.8-6.8 0-3.7 3-6.8 6.8-6.7zm87.3 208H403l-.1-4.1h274.5"/><path class="st3" d="M413.9 1460.3c0 6-4.8 10.8-10.9 10.8-6 0-10.8-4.8-10.8-10.7 0-6 4.9-10.9 10.9-10.9 5.9 0 10.7 4.8 10.8 10.8zm270.9 0c0 5.9-4.8 10.8-10.8 10.8s-10.9-4.9-10.9-10.8c0-6.1 4.8-10.9 10.9-10.9 6.1 0 10.8 4.9 10.8 10.9zm447.2-213.4v4l-95.6.1v113.8H768.2v-164.7H497.8v-4l274.5-.1v164.7h260.1v-113.8z"/><path class="st3" d="M508.7 1198.1c0 6-4.9 10.8-10.9 10.8-5.9-.1-10.8-4.9-10.8-10.8 0-6 4.9-10.8 10.8-10.8 6 0 10.9 4.8 10.9 10.8zm270.9 0c0 6-4.8 10.8-10.8 10.8-5.9 0-10.8-4.8-10.8-10.8s4.9-10.8 10.9-10.8 10.7 4.8 10.7 10.8zm359.8 50.9c0 4.8-3.9 8.8-8.8 8.8s-8.8-4-8.8-8.8c0-4.9 3.9-8.9 8.8-8.9s8.8 4 8.8 8.9zm-359.8 113.7c0 6-4.8 10.8-10.8 10.8-5.9 0-10.9-4.9-10.8-10.8 0-6 4.9-10.8 10.8-10.8 6.1 0 10.8 4.8 10.8 10.8zm267 0c0 6-4.9 10.8-10.8 10.8-6 0-10.9-4.9-10.9-10.9s4.8-10.8 10.9-10.8c5.9.1 10.8 4.9 10.8 10.9zm-4.1-112.4c0 3.7-2.9 6.8-6.7 6.8-3.7 0-6.8-3.1-6.7-6.8 0-3.8 3-6.8 6.8-6.8 3.7 0 6.6 3 6.6 6.8zm26.5 181.6l-270.4-.1v-4h274.5"/><path class="st3" d="M809.5 1429.8c0 6-4.9 10.9-10.9 10.8-5.9 0-10.8-4.9-10.8-10.8 0-6 4.9-10.9 10.8-10.9 6 .1 10.9 5 10.9 10.9zm271 0c0 6-4.9 10.8-10.9 10.8s-10.9-4.9-10.8-10.8c0-6 4.9-10.9 10.9-10.9 6 .1 10.8 4.9 10.8 10.9zm-57.7-33.7v-1.8h43.2v-51.5h121.1v74.4h122.1v1.9h-123.9v-74.4h-117.5v51.4z"/><path class="st3" d="M1304.4 1418.1c0-2.8 2.2-4.9 4.9-4.9s5 2.1 5 4.9c0 2.7-2.3 4.9-5 4.9s-4.9-2.1-4.9-4.9zm-122.4 0c0-2.8 2.1-4.9 4.9-4.9 2.7 0 4.9 2.1 4.9 4.9 0 2.7-2.2 4.9-4.9 4.9-2.8 0-4.9-2.1-4.9-4.9zm-162.5-22.9c0-2.2 1.8-4 3.9-4s3.9 1.8 3.9 4-1.8 4-3.9 4-3.9-1.8-3.9-4zm162.5-51.4c0-2.7 2.1-4.9 4.9-4.9 2.7 0 4.9 2.2 4.9 4.9 0 2.8-2.2 4.9-4.9 4.9-2.8-.1-4.9-2.2-4.9-4.9zm-120.7 0c0-2.7 2.2-4.9 4.9-4.9s4.9 2.2 4.9 4.9c0 2.8-2.2 4.9-4.9 4.9-2.6-.1-4.9-2.2-4.9-4.9zm1.9 50.7c0-1.6 1.4-3 3-3 1.8 0 3.1 1.3 3.1 3s-1.4 3.1-3.1 3.1c-1.6 0-2.9-1.4-3-3.1zm122.9 115.9l.1-71.1h2.8v68.2"/><path class="st3" d="M1187.6 1434c3.4 0 6.3 2.8 6.3 6.3 0 3.4-2.9 6.2-6.3 6.2-3.5 0-6.3-2.8-6.4-6.2.1-3.5 2.9-6.3 6.4-6.3zM497 1384.3h-81.2v-71h3v68.1H500"/><path class="st3" d="M417.3 1308c3.4 0 6.3 2.8 6.3 6.3 0 3.4-2.8 6.3-6.3 6.3-3.4 0-6.3-2.8-6.3-6.3s2.8-6.3 6.3-6.3zm81.2 66.2c4.3 0 7.8 3.4 7.8 7.7 0 4.3-3.4 7.7-7.7 7.7s-7.8-3.4-7.8-7.8c-.1-4.1 3.4-7.6 7.7-7.6zm-80.3 3c2.7 0 4.9 2.1 4.9 4.8s-2.2 4.9-4.9 4.9c-2.5 0-4.8-2.1-4.7-4.9-.1-2.7 2.1-4.9 4.7-4.8zm90.7-10.7l-.1-1.1h25.5v-30.3h71.6v43.9l72.1.1v1h-73.2v-43.9h-69.3l-.1 30.4z"/><path class="st3" d="M675.1 1379.5c0-1.5 1.3-2.9 2.8-2.8 1.6 0 2.9 1.3 2.9 2.8 0 1.6-1.3 2.9-2.9 2.9-1.5 0-2.8-1.2-2.8-2.9zm-72.2 0c0-1.5 1.2-2.8 2.8-2.8 1.5 0 2.8 1.3 2.9 2.9 0 1.6-1.3 2.9-2.9 2.9-1.5-.1-2.8-1.4-2.8-3zM507 1366c0-1.2 1-2.3 2.3-2.3 1.2 0 2.3 1.1 2.3 2.3 0 1.3-1.1 2.4-2.3 2.3-1.3 0-2.4-1-2.3-2.3zm95.9-30.3c0-1.6 1.3-2.8 2.8-2.8s2.8 1.2 2.8 2.8c0 1.6-1.3 2.8-2.8 2.8-1.5 0-2.8-1.3-2.8-2.8zm-71.3 0c0-1.6 1.3-2.8 3-2.9 1.5 0 2.9 1.2 2.9 2.9 0 1.6-1.3 2.8-2.9 2.9-1.7-.1-3-1.3-3-2.9zm1.2 30c0-1 .7-1.8 1.8-1.8.9 0 1.8.8 1.8 1.8s-.9 1.8-1.8 1.8c-1.1 0-1.8-.9-1.8-1.8zM480 1211.9h1.4v32.5h38.9v91.7H464v92.3h-1.3v-93.7h56.1v-88.8H480z"/><path class="st3" d="M463.4 1424.7c2.1 0 3.7 1.6 3.7 3.7 0 2-1.6 3.7-3.7 3.7-2 0-3.7-1.7-3.7-3.7-.1-2.1 1.6-3.7 3.7-3.7zm0-92.6c2.1 0 3.7 1.7 3.7 3.7 0 2.1-1.6 3.7-3.7 3.7s-3.7-1.6-3.7-3.7c0-2 1.6-3.7 3.7-3.7zm17.2-122.8c1.8 0 3 1.3 3 3 0 1.6-1.3 3.1-3 3-1.6 0-3-1.4-3-3.1.1-1.5 1.4-2.9 3-2.9zm39 122.8c2 0 3.7 1.7 3.7 3.7 0 2.1-1.7 3.7-3.7 3.7s-3.7-1.6-3.7-3.7c-.1-2 1.6-3.7 3.7-3.7zm0-91.1c2 0 3.7 1.6 3.7 3.7 0 2-1.7 3.7-3.7 3.6-2 0-3.7-1.6-3.7-3.6-.1-2 1.7-3.7 3.7-3.7zm-38.4 1.4c1.2 0 2.2 1 2.2 2.3 0 1.2-1 2.3-2.2 2.3-1.3 0-2.4-1-2.3-2.3 0-1.3.9-2.2 2.3-2.3zm287.7 118.8l-.1 3.1H726v-107.1h-26.9v-3H729v107zm28.2 127.7v-59l3.1-.1v56M417.3 1313v1.9H364v144.4h39v2h-41v-148.4zm355.9-147.7v32.8h-2v-30.8H584.5v-2zm415.5 274v3h-30.4v-10.9h-88.6v-3.2h91.5v11.1z"/></g><path class="st3" d="M654.3 1327.2H553.1v-88.6h3.6v84.9h101.2"/><path class="st3" d="M554.9 1232c4.3 0 7.9 3.5 7.8 7.8 0 4.3-3.4 7.8-7.8 7.8-4.3 0-7.8-3.5-7.8-7.8 0-4.2 3.5-7.8 7.8-7.8zm101.2 82.5c5.3 0 9.6 4.3 9.7 9.7 0 5.3-4.4 9.6-9.7 9.7-5.3 0-9.6-4.4-9.7-9.7.1-5.4 4.4-9.7 9.7-9.7zm-99.9 3.6c3.3 0 5.9 2.7 5.9 6.1 0 3.3-2.7 6-6 6s-6-2.8-6-6c.1-3.4 2.7-6 6.1-6.1z"/><path class="st3" d="M1041.4 1311.5v3.6h-84.9v101.2H718.1v-146.4H477.9v-3.6h243.9v146.3l231.2.1-.1-101.2z"/><path class="st3" d="M487.6 1268.1c0 5.3-4.3 9.7-9.6 9.6-5.3 0-9.7-4.3-9.6-9.6 0-5.3 4.3-9.6 9.6-9.6 5.2 0 9.6 4.3 9.6 9.6zm240.8 0c0 5.4-4.3 9.7-9.7 9.7-5.2 0-9.7-4.3-9.6-9.6 0-5.3 4.3-9.6 9.7-9.6 5.2-.1 9.6 4.2 9.6 9.5zm319.7 45.2c0 4.3-3.5 7.8-7.8 7.8s-7.8-3.6-7.9-7.9c0-4.3 3.5-7.8 7.8-7.8 4.4 0 7.9 3.6 7.9 7.9zm-319.8 101.1c0 5.4-4.3 9.6-9.6 9.6s-9.6-4.3-9.6-9.6 4.3-9.6 9.7-9.6c5.2 0 9.6 4.3 9.5 9.6zm237.3 0c0 5.3-4.3 9.7-9.6 9.6-5.3 0-9.7-4.3-9.7-9.7 0-5.2 4.3-9.6 9.6-9.6 5.3.1 9.7 4.4 9.7 9.7zm-3.7-99.9c0 3.3-2.7 6-6 6s-6-2.8-6-6c0-3.4 2.7-6 6-6 3.4 0 6.1 2.7 6 6z"/><path class="st3" d="M944.5 1444.1l-.1-1.6h38.4v-45.7h107.7v66.1H1199l-.1 1.6h-110l-.1-66.1H984.4v45.7z"/><path class="st3" d="M1194.6 1463.7c0-2.5 2-4.3 4.3-4.3 2.5 0 4.4 1.9 4.4 4.3 0 2.5-2 4.3-4.4 4.3-2.3 0-4.3-1.9-4.3-4.3zm-108.7 0c0-2.4 1.9-4.4 4.3-4.3 2.3 0 4.3 1.9 4.3 4.3s-2 4.3-4.3 4.3c-2.4 0-4.2-1.9-4.3-4.3zm-144.5-20.4c0-1.9 1.6-3.6 3.6-3.6 1.9 0 3.5 1.6 3.6 3.6 0 1.9-1.6 3.6-3.5 3.5-2.1 0-3.7-1.6-3.7-3.5zm144.5-45.7c0-2.4 1.9-4.4 4.3-4.3 2.3 0 4.3 1.9 4.3 4.3s-2 4.3-4.3 4.3c-2.4 0-4.3-1.9-4.3-4.3zm-107.2 0c0-2.4 1.9-4.3 4.3-4.3 2.5 0 4.4 2 4.3 4.3 0 2.5-1.9 4.3-4.3 4.3s-4.3-1.9-4.3-4.3zm1.6 45.1c0-1.5 1.3-2.6 2.7-2.7 1.5 0 2.8 1.2 2.8 2.7s-1.3 2.7-2.8 2.8c-1.4 0-2.7-1.3-2.7-2.8zm-503.1-9.1H405v-63.1h2.6v60.6h72.1"/><path class="st3" d="M406.3 1365.8c3.1 0 5.6 2.5 5.6 5.6s-2.5 5.5-5.6 5.5-5.6-2.5-5.6-5.5c0-3.1 2.5-5.6 5.6-5.6zm72.2 58.8c3.8 0 6.9 3.1 6.9 6.8 0 3.8-3.1 6.9-6.9 6.9-3.8 0-6.9-3.1-6.9-6.9 0-3.7 3-6.8 6.9-6.8zm-71.4 2.7c2.4 0 4.3 1.9 4.3 4.2 0 2.5-1.9 4.4-4.3 4.3-2.3 0-4.2-1.9-4.2-4.3 0-2.3 1.9-4.2 4.2-4.2zm80.6-9.5v-.9h22.6l.1-27h63.5v39l64.1.1v.9h-65l-.1-39-61.6-.1v27z"/><path class="st3" d="M635.5 1429.4c0-1.4 1.1-2.5 2.5-2.5s2.5 1.1 2.5 2.5c0 1.5-1.1 2.6-2.5 2.6-1.4-.1-2.6-1.2-2.5-2.6zm-64.2 0c0-1.4 1-2.5 2.5-2.5 1.3 0 2.5 1.2 2.5 2.5 0 1.5-1.1 2.6-2.5 2.6-1.5-.1-2.6-1.2-2.5-2.6zm-85.3-12.1c0-1.1.9-2.1 2-2.1 1.2 0 2.1.9 2.1 2.1 0 1.2-.9 2.1-2.1 2.1-1.1 0-2-.9-2-2.1zm85.2-26.9c0-1.5 1-2.5 2.5-2.5 1.4 0 2.5 1.1 2.5 2.5s-1.2 2.5-2.5 2.5c-1.4 0-2.5-1.1-2.5-2.5zm-63.3-.1c0-1.4 1.2-2.5 2.7-2.5 1.3 0 2.5 1.1 2.5 2.5 0 1.5-1.2 2.5-2.5 2.5-1.5.1-2.7-1-2.7-2.5zm1 26.7c0-.9.7-1.6 1.6-1.6s1.6.7 1.6 1.6-.7 1.6-1.6 1.6c-.9.1-1.6-.7-1.6-1.6zM462 1280.3h1.3v29h34.5v81.4l-49.9.1-.1 82h-1.1v-83.2l49.9-.1v-78.9H462z"/><path class="st3" d="M447.2 1387.2c1.8 0 3.3 1.5 3.3 3.3 0 1.9-1.5 3.3-3.3 3.3-1.8 0-3.3-1.4-3.3-3.3 0-1.8 1.5-3.3 3.3-3.3zm15.5-109.2c1.5 0 2.7 1.2 2.7 2.7s-1.2 2.7-2.7 2.7-2.7-1.2-2.7-2.7c0-1.4 1.2-2.6 2.7-2.7zm34.5 109.3c1.8 0 3.3 1.5 3.3 3.3 0 1.8-1.5 3.3-3.3 3.3s-3.3-1.4-3.3-3.3 1.5-3.3 3.3-3.3z"/><circle class="st3" cx="497.2" cy="1309.5" r="3.3"/><path class="st3" d="M463.1 1307.5c1 0 2 .8 2 2s-.9 2.1-2 2.1c-1.2 0-2.1-.9-2.1-2.1-.1-1.1.9-1.9 2.1-2zm255.6 105.6v2.7h-38v-95.2l-23.9.1-.1-2.7h26.6v95.1zm-312.4-42.9v1.8H359v128.2h34.6v1.8h-36.4v-131.8zM722.6 1239v29.1h-1.8v-27.3l-165.9-.1v-1.8z"/><path class="st4" d="M698.6 1252.1h35.8v35.8h-35.8z"/><path class="st6" d="M844.4 1395.1h35.8v35.8h-35.8zm-301.7-88.2h35.8v35.8h-35.8z"/><path class="st7" d="M390 1353.7h35.8v35.8H390z"/><path class="st3" d="M780.6 1429.7c-9.7 0-17.5-7.8-17.5-17.4 0-9.7 7.8-17.5 17.5-17.5 9.6 0 17.4 7.8 17.4 17.5 0 9.6-7.8 17.4-17.4 17.4zm0-32.5c-8.4 0-15.1 6.7-15.1 15.1 0 8.4 6.7 15.1 15.1 15.1s15.1-6.8 15.1-15.1c0-8.4-6.8-15.1-15.1-15.1zm-124.9-55.9c-9.6 0-17.5-7.8-17.5-17.5 0-9.6 7.9-17.5 17.5-17.5 9.7 0 17.4 7.8 17.5 17.5-.1 9.7-7.9 17.5-17.5 17.5zm0-32.5c-8.4 0-15.2 6.8-15.2 15.1 0 8.4 6.8 15.1 15.1 15.1s15.1-6.8 15.1-15.1c.1-8.4-6.7-15.1-15-15.1zm-177.2-23.4c-9.6 0-17.5-7.8-17.5-17.5 0-9.6 7.9-17.5 17.5-17.5 9.7 0 17.4 7.8 17.5 17.5 0 9.7-7.8 17.5-17.5 17.5zm0-32.6c-8.3 0-15.1 6.8-15.1 15.1s6.8 15.1 15.2 15.1c8.3 0 15.1-6.8 15.1-15.1-.1-8.3-6.8-15.1-15.2-15.1zm76.1 5.2c-9.6 0-17.5-7.8-17.5-17.5 0-9.6 7.9-17.5 17.5-17.4 9.6 0 17.4 7.8 17.4 17.4 0 9.7-7.8 17.5-17.4 17.5zm0-32.5c-8.4 0-15.2 6.8-15.2 15.1 0 8.4 6.8 15.1 15.2 15.1 8.3 0 15.1-6.8 15-15.1.1-8.4-6.7-15.1-15-15.1zm402.2 107.1c-9.6 0-17.5-7.9-17.5-17.5s7.8-17.5 17.5-17.5 17.4 7.8 17.5 17.5c0 9.7-7.8 17.5-17.5 17.5zm0-32.6c-8.4 0-15.2 6.8-15.1 15.1 0 8.3 6.8 15.1 15.2 15.1 8.3 0 15.1-6.8 15.1-15.1-.1-8.3-6.9-15.1-15.2-15.1zm241.9 180.6c-9.6 0-17.5-7.8-17.5-17.5 0-9.6 7.8-17.5 17.5-17.5s17.4 7.8 17.5 17.5c-.1 9.7-7.9 17.5-17.5 17.5zm0-32.6c-8.4 0-15.1 6.8-15.1 15.1s6.8 15.1 15.2 15.1c8.3 0 15.1-6.8 15.1-15.1-.1-8.3-6.9-15.1-15.2-15.1zm-252.6 8c-6.8 0-12.4-5.5-12.4-12.4 0-6.8 5.6-12.4 12.4-12.4 6.9 0 12.4 5.5 12.4 12.4s-5.5 12.4-12.4 12.4zm0-23.1c-5.9 0-10.8 4.8-10.7 10.7 0 5.9 4.8 10.7 10.8 10.8 5.8 0 10.7-4.9 10.7-10.8-.1-5.9-4.9-10.7-10.8-10.7zm-372.9 9.5c-6.9 0-12.4-5.5-12.4-12.3 0-6.8 5.5-12.4 12.4-12.4 6.8 0 12.3 5.6 12.3 12.4 0 6.8-5.5 12.4-12.3 12.3zm0-23.1c-6 0-10.8 4.8-10.8 10.8 0 5.9 4.8 10.7 10.7 10.7s10.7-4.8 10.7-10.7c.1-5.9-4.7-10.7-10.6-10.8zm514.7-4.2c-9.7 0-17.5-7.8-17.5-17.5 0-9.6 7.8-17.4 17.5-17.4 9.6 0 17.4 7.8 17.4 17.4.1 9.6-7.8 17.5-17.4 17.5zm0-32.6c-8.4 0-15.1 6.8-15.2 15.2 0 8.3 6.8 15.1 15.2 15.1 8.3 0 15.1-6.8 15.1-15.1 0-8.4-6.8-15.2-15.1-15.2zm-610.6 66.3c-9.6 0-17.5-7.8-17.5-17.5 0-9.6 7.9-17.5 17.5-17.4 9.6 0 17.5 7.8 17.4 17.4.1 9.7-7.7 17.5-17.4 17.5zm0-32.5c-8.4 0-15.2 6.8-15.2 15.1 0 8.4 6.8 15.1 15.2 15.2 8.3 0 15.1-6.8 15.1-15.2s-6.7-15.1-15.1-15.1zm563.1-84.8c-9.6 0-17.5-7.8-17.5-17.5s7.8-17.4 17.5-17.5c9.7 0 17.5 7.8 17.5 17.5 0 9.6-7.8 17.5-17.5 17.5zm.1-32.6c-8.4 0-15.2 6.8-15.2 15.1 0 8.4 6.8 15.2 15.1 15.1 8.3 0 15.1-6.8 15.1-15.1.1-8.3-6.7-15.1-15-15.1zM728 1474.2c0-9.7 7.9-17.5 17.5-17.4 9.7-.1 17.5 7.7 17.4 17.4m-2.3 0c0-8.3-6.8-15.1-15-15.1-8.4 0-15.2 6.8-15.2 15.1"/><g class="st2"><path class="st3" d="M2602.4 967c-5.9 0-10.8-4.8-10.8-10.8s4.9-10.9 10.8-10.9c6 0 10.9 4.9 10.9 10.9 0 5.9-4.9 10.8-10.9 10.8zm-76.5 558.9v-268.3h164.6l.1-270.3h3.9l.1 274.4h-164.7v260.2"/><path class="st3" d="M2527.9 1269.2c-6.1 0-10.8-4.9-10.8-10.8 0-6 4.8-10.9 10.8-10.9 5.9 0 10.9 4.9 10.9 10.9 0 5.9-5 10.8-10.9 10.8zM2406.6 1133V864.7h164.6V594.4l4.2-.1v274.4h-164.7v260.2h113.8l.1 99.6h-4.2V1133z"/><path class="st3" d="M2573.3 605.2c-5.9 0-10.8-4.9-10.8-10.9s4.9-10.8 10.8-10.8c6 0 10.8 4.8 10.8 10.8 0 6-4.8 10.9-10.8 10.9zm0 271c-5.9 0-10.7-4.8-10.7-10.8 0-5.9 4.8-10.9 10.7-10.9 6 0 10.9 4.9 10.9 10.9s-4.9 10.8-10.9 10.8zm-50.8 359.8c-4.9 0-8.9-3.9-8.9-8.9 0-4.8 4-8.7 8.9-8.7 4.8 0 8.7 3.9 8.7 8.7.1 4.9-3.9 8.9-8.7 8.9zm-113.9-359.8c-6 0-10.7-4.8-10.7-10.9 0-5.9 4.8-10.8 10.7-10.8 6 0 10.9 4.9 10.9 10.8 0 6.1-4.8 10.9-10.9 10.9zm0 266.9c-6 0-10.7-4.8-10.8-10.8 0-5.9 4.8-10.9 10.8-10.9s10.9 5 10.9 10.9c0 6-4.8 10.9-10.9 10.8zm112.6-4c-3.7 0-6.8-3.1-6.8-6.8 0-3.7 3-6.8 6.8-6.8 3.7 0 6.8 3 6.8 6.8-.1 3.7-3.1 6.8-6.8 6.8zm-332-723.6l-.1-4h95.6V297.6l268.2.1v164.6h270.4v4h-274.4V301.7h-260.2l.1 113.8z"/><path class="st3" d="M2541.4 464.3c0-6 4.8-10.9 10.9-10.9 6 0 10.8 4.9 10.8 10.8 0 6-4.8 10.9-10.8 10.9-6 0-10.9-4.9-10.9-10.8zm-359.7-50.8c0-4.9 4-8.9 8.8-8.9 4.9 0 8.8 4 8.8 8.9 0 4.7-3.9 8.8-8.8 8.8-4.8.1-8.8-4.1-8.8-8.8zm359.7-113.8c0-6 4.8-10.8 10.9-10.9 6.1 0 10.8 4.9 10.8 10.9s-4.7 10.9-10.8 10.9c-6.1-.1-10.9-5-10.9-10.9zm-267 0c0-6 4.9-10.9 10.9-10.9 6.1 0 10.8 4.9 10.8 10.9 0 5.9-4.8 10.8-10.8 10.8-5.9 0-10.8-4.9-10.9-10.8zm4.2 112.4c0-3.7 3-6.8 6.7-6.8 3.8 0 6.8 3.1 6.8 6.8 0 3.8-3 6.8-6.8 6.8-3.7-.1-6.7-3-6.7-6.8zm-89.5 865.2v-4.1h95.6v-113.8H2553V1324h270.3l.1 4.1h-274.5v-164.6h-260.1v113.8z"/><path class="st3" d="M2541.5 1326c0-5.9 4.8-10.7 10.8-10.8 6 0 10.9 4.9 10.9 10.8 0 6.1-4.8 10.9-10.9 10.9s-10.8-4.8-10.8-10.9zm-359.8-50.7c0-4.9 4-8.9 8.8-8.9 4.9 0 8.8 3.9 8.8 8.8s-3.9 8.8-8.8 8.8c-4.8.1-8.8-3.9-8.8-8.7zm359.8-113.9c0-5.9 4.7-10.8 10.8-10.8s10.9 4.9 10.9 10.8c0 6.1-4.8 10.9-10.9 10.9-6 0-10.8-4.9-10.8-10.9zm-267 0c0-5.9 4.9-10.8 10.8-10.8 6.1 0 10.9 4.9 10.9 10.8 0 6.1-4.8 10.9-10.9 10.9-5.9-.1-10.8-4.9-10.8-10.9zm4.1 112.5c0-3.8 3-6.8 6.7-6.8 3.9 0 6.8 3 6.8 6.8 0 3.7-3 6.7-6.8 6.7-3.7.1-6.7-2.9-6.7-6.7zm-270.4-319.8l.1-4.1h95.5V836.2h268.4l-.1 164.7h270.2v4.1H2368V840.3h-260.1v113.8z"/><path class="st3" d="M2360.6 1006c0-6 4.9-10.9 10.9-10.8 6 0 10.8 4.8 10.8 10.8s-4.9 10.8-10.8 10.8c-6.1 0-11-4.9-10.9-10.8zm-359.8-54c0-4.9 3.9-8.8 8.8-8.8s8.9 3.9 8.9 8.8-4 8.9-8.9 8.9-8.8-3.9-8.8-8.9zm359.7-113.7c0-6 4.9-10.9 10.9-10.9 5.9 0 10.8 4.9 10.8 10.9 0 5.9-4.9 10.8-10.8 10.8-6 0-10.9-4.9-10.9-10.8zm-266.8 0c0-6 4.8-10.9 10.8-10.9s10.9 4.9 10.9 10.9c0 5.9-4.9 10.8-10.9 10.8-6.1 0-10.8-4.9-10.8-10.8zm4 112.4c0-3.7 3-6.8 6.7-6.7 3.7 0 6.8 3 6.8 6.8 0 3.7-3.1 6.7-6.7 6.7-3.7 0-6.8-3.1-6.8-6.8zm92.2 470.9h268.2v164.7h270.4v4H2454v-164.6h-260.1"/><path class="st3" d="M2446.7 1423.6c0-6 4.8-10.8 10.8-10.8 5.9 0 10.9 4.9 10.8 10.8 0 6-4.9 10.8-10.8 10.8-6.1.1-10.8-4.8-10.8-10.8zm-267 0c0-6 4.9-10.8 10.8-10.8 6 0 10.9 4.9 10.9 10.9s-4.8 10.8-10.9 10.8c-5.9 0-10.8-4.9-10.8-10.9zm-386.2-115.8v-4.1h95.5v-113.8h268.4v164.6h270.3v4.1h-274.5l.1-164.6h-260.2v113.8z"/><path class="st3" d="M2416.8 1356.6c0-6 4.9-10.9 10.9-10.8 5.9 0 10.8 4.9 10.8 10.8 0 6-4.9 10.9-10.8 10.9-6-.1-10.9-5-10.9-10.9zm-271 0c0-6 4.9-10.8 10.9-10.8s10.9 4.9 10.8 10.8c0 6-4.9 10.9-10.9 10.9-6-.1-10.8-5-10.8-10.9zm-359.7-50.8c0-4.9 4-8.8 8.7-8.8 4.9 0 8.9 3.9 8.9 8.8 0 4.8-4 8.8-8.9 8.8-4.8 0-8.7-4-8.7-8.8zm359.7-113.9c0-6 4.9-10.8 10.9-10.8s10.8 4.9 10.8 10.8c0 6-4.9 10.9-10.9 10.9s-10.8-4.9-10.8-10.9zm-267 0c0-5.9 4.9-10.8 10.9-10.8s10.9 4.9 10.9 10.8c0 6-4.9 10.9-10.9 10.9s-10.9-4.9-10.9-10.9zm4.1 112.5c0-3.8 3.1-6.8 6.7-6.8 3.8 0 6.9 3 6.9 6.9 0 3.8-3 6.7-6.9 6.7-3.6 0-6.6-3-6.7-6.8zm222.2-284.3v-1.7h43.1l.1-51.5h121.2v74.3h122.1v2l-124-.1v-74.3h-117.5v51.3z"/><path class="st3" d="M2386.6 1042.2c0-2.7 2.2-4.9 5-4.8 2.7 0 4.9 2.1 4.9 4.9 0 2.7-2.2 4.8-4.9 4.9-2.8-.1-5-2.2-5-5zm-122.3 0c0-2.7 2.1-4.9 4.9-4.9 2.7 0 4.8 2.1 4.9 4.9 0 2.8-2.2 4.9-4.9 4.9-2.9 0-5-2.1-4.9-4.9zm-162.6-22.9c0-2.2 1.8-4 4-4s3.9 1.8 3.9 4-1.7 4-3.9 4c-2.1-.1-4-1.9-4-4zm162.5-51.5c0-2.7 2.1-4.9 4.9-4.9 2.7 0 4.8 2.2 4.8 4.9s-2.2 4.9-4.9 4.9c-2.6 0-4.8-2.2-4.8-4.9zm-120.6 0c0-2.7 2.3-4.9 4.9-4.9 2.7 0 4.9 2.2 4.9 4.9s-2.2 4.9-4.9 4.9c-2.6 0-4.9-2.2-4.9-4.9zm1.9 50.8c0-1.7 1.4-3 3-3 1.7 0 3.1 1.3 3.1 3s-1.4 3.1-3.1 3.1c-1.7 0-3-1.4-3-3.1zm58 371.7v1.8h-43.2v51.4h-121.1v-74.3h-122.1l-.1-1.9h123.9l.1 74.3h117.5v-51.3z"/><path class="st3" d="M1921.9 1368.2c0 2.8-2.2 4.9-4.9 4.9s-5-2.1-5-4.9c0-2.7 2.3-4.9 5-4.9 2.7.1 4.9 2.2 4.9 4.9zm122.4 0c0 2.8-2.1 4.9-4.9 4.9-2.7 0-4.9-2.1-4.9-4.9 0-2.7 2.2-4.9 4.9-4.9 2.8.1 4.9 2.2 4.9 4.9zm162.5 23c0 2.2-1.8 4-3.9 4-2.2 0-3.9-1.8-3.9-4s1.8-4 3.9-4 3.9 1.8 3.9 4zm-162.5 51.4c0 2.7-2.1 4.9-4.9 4.9-2.7 0-4.9-2.2-4.9-4.9 0-2.8 2.2-4.9 4.9-4.9 2.8.1 4.9 2.1 4.9 4.9zm120.7 0c0 2.7-2.2 4.9-4.9 4.9s-4.9-2.2-4.9-4.9c0-2.8 2.2-4.9 4.9-4.9 2.6.1 4.9 2.2 4.9 4.9zm-1.9-50.8c0 1.6-1.4 3-3 3-1.8 0-3.1-1.3-3.1-3s1.4-3.1 3.1-3.1c1.6.1 2.9 1.4 3 3.1zm464.2-819H2436l-.1-117.5-192.7.1v-3h195.7v117.5h185.5"/><path class="st3" d="M2250.9 453.9c0 4.2-3.5 7.7-7.7 7.7-4.3 0-7.8-3.6-7.8-7.8 0-4.3 3.4-7.7 7.7-7.7 4.3.1 7.8 3.5 7.8 7.8zm193.3 0c0 4.2-3.5 7.8-7.8 7.8-4.2 0-7.7-3.6-7.7-7.8 0-4.3 3.4-7.7 7.7-7.7s7.8 3.4 7.8 7.7zm0 117.5c0 4.3-3.4 7.7-7.7 7.7s-7.7-3.4-7.7-7.7c0-4.3 3.4-7.8 7.7-7.8 4.2 0 7.7 3.5 7.7 7.8zm-213 383.3h-2.9v-68.1h-81.2V695.2h117.5V502.4h2.9v195.8h-117.4l-.1 185.5h81.2z"/><path class="st3" d="M2267 508.6c-4.2 0-7.7-3.4-7.7-7.7 0-4.3 3.5-7.8 7.7-7.8 4.3 0 7.8 3.5 7.7 7.8 0 4.3-3.4 7.7-7.7 7.7zm-1 194.8c-4.3 0-7.7-3.4-7.7-7.7 0-4.3 3.4-7.7 7.8-7.8 4.2 0 7.6 3.4 7.7 7.8-.1 4.3-3.5 7.7-7.8 7.7zm-36.2 256.7c-3.5 0-6.4-2.8-6.4-6.3 0-3.4 2.9-6.3 6.4-6.3 3.4 0 6.1 2.8 6.1 6.3 0 3.4-2.7 6.3-6.1 6.3zm-81.2-256.7c-4.2 0-7.7-3.4-7.7-7.7 0-4.3 3.5-7.8 7.7-7.7 4.2 0 7.8 3.4 7.7 7.7 0 4.3-3.5 7.7-7.7 7.7zm0 190.5c-4.3 0-7.7-3.4-7.8-7.8 0-4.3 3.5-7.7 7.8-7.8 4.2 0 7.8 3.5 7.8 7.8-.1 4.4-3.6 7.8-7.8 7.8zm80.2-2.9c-2.7 0-4.8-2.1-4.8-4.8s2.1-4.9 4.8-4.8c2.7 0 4.9 2.1 4.9 4.8-.1 2.6-2.2 4.8-4.9 4.8zm-188.7 456.1h-2.8v-68.2H1956l.1-191.4h117.5l-.1-192.8 2.9-.1v195.8h-117.5V1276l81.3-.1z"/><path class="st3" d="M2074.9 902.4c-4.2 0-7.7-3.5-7.8-7.8 0-4.3 3.5-7.7 7.8-7.8 4.3 0 7.8 3.5 7.8 7.8-.1 4.3-3.4 7.8-7.8 7.8zm0 193.3c-4.2 0-7.7-3.4-7.7-7.7 0-4.2 3.5-7.8 7.7-7.7 4.3 0 7.7 3.4 7.7 7.7.1 4.2-3.3 7.7-7.7 7.7zm-36.2 256.7c-3.5 0-6.3-2.8-6.3-6.3 0-3.4 2.9-6.3 6.3-6.3 3.5 0 6.3 2.8 6.3 6.3s-2.8 6.3-6.3 6.3zm-81.2-256.7c-4.3 0-7.7-3.4-7.7-7.7 0-4.3 3.4-7.8 7.8-7.8 4.2 0 7.7 3.5 7.7 7.7-.1 4.4-3.5 7.8-7.8 7.8zm0 190.4c-4.3 0-7.7-3.4-7.8-7.7 0-4.3 3.4-7.8 7.8-7.8 4.2 0 7.8 3.5 7.8 7.8-.1 4.3-3.5 7.8-7.8 7.7zm80.2-2.9c-2.7 0-4.9-2.2-4.9-4.8 0-2.7 2.2-4.9 4.9-4.9 2.6 0 4.8 2.2 4.8 4.9s-2.1 4.8-4.8 4.8zm480.6-763.9h-1.3v-28.9h-34.6v-81.7h50v-82.1h1.2v83.5l-49.9-.1v79.1h34.6z"/><path class="st3" d="M2533.1 329.9c-1.9 0-3.3-1.5-3.3-3.4 0-1.7 1.4-3.3 3.3-3.3 1.8 0 3.3 1.6 3.3 3.3 0 1.9-1.5 3.4-3.3 3.4zm0 82.4c-1.9 0-3.3-1.6-3.3-3.4s1.4-3.2 3.3-3.2c1.8 0 3.3 1.5 3.3 3.2 0 1.9-1.5 3.4-3.3 3.4zm-15.5 109.3c-1.5 0-2.7-1.2-2.7-2.6 0-1.4 1.3-2.6 2.7-2.7 1.5 0 2.7 1.2 2.7 2.7 0 1.4-1.2 2.6-2.7 2.6zm-34.5-109.3c-1.9 0-3.3-1.6-3.3-3.4s1.4-3.2 3.3-3.2 3.3 1.4 3.3 3.2c0 1.8-1.5 3.4-3.3 3.4zm-.1 81.2c-1.8 0-3.3-1.5-3.3-3.3s1.4-3.4 3.3-3.4c1.8 0 3.2 1.6 3.2 3.4.1 1.8-1.3 3.3-3.2 3.3zm34.2-1.4c-1.1 0-2.1-.8-2-2 0-1.1.9-2 2-2 1.2 0 2.2.8 2.2 2-.1 1.3-1 2-2.2 2zM2454.7 857h-1.3v-29h-34.5l-.1-81.7h50.1v-82.1h1.3v83.4l-50 .1v79h34.5z"/><path class="st3" d="M2469.5 667.5c-1.8 0-3.3-1.5-3.3-3.3s1.5-3.4 3.3-3.4c1.9 0 3.3 1.6 3.3 3.4s-1.3 3.4-3.3 3.3zm.1 82.4c-1.8 0-3.3-1.5-3.3-3.3s1.5-3.3 3.3-3.3c1.9 0 3.3 1.5 3.3 3.3-.1 1.8-1.4 3.3-3.3 3.3zm-15.4 109.4c-1.5 0-2.7-1.2-2.7-2.7s1.2-2.7 2.7-2.7c1.4 0 2.6 1.2 2.6 2.7-.1 1.5-1.2 2.7-2.6 2.7zm-34.7-109.4c-1.9 0-3.3-1.5-3.3-3.3s1.4-3.3 3.3-3.4c1.8 0 3.2 1.6 3.2 3.4.1 1.8-1.3 3.3-3.2 3.3zm0 81.2c-1.9 0-3.3-1.6-3.3-3.4 0-1.7 1.4-3.3 3.3-3.3 1.8 0 3.2 1.6 3.2 3.3.1 1.8-1.3 3.4-3.2 3.4zm34.2-1.3c-1.1 0-2.1-.9-2.1-2.1 0-1.2 1-2 2.1-2.1 1.1 0 2.1.9 2.1 2.1 0 1.2-1 2.1-2.1 2.1zm172.1 385.8h-39.6v-93.2l57.3-.1v-93.9h1.4v95.3h-57.4l.1 90.5h39.6"/><path class="st3" d="M2586.9 1126.3c-2.1 0-3.8-1.6-3.8-3.8 0-2.1 1.7-3.7 3.8-3.7 2 0 3.7 1.6 3.7 3.7 0 2.2-1.7 3.9-3.7 3.8zm0 92.9c-2.1 0-3.8-1.7-3.8-3.7 0-2.1 1.7-3.8 3.8-3.8 2 0 3.7 1.7 3.7 3.9 0 1.8-1.6 3.6-3.7 3.6zm-302.4-615.5v-1.5h32.6v-38.8l91.7-.1-.1 56.2h92.3v1.4l-93.7.1v-56.3h-88.8v39z"/><path class="st3" d="M2497.3 620.2c0-2 1.7-3.7 3.7-3.7 1.9 0 3.7 1.7 3.7 3.7s-1.7 3.7-3.7 3.7-3.7-1.7-3.7-3.7zm-92.5 0c0-2 1.6-3.6 3.6-3.6 2.1 0 3.7 1.6 3.7 3.7s-1.7 3.7-3.7 3.7c-1.9-.1-3.6-1.7-3.6-3.8zm-122.9-17.3c0-1.6 1.4-3.1 3-3.1 1.7 0 3.1 1.4 3.1 3.1 0 1.6-1.4 3-3.1 2.9-1.6.1-3-1.2-3-2.9zm122.9-38.8c0-2 1.6-3.7 3.7-3.7 2 0 3.7 1.6 3.7 3.6 0 2.1-1.7 3.7-3.7 3.7s-3.7-1.6-3.7-3.6zm-91.2-.1c0-2 1.7-3.6 3.7-3.6s3.7 1.6 3.7 3.6c0 2.1-1.6 3.7-3.7 3.7-2 0-3.7-1.6-3.7-3.7zm1.4 38.5c0-1.3 1-2.4 2.2-2.4 1.3 0 2.4 1.1 2.4 2.4s-1 2.3-2.3 2.3c-1.2-.1-2.3-1-2.3-2.3zm-6.6 471.4l.1 1.4h-32.7v38.9h-91.6l-.1-56.2h-92.3l.1-1.4h93.6v56.2h88.9v-38.9z"/><path class="st3" d="M2095.6 1057.2c0 2.1-1.7 3.7-3.7 3.7-1.9 0-3.7-1.6-3.7-3.7 0-2 1.7-3.6 3.7-3.6s3.7 1.6 3.7 3.6zm92.4 0c0 2.1-1.6 3.7-3.7 3.7-2 0-3.7-1.7-3.7-3.8 0-2 1.7-3.6 3.7-3.6 2.2.1 3.8 1.6 3.7 3.7zm122.9 17.4c0 1.6-1.3 3-3 3-1.6 0-3-1.3-3-3s1.4-3 3-3c1.7.1 3.1 1.3 3 3zm-122.8 38.9c0 2-1.6 3.7-3.7 3.7-2 0-3.7-1.6-3.7-3.7s1.7-3.7 3.7-3.7c2.1 0 3.6 1.6 3.7 3.7zm91.2 0c0 2-1.7 3.6-3.7 3.6-2.1 0-3.7-1.6-3.7-3.7s1.5-3.7 3.7-3.7c2 .1 3.7 1.7 3.7 3.8zm-1.5-38.4c0 1.3-1 2.3-2.2 2.3-1.3 0-2.4-1-2.4-2.2 0-1.3 1-2.3 2.4-2.4 1.2-.1 2.2 1 2.2 2.3zm342.6 332.2h-72.1v-1h73.2"/><path class="st3" d="M2551.2 1406.9c0 1.5-1.3 2.9-2.8 2.8-1.6 0-2.9-1.3-2.9-2.8 0-1.6 1.3-2.9 2.9-2.9 1.5-.1 2.8 1.2 2.8 2.9zm72.2 0c0 1.5-1.2 2.8-2.8 2.8-1.5 0-2.8-1.3-2.9-2.9 0-1.6 1.3-2.9 2.9-2.9 1.5.1 2.8 1.3 2.8 3zm-28.9-561.1c0 1.6-1.2 2.9-2.9 2.9-1.6 0-2.9-1.3-2.9-2.8 0-1.6 1.3-3 2.9-3 1.7 0 2.9 1.3 2.9 2.9zm-80.1 396.2l-.1 1.3h-32.6l.1 38.9h-91.7V1226h-92.3v-1.4h93.8v56.2h88.8V1242z"/><path class="st3" d="M2301.5 1225.3c0 2-1.6 3.7-3.7 3.7-2 0-3.7-1.7-3.7-3.7 0-2.1 1.7-3.7 3.7-3.7 2.1 0 3.7 1.7 3.7 3.7zm92.6 0c0 2-1.6 3.6-3.7 3.6-2 0-3.7-1.6-3.7-3.7s1.7-3.7 3.7-3.7c2 .1 3.7 1.7 3.7 3.8zm122.8 17.4c0 1.5-1.4 3-3.1 2.9-1.6 0-3-1.4-3-3s1.3-3 3-3c1.7.1 3.1 1.4 3.1 3.1zm-122.8 38.8c0 2-1.6 3.7-3.7 3.6-2 0-3.7-1.7-3.6-3.6 0-2.1 1.6-3.8 3.6-3.7 2 0 3.7 1.6 3.7 3.7zm91.1 0c0 2-1.6 3.7-3.7 3.7s-3.7-1.6-3.7-3.7 1.6-3.8 3.7-3.8c2.1.1 3.7 1.7 3.7 3.8zm-1.3-38.4c0 1.3-1.1 2.4-2.3 2.4-1.3 0-2.3-1.1-2.3-2.4 0-1.2 1-2.2 2.3-2.2 1.2-.1 2.3.9 2.3 2.2zM2805 706.7v113.9h-268.3V656h-270.3v-4.1h274.4v164.7h260.1V702.7"/><path class="st3" d="M2277.3 653.9c0 6-4.9 10.9-10.9 10.9-5.9 0-10.8-4.9-10.8-10.9 0-5.9 4.9-10.9 10.8-10.9 5.9.1 10.9 5 10.9 10.9zm270.9 0c0 6-4.8 10.9-10.8 10.9s-10.9-4.9-10.8-10.8c0-6 4.9-10.9 10.9-10.9 5.9 0 10.7 4.9 10.7 10.8zm0 164.7c0 6-4.8 10.9-10.7 10.8-6 0-10.9-4.9-10.9-10.9 0-5.9 4.9-10.9 10.8-10.8 6 0 10.8 5 10.8 10.9zm-282.1-319.4v-2H2394l41.8-44 1.5 1.4-42.4 44.6zm-112.5 692.7v-33.5h127.1v2.1l-125-.1v31.5zM2266 697.5l.1-3.1h106.8v143.9h-3l-.1-140.8zm191.5 727.7v-3.1h42.8v107l26.9.1v3h-29.9v-107zm-174.3-124.6V1274h2.9l.1 23.4h143v59.1l-3.1.1v-56zm-54.5-413v-3h95.5v121.5l47.3.1v2.9h-50.4V887.6zm77 211.5v-24.5h2.1v22.5h83.8v-54.9h2v56.9zM2552.3 300v-2.1l32.8.1v119.2h182v2h-183.9V300zm265.2 163h2.1m-247.3 495.5v-93.1l2-.1v91.2h28.1v2zM2037.6 1347v-3h30.4v11h88.6v3.1l-91.5.1v-11.1zm47.1-587.8v-65.5h62.4v3l-59.4.1v59.3h16.9v79.4h-3v-76.3z"/></g><path class="st3" d="M2669.6 1462.8h-101.2v-238.4h146.3V984.1h3.6V1228H2572v231.2h101.2"/><path class="st3" d="M2570.2 1234.6c-5.3 0-9.6-4.3-9.6-9.6s4.3-9.7 9.6-9.6c5.3 0 9.7 4.3 9.6 9.6.1 5.3-4.3 9.6-9.6 9.6zm0 237.3c-5.3 0-9.6-4.3-9.7-9.7 0-5.3 4.4-9.6 9.7-9.7 5.3 0 9.6 4.4 9.7 9.7-.1 5.4-4.4 9.6-9.7 9.7zm-107.8-358.3l.1-238.4h146.3l-.1-240.3h3.7v243.9h-146.3l-.1 231.2h101.2v88.5h-3.7v-84.9z"/><path class="st3" d="M2610.6 885.4c-5.3 0-9.7-4.3-9.6-9.6 0-5.3 4.3-9.6 9.6-9.6s9.6 4.3 9.6 9.6-4.3 9.6-9.6 9.6zm-45.2 319.8c-4.3 0-7.9-3.5-7.9-7.9 0-4.3 3.5-7.8 7.9-7.8 4.2 0 7.7 3.5 7.7 7.8.1 4.3-3.4 7.8-7.7 7.9zm-101.1-319.8c-5.4 0-9.7-4.3-9.6-9.6 0-5.3 4.2-9.6 9.6-9.6 5.3 0 9.6 4.3 9.6 9.6s-4.4 9.6-9.6 9.6zm-.1 237.3c-5.4 0-9.6-4.3-9.6-9.6s4.3-9.7 9.7-9.7c5.3 0 9.6 4.3 9.6 9.6s-4.4 9.7-9.7 9.7zm100-3.6c-3.3 0-6.1-2.8-6-6 0-3.4 2.8-6.1 6-6.1 3.4 0 6.1 2.7 6.1 6.1-.1 3.2-2.8 6-6.1 6zm24.6-598V374.8h-231.1V476h-88.6v-3.6h85l-.1-101.2h238.4v146.3"/><path class="st3" d="M2582.2 519.3c0-5.3 4.3-9.6 9.7-9.7 5.3 0 9.6 4.4 9.6 9.6 0 5.3-4.3 9.7-9.7 9.7-5.3.1-9.6-4.2-9.6-9.6zm-319.7-45.1c0-4.3 3.5-7.9 7.8-7.8 4.3 0 7.8 3.5 7.8 7.8 0 4.2-3.5 7.8-7.8 7.8s-7.7-3.6-7.8-7.8zM2582.2 373c0-5.3 4.3-9.6 9.7-9.7 5.3 0 9.6 4.4 9.6 9.6 0 5.3-4.3 9.7-9.7 9.7-5.3.1-9.6-4.2-9.6-9.6zm-237.2 0c0-5.3 4.3-9.7 9.6-9.6 5.4 0 9.6 4.3 9.6 9.6s-4.2 9.6-9.6 9.6c-5.3.1-9.6-4.2-9.6-9.6zm3.7 99.9c0-3.3 2.7-6 6-6 3.4 0 6 2.7 6 6 0 3.4-2.7 6-6 6-3.4.1-6-2.6-6-6zm240.1 814.1v-146.3h-231.1v101.1h-88.6v-3.6h85v-101.1h238.3l.1 146.3"/><path class="st3" d="M2582.3 1285.2c0-5.3 4.2-9.5 9.6-9.6 5.3 0 9.7 4.3 9.6 9.6 0 5.4-4.3 9.7-9.6 9.6-5.4 0-9.6-4.3-9.6-9.6zm-319.8-45.2c0-4.3 3.5-7.8 7.8-7.8s7.9 3.5 7.9 7.9c0 4.3-3.5 7.8-7.8 7.8s-7.9-3.5-7.9-7.9zm319.8-101.1c0-5.3 4.2-9.6 9.6-9.6 5.3 0 9.7 4.3 9.6 9.6 0 5.4-4.3 9.7-9.6 9.6-5.4 0-9.6-4.3-9.6-9.6zm-237.4 0c0-5.4 4.4-9.7 9.7-9.7 5.4 0 9.7 4.3 9.7 9.7s-4.2 9.6-9.7 9.7c-5.3-.1-9.6-4.4-9.7-9.7zm3.8 100c0-3.4 2.6-6.1 5.9-6.1 3.4 0 6 2.7 6 6s-2.6 6-6 6c-3.3.1-5.9-2.6-5.9-5.9zm-240.3-284.2v-3.6h84.9l-.1-101.2 238.5-.1v146.4h240.2v3.6h-243.8V853.4l-231.3.1.1 101.2z"/><path class="st3" d="M2421.5 1000.7c0-5.3 4.3-9.7 9.6-9.6 5.3 0 9.7 4.3 9.6 9.6 0 5.3-4.3 9.6-9.6 9.6-5.3.1-9.6-4.3-9.6-9.6zm-319.8-47.8c0-4.3 3.5-7.8 7.8-7.8s7.8 3.5 7.8 7.8-3.5 7.8-7.8 7.8-7.8-3.5-7.8-7.8zm319.8-101.3c0-5.2 4.3-9.6 9.6-9.6s9.7 4.3 9.7 9.7c0 5.3-4.4 9.6-9.6 9.6-5.4 0-9.7-4.3-9.7-9.7zm-237.3.1c0-5.3 4.3-9.7 9.7-9.7 5.3 0 9.6 4.4 9.6 9.6 0 5.3-4.3 9.7-9.7 9.7-5.2 0-9.5-4.3-9.6-9.6zm3.6 99.9c0-3.3 2.8-6 6.1-6s6 2.7 6 6-2.7 6-6 6c-3.3.1-6.1-2.6-6.1-6zm82 519.6v-101.1h238.4v146.3h240.2v3.6h-243.9v-146.3h-231.1v101.1"/><path class="st3" d="M2498 1371.9c0-5.4 4.3-9.6 9.6-9.6s9.6 4.3 9.6 9.6-4.3 9.6-9.7 9.6c-5.2 0-9.6-4.3-9.5-9.6zm-237.3 0c0-5.3 4.3-9.7 9.6-9.6 5.3 0 9.7 4.3 9.7 9.7 0 5.2-4.3 9.6-9.6 9.6-5.3-.1-9.7-4.3-9.7-9.7zM1917.5 1269v-3.7l85 .1-.1-101.2h238.4v146.3h240.3v3.6h-243.9v-146.3H2006l.1 101.2z"/><path class="st3" d="M2471.5 1312.3c0-5.3 4.3-9.7 9.7-9.7 5.3 0 9.6 4.3 9.6 9.6s-4.3 9.7-9.7 9.7c-5.3 0-9.6-4.3-9.6-9.6zm-240.8 0c0-5.2 4.2-9.6 9.6-9.6 5.3 0 9.7 4.3 9.7 9.7 0 5.3-4.4 9.6-9.6 9.6-5.5-.1-9.7-4.4-9.7-9.7zm-319.8-45.1c0-4.3 3.5-7.8 7.8-7.8s7.8 3.5 7.8 7.8-3.5 7.8-7.8 7.8-7.8-3.5-7.8-7.8zm319.7-101.2c.1-5.3 4.3-9.7 9.7-9.7 5.3 0 9.7 4.3 9.7 9.7 0 5.2-4.3 9.6-9.7 9.7-5.4 0-9.6-4.4-9.7-9.7zm-237.3 0c0-5.3 4.4-9.6 9.6-9.6 5.4 0 9.7 4.3 9.7 9.7 0 5.3-4.2 9.6-9.6 9.6-5.3-.1-9.7-4.4-9.7-9.7zm3.7 99.9c0-3.3 2.7-6 6-6 3.4 0 6 2.7 6 6 0 3.4-2.7 6-6.1 6-3.2.1-5.9-2.6-5.9-6zm197.4-252.6v-1.5l38.4-.1V966h107.7v66.1H2449v1.7h-110.2v-66.1l-104.4-.1v45.7z"/><path class="st3" d="M2444.7 1032.9c0-2.4 1.9-4.3 4.3-4.3s4.3 1.9 4.3 4.3-1.9 4.3-4.3 4.3c-2.5.1-4.4-1.8-4.3-4.3zm-108.8 0c0-2.4 1.9-4.3 4.3-4.3 2.5 0 4.4 1.9 4.3 4.3 0 2.5-1.9 4.3-4.3 4.3-2.5.1-4.4-1.8-4.3-4.3zm-144.4-20.3c0-2 1.5-3.6 3.5-3.6 1.9 0 3.5 1.6 3.5 3.5 0 2-1.6 3.6-3.5 3.6s-3.5-1.6-3.5-3.5zm144.4-45.8c0-2.4 1.9-4.3 4.3-4.3s4.3 1.9 4.3 4.3-1.9 4.3-4.3 4.3c-2.5.1-4.4-1.8-4.3-4.3zm-107.3.1c0-2.4 2.1-4.4 4.3-4.3 2.4 0 4.5 1.9 4.5 4.3s-2 4.3-4.5 4.4c-2.2-.1-4.3-2-4.3-4.4zm1.7 45.1c0-1.5 1.2-2.7 2.7-2.7s2.7 1.2 2.7 2.7-1.2 2.7-2.7 2.7-2.7-1.2-2.7-2.7zm51.5 330.3l.1 1.6h-38.4v45.7h-107.7v-66.1h-108.5v-1.6l110.1-.1.1 66.1h104.4v-45.7z"/><path class="st3" d="M2031.7 1322.7c0 2.5-2 4.3-4.3 4.3-2.5 0-4.5-1.9-4.4-4.3 0-2.4 2-4.3 4.4-4.3 2.3-.1 4.3 1.9 4.3 4.3zm108.7 0c0 2.4-1.9 4.4-4.3 4.3-2.3 0-4.3-1.9-4.3-4.3s2-4.3 4.3-4.3c2.4 0 4.3 1.9 4.3 4.3zm144.5 20.4c0 1.9-1.6 3.6-3.6 3.6-1.9 0-3.5-1.6-3.6-3.6 0-1.9 1.6-3.6 3.5-3.5 2.1-.1 3.7 1.5 3.7 3.5zm-144.5 45.7c0 2.4-1.9 4.4-4.3 4.3-2.3 0-4.3-2-4.3-4.3 0-2.4 2-4.3 4.3-4.3 2.4 0 4.3 1.9 4.3 4.3zm107.2 0c0 2.4-1.9 4.3-4.3 4.3-2.5 0-4.4-2-4.3-4.3 0-2.5 1.9-4.3 4.3-4.3 2.4-.1 4.3 1.8 4.3 4.3zm-1.6-45.1c0 1.5-1.3 2.6-2.7 2.7-1.5 0-2.8-1.2-2.8-2.7s1.3-2.7 2.8-2.8c1.4 0 2.7 1.2 2.7 2.8zm412.5-727.9h-170V511.4h-171.4v-2.7h174l-.1 104.5h165"/><path class="st3" d="M2324 510.1c0 3.7-3.1 6.9-6.9 6.9-3.8 0-6.9-3.2-6.9-6.9 0-3.8 3.1-6.9 6.9-6.9s6.9 3.1 6.9 6.9zm171.8 0c0 3.7-3.1 6.9-6.9 6.9-3.8 0-6.9-3.2-6.9-6.9 0-3.8 3.1-6.9 6.9-6.9 3.9 0 6.9 3.1 6.9 6.9zm0 104.4c0 3.8-3.1 6.9-6.9 6.9-3.8 0-6.9-3.1-6.9-6.9s3.1-6.9 6.9-6.9c3.9 0 6.9 3.1 6.9 6.9zm-189.3 340.7h-2.5v-60.5h-72.3V724.5l104.5.1V553.2h2.5v174h-104.3v164.9h72.1z"/><path class="st3" d="M2338.3 558.7c-3.7 0-6.9-3.1-6.9-6.9s3.2-6.9 6.9-6.9c3.8 0 6.9 3.1 6.9 6.9 0 3.9-3.1 6.9-6.9 6.9zm-.9 173.1c-3.8 0-6.9-3.1-6.9-6.9s3.1-6.9 6.9-6.9c3.7 0 6.8 3.1 6.9 6.9 0 3.9-3 6.9-6.9 6.9zm-32.2 228.1c-3.1 0-5.6-2.5-5.6-5.5 0-3.1 2.5-5.5 5.6-5.5s5.5 2.5 5.5 5.5c.1 3.1-2.4 5.5-5.5 5.5zm-72.1-228.1c-3.8 0-6.9-3.1-6.9-6.9s3.1-6.9 6.9-6.9c3.7 0 6.8 3.1 6.9 6.9 0 3.9-3.2 7-6.9 6.9zm0 169.3c-3.8 0-6.9-3.1-6.9-6.9 0-3.8 3.1-6.9 6.9-6.9 3.7 0 6.9 3.1 6.9 6.9 0 3.9-3.2 7-6.9 6.9zm71.3-2.6c-2.4 0-4.3-1.9-4.3-4.3s1.9-4.3 4.4-4.3c2.3 0 4.2 1.9 4.2 4.3-.1 2.4-2 4.3-4.3 4.3zm-167.7 405.4h-2.5l-.1-60.6H2062v-170.1h104.3V901.9l2.6-.1v174h-104.3l-.1 164.9h72.2z"/><path class="st3" d="M2167.6 908.7c-3.9 0-6.9-3.1-6.9-6.9 0-3.8 3-6.9 6.9-6.9 3.7 0 6.8 3.1 6.9 6.9 0 3.8-3.1 6.9-6.9 6.9zm0 171.8c-3.8 0-6.9-3.1-6.9-6.9 0-3.8 3.1-6.9 6.9-6.9 3.9 0 6.9 3.1 6.9 6.9 0 3.8-3.1 6.9-6.9 6.9zm-32.2 228.1c-3.1 0-5.6-2.5-5.6-5.6s2.5-5.6 5.6-5.6c3.1 0 5.6 2.5 5.6 5.5 0 3.2-2.5 5.7-5.6 5.7zm-72.1-228.1c-3.9 0-6.9-3-6.9-6.9 0-3.8 3-6.9 6.9-6.9 3.8 0 6.9 3.1 6.9 6.9-.1 3.8-3.1 6.9-6.9 6.9zm0 169.3c-3.8 0-6.9-3.1-6.9-6.9s3-6.9 6.9-6.9c3.8 0 6.9 3.1 6.9 6.9s-3.1 6.9-6.9 6.9zm71.2-2.6c-2.3 0-4.3-1.9-4.3-4.3s2-4.3 4.3-4.3 4.2 1.9 4.2 4.4c.1 2.3-1.8 4.1-4.2 4.2zm427.1-678.9h-1.1v-25.8h-30.8V470h44.5v-73h1.2v74.1h-44.5v70.3h30.7z"/><path class="st3" d="M2574.8 399.9c-1.6 0-2.9-1.3-2.9-3 0-1.6 1.2-3 2.9-3 1.6 0 2.9 1.3 2.9 3s-1.3 3-2.9 3zm0 73.2c-1.6 0-2.9-1.3-2.9-2.9s1.3-2.9 3-2.9c1.6 0 2.8 1.3 2.9 2.9-.1 1.6-1.4 2.9-3 2.9zm-13.7 97.2c-1.3 0-2.5-1-2.5-2.3s1.1-2.3 2.5-2.3c1.3 0 2.3 1 2.3 2.3s-1 2.3-2.3 2.3zm-30.8-97.1c-1.6 0-3-1.4-3-3s1.3-2.9 3-2.9c1.6 0 2.9 1.3 2.9 2.9 0 1.6-1.3 2.9-2.9 3zm0 72.1c-1.6 0-3-1.4-3-3s1.3-3 3-3c1.6 0 2.8 1.4 2.8 3 .1 1.6-1.1 3-2.8 3zm30.3-1.2c-.9 0-1.8-.7-1.8-1.8s.9-1.8 1.8-1.8c1.1 0 1.9.7 1.9 1.8.1 1.1-.8 1.8-1.9 1.8zm-55.5 324.3h-1v-25.8l-30.8-.1V770h44.5v-73h1.1l.1 74.2h-44.5l-.1 70.2h30.7z"/><path class="st3" d="M2518.4 700c-1.7 0-3-1.4-3-3s1.2-3 3-3c1.6 0 2.9 1.4 2.9 3-.1 1.6-1.3 3-2.9 3zm0 73.1c-1.7 0-3-1.3-3-3 0-1.6 1.3-2.9 3-3 1.6 0 2.9 1.4 2.8 3 0 1.7-1.2 3.1-2.8 3zm-13.8 97.3c-1.3 0-2.4-1.1-2.4-2.4 0-1.3 1.1-2.4 2.4-2.4 1.3 0 2.4 1.1 2.3 2.4 0 1.3-1 2.4-2.3 2.4zm-30.7-97.3c-1.7 0-3-1.3-3-3 0-1.6 1.3-2.9 3-3 1.6 0 2.9 1.4 2.8 3 0 1.7-1.2 3.1-2.8 3zm0 72.2c-1.7 0-3-1.4-3-3s1.3-2.9 3-3c1.6 0 2.9 1.4 2.8 3 0 1.6-1.2 3-2.8 3zm30.4-1.1c-1 0-1.9-.8-1.9-1.8s.9-1.8 1.9-1.8c.9 0 1.8.7 1.8 1.8 0 1-.8 1.8-1.8 1.8zm-150.4-201v-1.3h28.9v-34.5h81.4l.1 49.9h82v1.2l-83.3.1v-50.1h-79l.1 34.7z"/><path class="st3" d="M2543 657.9c0-1.8 1.5-3.3 3.3-3.3s3.3 1.5 3.3 3.3-1.5 3.3-3.3 3.3c-1.9 0-3.3-1.5-3.3-3.3zm-82.3 0c0-1.8 1.5-3.3 3.3-3.3s3.3 1.5 3.3 3.3-1.5 3.3-3.3 3.3-3.3-1.5-3.3-3.3zm-109.2-15.4c0-1.5 1.3-2.8 2.7-2.7 1.5 0 2.7 1.3 2.7 2.7 0 1.5-1.2 2.7-2.7 2.7-1.4 0-2.7-1.2-2.7-2.7zm109.2-34.5c0-1.8 1.5-3.3 3.3-3.3s3.3 1.5 3.3 3.3-1.5 3.3-3.3 3.3c-1.8 0-3.3-1.5-3.3-3.3zm-81 0c0-1.8 1.5-3.3 3.3-3.3 1.9 0 3.3 1.5 3.3 3.3s-1.3 3.3-3.3 3.3c-1.8 0-3.3-1.5-3.3-3.3zm1.3 34.1c0-1.2.9-2.1 2-2.1 1.2 0 2.1 1 2.1 2.1 0 1.2-1 2-2.1 2s-2-.8-2-2zm-5.8 419v1.3h-29l-.1 34.5h-81.5l.1-50h-82v-1.2h83.2v50h79v-34.6z"/><path class="st3" d="M2185.9 1046.3c0 1.9-1.5 3.3-3.3 3.3s-3.3-1.5-3.3-3.3c0-1.8 1.5-3.3 3.3-3.3 1.9 0 3.3 1.5 3.3 3.3zm82.3 0c0 1.9-1.4 3.4-3.3 3.4-1.8 0-3.3-1.5-3.3-3.4 0-1.8 1.5-3.2 3.3-3.2 1.9-.1 3.3 1.4 3.3 3.2zm109.2 15.4c0 1.5-1.2 2.7-2.7 2.7s-2.7-1.2-2.7-2.7 1.3-2.6 2.8-2.6c1.4 0 2.6 1.2 2.6 2.6zm-109.3 34.6c0 1.8-1.3 3.3-3.3 3.3-1.8 0-3.3-1.5-3.3-3.3 0-1.8 1.5-3.3 3.3-3.3 2 0 3.4 1.5 3.3 3.3zm81.1 0c0 1.8-1.5 3.3-3.3 3.3s-3.3-1.5-3.3-3.3c0-1.8 1.5-3.3 3.3-3.3s3.3 1.5 3.3 3.3zm-1.3-34.1c0 1.1-.9 2-2 2-1.2 0-2.1-.9-2.1-2 0-1.2 1-2.1 2.1-2.1 1.2 0 2 .9 2 2.1zm304.5 295.3l-64.1-.1v-.9h65"/><path class="st3" d="M2590.8 1357c0 1.4-1.1 2.5-2.5 2.5s-2.5-1.1-2.5-2.5c0-1.5 1.1-2.6 2.5-2.6s2.6 1.1 2.5 2.6zm-32.7-146.6v1.2l-28.9.1v34.5h-81.5v-49.9h-81.9l-.1-1.3h83.3v50h78.9v-34.6z"/><path class="st3" d="M2369 1195.6c0 1.8-1.5 3.3-3.3 3.3s-3.3-1.5-3.3-3.3c0-1.8 1.5-3.3 3.3-3.3 1.9.1 3.3 1.5 3.3 3.3zm82.2.1c0 1.8-1.5 3.3-3.3 3.3s-3.3-1.5-3.3-3.3c0-1.8 1.5-3.3 3.3-3.3s3.3 1.5 3.3 3.3zm109.2 15.4c0 1.5-1.2 2.7-2.7 2.7s-2.7-1.2-2.7-2.7 1.2-2.7 2.7-2.7c1.4 0 2.8 1.2 2.7 2.7zm-109.2 34.5c0 1.8-1.5 3.3-3.3 3.3s-3.3-1.5-3.3-3.3c0-1.9 1.5-3.4 3.3-3.4 1.8.1 3.3 1.6 3.3 3.4zm81.1 0c0 1.8-1.5 3.3-3.3 3.3-1.9 0-3.3-1.5-3.3-3.3 0-1.9 1.4-3.4 3.3-3.4 1.8.1 3.3 1.6 3.3 3.4zm-1.3-34.2c0 1.2-1 2.2-2 2.2-1.2 0-2.1-.9-2.1-2.1 0-1.1 1-2 2.2-2 1-.1 1.9.8 1.9 1.9zm285.4-476.6V836H2578V689.7h-240.2v-3.6h243.8v146.3h231.2V731.2"/><path class="st3" d="M2347.4 687.9c0 5.3-4.3 9.7-9.7 9.7-5.3 0-9.6-4.3-9.6-9.6s4.3-9.7 9.7-9.7c5.3 0 9.6 4.3 9.6 9.6zm240.8 0c0 5.3-4.2 9.6-9.6 9.6-5.4 0-9.6-4.3-9.6-9.6s4.2-9.6 9.6-9.6 9.6 4.3 9.6 9.6zm0 146.3c0 5.3-4.2 9.6-9.6 9.6-5.4 0-9.6-4.3-9.6-9.6s4.2-9.6 9.6-9.6 9.6 4.3 9.6 9.6zm-250.8-283.8v-1.8h113.8l37.1-39.1 1.3 1.3-37.6 39.6zm-99.9 615.6v-29.8h113v1.8h-111.2v28zm99.9-439.4v-2.7h95.1v127.7l-2.8.1V726.5zm170.2 646.7v-2.7h38v95.1h24v2.7H2543v-95.1zm-154.9-110.8v-23.6h2.6v20.8l127.1.1.1 52.5h-2.8v-49.8zm-48.3-366.9v-2.7h84.7v108h42v2.7h-44.7v-108zm68.3 187.9v-21.7l1.8-.1v20h74.5v-48.8h1.8v50.6zm236.9-124.9v-82.8h1.8v81h25v1.8zm-475.1 345.3v-2.7h26.9v9.7l78.9.1v2.7h-81.5l.1-9.8zm41.8-522.5v-58.3l55.4.1v2.7h-52.8l.1 52.8h15v70.5h-2.6v-67.8z"/><path class="st4" d="M1942.1 1250.4h35.8v35.8h-35.8zM2454 670.7h35.8v35.8H2454zm-50.3 451.5h35.8v35.8h-35.8z"/><path class="st5" d="M2297.9 488.6h35.8v35.8h-35.8zm-161.7 654.5h35.8v35.8h-35.8z"/><path class="st6" d="M2142.7 934h35.8v35.8h-35.8zm203.4 421.5h35.8v35.8h-35.8zM2513 861.4h30.7v30.7H2513z"/><path class="st7" d="M2537 981.5h35.8v35.8H2537zm-222.5-148.1h35.8v35.8h-35.8z"/><path class="st3" d="M2445.7 1356.7c9.7 0 17.5 7.8 17.5 17.4 0 9.7-7.8 17.5-17.5 17.5-9.6 0-17.4-7.8-17.4-17.5 0-9.6 7.8-17.5 17.4-17.4zm0 32.5c8.4 0 15.1-6.7 15.1-15.1s-6.7-15.1-15.1-15.1c-8.4 0-15.1 6.8-15.1 15.1s6.8 15.1 15.1 15.1zm124.9 55.9c9.6 0 17.5 7.8 17.5 17.5 0 9.6-7.9 17.5-17.5 17.5-9.7 0-17.4-7.8-17.5-17.5.1-9.7 7.9-17.5 17.5-17.5zm0 32.5c8.3 0 15.2-6.8 15.2-15.1s-6.8-15.1-15.1-15.1-15.1 6.8-15.1 15.1c-.1 8.3 6.7 15.1 15 15.1zm-543-171.8c9.7 0 17.5 7.8 17.5 17.5 0 9.6-7.8 17.5-17.5 17.5s-17.4-7.8-17.5-17.5c.1-9.7 7.8-17.5 17.5-17.5zm0 32.6c8.4 0 15.2-6.8 15.1-15.1 0-8.4-6.7-15.1-15.1-15.1-8.3 0-15.1 6.8-15.1 15.1s6.8 15.1 15.1 15.1zm34.8-114c9.6 0 17.5 7.8 17.5 17.5 0 9.6-7.8 17.4-17.5 17.5-9.6 0-17.4-7.8-17.5-17.5.1-9.7 7.8-17.5 17.5-17.5zm0 32.6c8.3 0 15.1-6.8 15.1-15.1s-6.8-15.1-15.2-15.1c-8.3 0-15.1 6.8-15.1 15.1.1 8.3 6.9 15.1 15.2 15.1zm71.2-30.9c9.6 0 17.5 7.8 17.5 17.5 0 9.6-7.9 17.5-17.5 17.5s-17.4-7.8-17.5-17.5c0-9.7 7.8-17.5 17.5-17.5zm0 32.6c8.4 0 15.1-6.8 15.1-15.1s-6.8-15.1-15.1-15.1-15.1 6.8-15.1 15.1 6.8 15.1 15.1 15.1zm315.2-75.8c6.9 0 12.4 5.5 12.4 12.4 0 6.8-5.6 12.4-12.4 12.4-6.9 0-12.4-5.5-12.4-12.4.1-6.9 5.6-12.4 12.4-12.4zm.1 23.1c5.9 0 10.8-4.8 10.7-10.7 0-5.9-4.8-10.7-10.7-10.7-5.8 0-10.7 4.9-10.7 10.7 0 5.9 4.8 10.7 10.7 10.7zm79.6 27.8c6.9 0 12.4 5.5 12.4 12.4.1 6.8-5.5 12.3-12.4 12.4-6.8 0-12.3-5.6-12.4-12.4.1-6.9 5.6-12.4 12.4-12.4zm0 23c6 0 10.8-4.8 10.7-10.7 0-5.9-4.8-10.7-10.7-10.7s-10.7 4.8-10.7 10.7c0 5.9 4.9 10.7 10.7 10.7zm-248.3 73.6c6.8 0 12.4 5.5 12.4 12.4 0 6.8-5.6 12.4-12.4 12.4-6.9 0-12.4-5.5-12.4-12.4s5.5-12.4 12.4-12.4zm0 23c5.9 0 10.7-4.8 10.7-10.7 0-5.9-4.8-10.7-10.8-10.8-5.8 0-10.7 4.9-10.7 10.8.1 5.9 4.9 10.7 10.8 10.7zm-141.8 17.9c9.7 0 17.5 7.8 17.5 17.5 0 9.6-7.8 17.4-17.5 17.4-9.6 0-17.4-7.8-17.4-17.4-.1-9.7 7.8-17.5 17.4-17.5zm0 32.6c8.4 0 15.2-6.8 15.2-15.2 0-8.3-6.8-15.1-15.2-15.1-8.3 0-15.1 6.8-15.1 15.2 0 8.3 6.8 15.1 15.1 15.1zm202.2-389.7c9.6 0 17.5 7.8 17.5 17.5 0 9.6-7.9 17.5-17.5 17.5s-17.4-7.8-17.4-17.5 7.8-17.5 17.4-17.5zm0 32.6c8.4 0 15.1-6.7 15.2-15.1 0-8.4-6.8-15.1-15.2-15.1-8.3 0-15.1 6.7-15.1 15.1 0 8.4 6.8 15.1 15.1 15.1zm-75.7 31.9c9.6 0 17.5 7.8 17.5 17.5 0 9.6-7.8 17.4-17.5 17.5-9.6 0-17.4-7.8-17.5-17.5.1-9.8 7.9-17.6 17.5-17.5zm.1 32.5c8.3 0 15.1-6.8 15.1-15.1s-6.8-15.1-15.2-15.1c-8.3 0-15.1 6.8-15.1 15.1 0 8.4 6.8 15.2 15.2 15.1zm-9.3-276c9.7 0 17.5 7.8 17.5 17.5s-7.8 17.4-17.5 17.4c-9.6 0-17.4-7.8-17.4-17.4 0-9.6 7.8-17.4 17.4-17.5zm.1 32.6c8.4 0 15.2-6.8 15.2-15.1 0-8.4-6.8-15.2-15.2-15.2-8.3 0-15.1 6.8-15.1 15.2 0 8.3 6.7 15.1 15.1 15.1zm234.7-272.4c9.6 0 17.5 7.9 17.5 17.5 0 9.7-7.9 17.5-17.5 17.4-9.6 0-17.4-7.8-17.4-17.4 0-9.7 7.8-17.5 17.4-17.5zm0 32.6c8.4 0 15.2-6.8 15.2-15.1 0-8.4-6.8-15.1-15.1-15.1-8.4 0-15.1 6.7-15.1 15.1-.1 8.3 6.7 15.1 15 15.1zm-209.3 78.4c9.7 0 17.5 7.8 17.5 17.5 0 9.6-7.8 17.4-17.5 17.4s-17.5-7.8-17.4-17.4c0-9.6 7.7-17.5 17.4-17.5zm0 32.6c8.4 0 15.2-6.8 15.2-15.1 0-8.4-6.8-15.2-15.2-15.2-8.3 0-15.1 6.8-15.1 15.2 0 8.3 6.8 15.1 15.1 15.1zm208.1-246c9.7 0 17.5 7.8 17.5 17.5 0 9.6-7.8 17.4-17.5 17.4-9.6 0-17.4-7.8-17.4-17.4-.1-9.7 7.7-17.6 17.4-17.5zm0 32.6c8.4 0 15.1-6.8 15.1-15.1 0-8.4-6.7-15.1-15.1-15.1-8.3 0-15.1 6.8-15.1 15.2 0 8.2 6.7 15 15.1 15zm-150.9 10.6c9.7 0 17.5 7.8 17.5 17.5 0 9.6-7.8 17.4-17.5 17.4-9.6 0-17.4-7.8-17.4-17.4 0-9.7 7.8-17.5 17.4-17.5zm0 32.5c8.3 0 15.1-6.7 15.1-15.1 0-8.4-6.8-15.2-15.2-15.2-8.3 0-15.1 6.8-15.1 15.1.1 8.5 6.9 15.2 15.2 15.2zm16.1-114.7c9.6 0 17.5 7.8 17.5 17.5s-7.8 17.4-17.5 17.5c-9.7 0-17.5-7.8-17.5-17.5.1-9.7 7.9-17.5 17.5-17.5zm0 32.5c8.4 0 15.2-6.8 15.2-15.1s-6.8-15.1-15.1-15.1-15.1 6.8-15.1 15.1c-.1 8.4 6.7 15.1 15 15.1zm237.6 16.3c9.7 0 17.5 7.8 17.5 17.5 0 9.6-7.8 17.4-17.5 17.4-9.6 0-17.4-7.8-17.4-17.4-.1-9.6 7.7-17.5 17.4-17.5zm0 32.6c8.4 0 15.1-6.8 15.1-15.1 0-8.4-6.7-15.1-15.1-15.1-8.3 0-15.1 6.8-15.1 15.2 0 8.2 6.7 15 15.1 15zm0-180.6c9.7 0 17.5 7.8 17.5 17.5s-7.8 17.4-17.5 17.4c-9.6 0-17.4-7.8-17.4-17.4-.1-9.7 7.7-17.5 17.4-17.5zm0 32.6c8.4 0 15.2-6.8 15.2-15.1 0-8.4-6.8-15.2-15.2-15.2-8.3 0-15.1 6.8-15.1 15.2 0 8.3 6.7 15.1 15.1 15.1zm-237.4-31.5c9.7 0 17.5 7.8 17.5 17.5 0 9.6-7.8 17.4-17.5 17.4-9.6 0-17.4-7.8-17.4-17.4 0-9.7 7.9-17.5 17.4-17.5zm0 32.6c8.4 0 15.2-6.8 15.2-15.1 0-8.4-6.8-15.2-15.2-15.2-8.3 0-15.1 6.8-15.1 15.2.1 8.3 6.8 15.1 15.1 15.1zm-85.8 68c9.7 0 17.5 7.8 17.5 17.5 0 9.6-7.9 17.4-17.5 17.4s-17.4-7.8-17.4-17.4 7.8-17.5 17.4-17.5zm0 32.6c8.4 0 15.1-6.8 15.1-15.1 0-8.4-6.7-15.1-15.1-15.1-8.3 0-15.1 6.8-15.1 15.2 0 8.2 6.8 15 15.1 15zm-267.8 659.8c9.6 0 17.5 7.9 17.5 17.5s-7.9 17.5-17.5 17.4c-9.7 0-17.5-7.8-17.4-17.4-.1-9.6 7.7-17.5 17.4-17.5zm0 32.6c8.4 0 15.2-6.8 15.1-15.1 0-8.4-6.8-15.2-15.2-15.2-8.3 0-15.1 6.8-15.1 15.1.1 8.4 6.9 15.2 15.2 15.2zm237.3-33.4c9.6 0 17.5 7.8 17.5 17.5s-7.8 17.4-17.5 17.4c-9.6 0-17.4-7.8-17.4-17.4 0-9.7 7.7-17.5 17.4-17.5zm0 32.6c8.4 0 15.2-6.8 15.2-15.1 0-8.4-6.8-15.2-15.1-15.1-8.3 0-15.1 6.8-15.1 15.1-.1 8.3 6.7 15.1 15 15.1zm117.8 42.8c9.7 0 17.5 7.8 17.5 17.5 0 9.6-7.8 17.4-17.5 17.4-9.6 0-17.4-7.8-17.4-17.4 0-9.7 7.7-17.5 17.4-17.5zm0 32.6c8.4 0 15.1-6.7 15.2-15.1 0-8.4-6.8-15.1-15.2-15.2-8.4 0-15.1 6.8-15.1 15.2 0 8.4 6.8 15.1 15.1 15.1zm124.6 38.6c9.6 0 17.5 7.9 17.5 17.5 0 9.7-7.9 17.5-17.5 17.4-9.7.1-17.5-7.7-17.4-17.4 0-9.6 7.7-17.5 17.4-17.5zm-.1 32.6c8.4 0 15.2-6.8 15.2-15.1 0-8.4-6.8-15.2-15.1-15.1-8.3 0-15.1 6.8-15.1 15.1s6.8 15.1 15 15.1zm-50.8-344.5c9.7 0 17.5 7.8 17.5 17.5s-7.8 17.4-17.5 17.4c-9.6 0-17.4-7.8-17.4-17.4 0-9.7 7.8-17.4 17.4-17.5zm0 32.6c8.4 0 15.2-6.8 15.2-15.1 0-8.4-6.8-15.2-15.2-15.2-8.3 0-15.1 6.8-15.1 15.2 0 8.3 6.8 15.1 15.1 15.1zm34.8-155.4c9.6 0 17.5 7.8 17.5 17.5 0 9.6-7.8 17.4-17.5 17.5-9.6 0-17.4-7.8-17.5-17.5.1-9.7 7.9-17.6 17.5-17.5zm-.1 32.5c8.4 0 15.2-6.8 15.2-15.1 0-8.4-6.8-15.2-15.1-15.1-8.3 0-15.1 6.8-15.1 15.1-.1 8.3 6.7 15.1 15 15.1z"/><g class="st2"><path class="st3" d="M970.7 1478.7v-95.6l4 .1v99.6"/><path class="st3" d="M981.6 1384.5c0 4.9-4.1 8.8-8.8 8.8-4.9 0-8.9-3.9-8.9-8.8 0-4.8 4-8.8 8.9-8.8 4.7 0 8.8 4 8.8 8.8zm-3.5 94.8c0 3.8-3 6.8-6.8 6.8-3.7 0-6.8-3-6.8-6.8 0-3.7 3.1-6.7 6.8-6.7 3.8 0 6.8 3 6.8 6.7zm740.5-.6h113.8v-95.6h4.2l-.1 99.7h-113.8"/><path class="st3" d="M1843.2 1384.5c0 4.9-3.9 8.8-8.8 8.8s-8.8-3.9-8.8-8.8c0-4.8 4-8.8 8.9-8.8s8.8 4 8.7 8.8zm-111.7 94.8c0 6.1-4.8 10.9-10.9 10.9-5.9 0-10.8-4.8-10.8-10.9 0-5.9 4.9-10.8 10.8-10.8 6.1 0 10.9 4.9 10.9 10.8zm-336.1-181.5h113.9v-95.5l4.1-.1v99.7h-113.9"/><path class="st3" d="M1520.2 1203.5c0 4.9-4 8.9-8.9 8.9s-8.8-4-8.8-8.9 3.9-8.8 8.8-8.8 8.8 4 8.9 8.8zm-111.9 95c0 6-4.9 10.9-10.8 10.9-6 0-10.9-4.9-10.9-10.9s4.9-10.8 10.9-10.8c5.9 0 10.8 4.7 10.8 10.8zm108.5 0c0 3.6-3 6.7-6.7 6.7-3.8 0-6.8-3.1-6.8-6.8-.1-3.7 3-6.7 6.7-6.7s6.7 3.1 6.8 6.8zm464 85.4h113.8l.1-95.6h4v99.6h-113.8"/><path class="st3" d="M2105.5 1289.7c0 4.9-4 8.8-8.9 8.8-4.8 0-8.8-3.9-8.8-8.8s4-8.8 8.8-8.8c4.9 0 8.9 3.9 8.9 8.8zm-111.7 94.8c0 6.1-4.8 10.9-10.8 10.9s-10.9-4.9-10.9-10.9c0-5.9 4.8-10.8 10.8-10.8s10.8 4.9 10.9 10.8zm108.3-.1c0 3.8-3 6.8-6.8 6.8-3.7.1-6.8-3-6.8-6.7 0-3.8 3.1-6.7 6.8-6.7 3.8 0 6.8 2.9 6.8 6.6zm-188.4-33.1h-164.6V1083H1863v-95.5h4l.1 99.6h-113.9v260.2l164.6-.1"/><path class="st3" d="M1926.7 1350.6c0 6-4.9 10.9-10.9 10.9-5.9.1-10.8-4.8-10.8-10.8s4.8-10.9 10.8-10.9 10.8 4.8 10.9 10.8zm-52.9-361.8c0 4.9-4 8.9-8.8 8.9-4.9 0-8.8-4-8.8-8.9 0-4.7 3.9-8.7 8.8-8.7 4.8 0 8.8 3.9 8.8 8.7zM1762 1350.6c0 6-4.9 10.9-10.9 10.9-5.9 0-10.8-4.8-10.8-10.8s4.8-10.9 10.8-10.9 10.9 4.8 10.9 10.8zm-.1-266.9c.1 5.9-4.8 10.8-10.8 10.8-5.9.1-10.8-4.8-10.8-10.8s4.9-10.9 10.8-10.9c6 0 10.9 4.9 10.8 10.9zm108.5-.1c0 3.9-3 6.9-6.7 6.9-3.8-.1-6.9-3.1-6.9-6.9 0-3.6 3-6.7 6.8-6.7 3.8.1 6.8 3.1 6.8 6.7zm-269.9 379.9h-74.3v-121.3h51.4v-43.1h1.8v44.9H1528v117.6h74.4"/><path class="st3" d="M1606.3 1463.2c0 2.7-2.1 4.9-4.9 4.9-2.8-.1-4.9-2.2-4.9-4.9 0-2.8 2.2-4.9 4.9-4.9 2.8-.1 4.9 2 4.9 4.9zm-23.8-163.5c0 2.2-1.8 3.9-4 3.9s-4-1.7-4-3.9 1.8-4 4-4c2.1 0 4 1.9 4 4zM1532 1463c0 2.7-2.2 4.9-4.9 4.9s-4.9-2.1-4.9-4.8c0-2.8 2.2-4.9 4.9-4.9s4.8 2.2 4.9 4.8zm0-120.5c0 2.7-2.2 4.9-4.9 4.9s-4.9-2.2-4.9-4.9c0-2.6 2.2-4.9 4.9-4.9s4.8 2.3 4.9 4.9zm49 0c0 1.8-1.4 3.1-3.1 3.1-1.7 0-3-1.4-3-3.1 0-1.6 1.3-3 3-3s3 1.3 3.1 3zm368.5 10h51.4V1235h-74.4v-123.9h1.9v122.1h74.4v121.1h-51.5v43.2h-1.8z"/><path class="st3" d="M1922.6 1111c0-2.7 2.2-5 4.9-5 2.8 0 4.9 2.3 4.9 5s-2.1 4.9-4.9 4.9c-2.8 0-4.9-2.2-4.9-4.9zm0 122.4c0-2.7 2.2-4.9 4.9-4.9 2.8 0 4.9 2.2 4.9 4.9 0 2.8-2.1 4.9-4.9 4.9-2.8 0-4.9-2.1-4.9-4.9zm23.8 163.5c0-2.1 1.8-3.9 4-3.9s4 1.8 4 3.9-1.8 3.9-4 3.9-4-1.8-4-3.9zm50.5-163.5c0-2.7 2.1-4.9 4.9-4.9 2.7 0 4.9 2.2 4.9 4.9 0 2.8-2.2 4.9-4.9 4.9s-4.8-2.1-4.9-4.9zm0 120.7c0-2.7 2.1-4.9 4.9-4.9 2.7 0 4.9 2.2 4.9 4.9s-2.2 4.9-4.9 4.9-4.8-2.3-4.9-4.9zm-48.9 0c0-1.7 1.4-3.1 3.1-3.1 1.7 0 3 1.3 3 3.1 0 1.6-1.4 3-3 3-1.7-.1-3.1-1.4-3.1-3zm-936.4 83.1h3m-9.2-.1c0-4.3 3.4-7.7 7.7-7.7 4.2 0 7.8 3.5 7.8 7.8 0 4.2-3.5 7.7-7.7 7.7-4.4 0-7.8-3.5-7.8-7.8zm437.5-11.9l.1-81.2h-185.6v117.5h-195.7v-3h192.7v-117.4h191.5v81.2h68.1v2.9z"/><path class="st3" d="M1060.2 1468.7c-4.3.1-7.8-3.4-7.8-7.7 0-4.2 3.5-7.7 7.8-7.7s7.7 3.5 7.7 7.7c0 4.3-3.5 7.7-7.7 7.7zm194.7-.9c-4.4-.1-7.8-3.5-7.8-7.7.1-4.4 3.5-7.8 7.8-7.8s7.7 3.4 7.7 7.7c0 4.3-3.4 7.7-7.7 7.8zm258.1-37.9c-3.5 0-6.3-2.7-6.3-6.1 0-3.5 2.8-6.4 6.3-6.4s6.3 2.9 6.3 6.4c0 3.4-2.8 6.1-6.3 6.1zm-258.1-79.7c-4.3.1-7.7-3.5-7.7-7.7-.1-4.2 3.4-7.7 7.7-7.7 4.3 0 7.7 3.5 7.7 7.7.1 4.3-3.4 7.8-7.7 7.7zm190.4.1c-4.3 0-7.8-3.6-7.8-7.8.1-4.3 3.5-7.8 7.8-7.8 4.4.1 7.8 3.5 7.8 7.8s-3.4 7.8-7.8 7.8zm.1 77.4c-2.7 0-4.8-2.2-4.8-4.9-.1-2.7 2.1-4.8 4.8-4.8 2.7 0 4.8 2.1 4.8 4.8 0 2.7-2.1 4.8-4.8 4.9zm389.8-193.5v-81.3h-185.5v117.5h-195.8v-2.9l192.8.1v-117.5l191.5-.1-.1 81.3h68.2v2.8z"/><path class="st3" d="M1453.9 1276.7c-4.3 0-7.8-3.5-7.8-7.8.1-4.3 3.5-7.8 7.8-7.8 4.3.1 7.8 3.6 7.8 7.8 0 4.4-3.5 7.7-7.8 7.8zm193.3-.1c-4.3 0-7.7-3.4-7.7-7.7-.1-4.2 3.5-7.7 7.7-7.7 4.3 0 7.7 3.5 7.7 7.7 0 4.4-3.4 7.8-7.7 7.7zm258.1-37.5c-3.4-.1-6.2-2.9-6.2-6.4 0-3.4 2.8-6.3 6.2-6.3 3.5 0 6.3 2.9 6.3 6.3 0 3.5-2.8 6.3-6.3 6.4zm-258.2-79.8c-4.2 0-7.7-3.5-7.7-7.7 0-4.4 3.5-7.8 7.8-7.8s7.7 3.4 7.7 7.7c0 4.3-3.4 7.7-7.8 7.8zm190.7 0c-4.3 0-7.8-3.5-7.8-7.8s3.4-7.7 7.7-7.7 7.7 3.4 7.7 7.7c0 4.3-3.5 7.8-7.6 7.8zm-.1 77.2c-2.7 0-4.9-2.2-4.9-4.8 0-2.7 2.2-4.9 4.9-4.9 2.6 0 4.8 2.2 4.8 4.9-.1 2.7-2.2 4.8-4.8 4.8zm-204.6 231.9h38.9v-88.9h-56.2v-93.6l1.4-.1v92.3l56.2.1v91.5l-38.9.1"/><path class="st3" d="M1612.8 1285.9c0-2 1.6-3.7 3.6-3.7 2.1 0 3.7 1.8 3.7 3.7 0 2-1.6 3.7-3.7 3.7-2 0-3.6-1.7-3.6-3.7zm-.1 92.4c0-2 1.6-3.7 3.6-3.7 2.1 0 3.8 1.7 3.8 3.7 0 2.1-1.6 3.7-3.7 3.7-2 .1-3.6-1.5-3.7-3.7zm56.3.1c0-2 1.6-3.7 3.7-3.7 2 0 3.7 1.7 3.7 3.7 0 2.1-1.7 3.7-3.7 3.7-2-.1-3.7-1.6-3.7-3.7zm-466.7 82c0-5.9 5-10.8 10.9-10.8 6 0 10.9 4.9 10.9 10.8 0 6-4.9 10.9-10.9 10.9s-10.9-5-10.9-10.9zm-145.9-.4h2.1m692.6-110.3h-31.4v125h-2.1v-127.1h33.5zM1253.7 1460h3m187.2-37.3h3m459.4-163.6h11.1v91.5h-3.2V1262h-10.9v-30.4h3zm-587.9 36.5h76.3v3h-79.3l-.1-16.9H1256v59.3h-3.1v-62.4h65.5z"/></g><path class="st3" d="M1031.6 1463.1h3.6m6 1.2c0 4.3-3.6 7.8-7.8 7.8-4.3 0-7.8-3.5-7.8-7.8-.1-4.3 3.5-7.8 7.8-7.8 4.3.1 7.9 3.5 7.8 7.8zm756.3-1.2h3.6m-392-75.9l101.2.1v-84.9h3.6v88.5l-101.2-.1"/><path class="st3" d="M1519.9 1303.5c0 4.3-3.5 7.8-7.8 7.8s-7.8-3.5-7.8-7.8 3.5-7.8 7.8-7.8 7.8 3.5 7.8 7.8zm-99.4 84.3c0 5.4-4.4 9.7-9.7 9.7-5.2 0-9.6-4.3-9.6-9.6 0-5.4 4.4-9.7 9.7-9.7 5.3.1 9.6 4.4 9.6 9.6zm96.4.1c0 3.3-2.7 6-6 6s-6-2.7-6-6 2.7-6.1 6-6.1 6 2.8 6 6.1zm412.4 75.9h101.2v-84.9h3.6v88.5l-101.2-.1"/><path class="st3" d="M2040.2 1380.1c0 4.3-3.5 7.8-7.8 7.8-4.3-.1-7.9-3.6-7.9-7.9 0-4.3 3.5-7.8 7.8-7.8s7.9 3.5 7.9 7.9zm-99.3 84.3c0 5.3-4.4 9.6-9.6 9.6-5.4 0-9.7-4.4-9.7-9.7-.1-5.3 4.3-9.6 9.6-9.6s9.6 4.4 9.7 9.7zm96.2 0c0 3.3-2.6 6-6 6-3.2 0-6-2.7-6-6s2.7-6 6-6c3.3-.1 6 2.6 6 6zm-167.4-29.6h-146.3v-238.4l101.2.1v-85h3.6v88.6l-101.2-.1v231.2h146.3"/><path class="st3" d="M1881.2 1434.4c0 5.2-4.3 9.6-9.6 9.6-5.4 0-9.7-4.4-9.7-9.7 0-5.4 4.4-9.6 9.6-9.6 5.3-.1 9.7 4.2 9.7 9.7zm-47-321.7c0 4.3-3.5 7.8-7.8 7.8s-7.8-3.5-7.8-7.8 3.5-7.8 7.8-7.8 7.8 3.5 7.8 7.8zm-99.3 321.6c-.1 5.4-4.5 9.7-9.7 9.7-5.4 0-9.7-4.4-9.7-9.7 0-5.4 4.4-9.6 9.7-9.7 5.3.1 9.7 4.3 9.7 9.7zm0-237.3c0 5.4-4.3 9.6-9.6 9.6-5.4 0-9.7-4.3-9.7-9.7 0-5.2 4.3-9.6 9.6-9.6s9.7 4.4 9.7 9.7zm96.3 0c0 3.4-2.6 6-6 6-3.3 0-6-2.6-6-6 0-3.3 2.7-6 6-6 3.3.1 6 2.7 6 6zm-305.9 229.7h45.7v-38.3h1.6v40h-45.7"/><path class="st3" d="M1575.3 1389c0 1.9-1.6 3.5-3.6 3.5-1.9 0-3.5-1.6-3.5-3.5 0-2 1.6-3.5 3.6-3.5 1.9 0 3.5 1.5 3.5 3.5zm-44.8 37.9c-.1 2.5-2 4.5-4.4 4.5s-4.3-2.1-4.3-4.5c-.1-2.2 1.9-4.3 4.3-4.3s4.3 2.1 4.4 4.3zm43.4.1c0 1.5-1.2 2.7-2.7 2.7s-2.7-1.2-2.7-2.7 1.2-2.7 2.7-2.7 2.7 1.2 2.7 2.7zm327.6 8.9h45.7v-104.4l-66.1-.1v-110l1.6-.1v108.5h66.1v107.7h-45.7v38.4l-1.6-.1z"/><path class="st3" d="M1877.6 1221.4c0-2.4 1.8-4.4 4.3-4.4 2.4 0 4.3 1.9 4.3 4.4 0 2.3-1.8 4.3-4.3 4.3-2.4 0-4.3-2-4.3-4.3zm0 108.7c0-2.3 1.9-4.3 4.3-4.3s4.3 2 4.3 4.3c.1 2.4-1.9 4.3-4.3 4.3-2.4-.1-4.3-1.9-4.3-4.3zm66.1 0c0-2.3 1.9-4.3 4.3-4.3s4.3 2 4.3 4.3c.1 2.4-1.9 4.3-4.3 4.3s-4.3-1.9-4.3-4.3zm0 107.2c0-2.4 1.8-4.3 4.3-4.3 2.3-.1 4.3 1.8 4.3 4.3 0 2.4-1.9 4.3-4.3 4.3s-4.3-1.9-4.3-4.3zm-43.6 0c.1-1.5 1.3-2.8 2.8-2.8s2.7 1.3 2.7 2.8c-.1 1.4-1.2 2.7-2.7 2.7s-2.8-1.3-2.8-2.7zm-615.9-3.3c-3.8-.1-6.9-3.2-6.9-6.9 0-3.8 3.1-6.9 6.9-6.9s6.9 3.1 6.9 6.9c0 3.7-3.1 6.9-6.9 6.9zm169.3 0c-3.8 0-6.9-3.2-6.9-6.9 0-3.8 3.1-6.9 6.9-6.9 3.8 0 6.9 3.1 6.9 6.9 0 3.7-3.1 6.9-6.9 6.9zm346.4-103.3v-72.2l-164.9.1.1 104.3-174-.1v-2.5h171.3V1256h170.2v72.1l60.5.1v2.5z"/><path class="st3" d="M1461 1368.5c-3.8-.1-6.9-3.2-6.9-6.9 0-3.9 3.1-6.9 6.9-6.9 3.8 0 6.9 3 6.9 6.9.1 3.8-3.1 6.9-6.9 6.9zm171.9 0c-3.8 0-6.9-3-6.9-6.9 0-3.8 3.1-6.9 6.9-6.9 3.8 0 6.9 3.1 6.9 6.9-.1 3.8-3.2 6.9-6.9 6.9zm229.2-33.5c-3 0-5.5-2.5-5.5-5.6s2.5-5.6 5.6-5.6 5.6 2.5 5.6 5.6-2.5 5.6-5.7 5.6zm-229.3-70.8c-3.8 0-6.9-3.1-6.9-6.9 0-3.9 3.1-6.9 6.9-6.9 3.9 0 6.9 3 6.9 6.9 0 3.7-3 6.8-6.9 6.9zm169.3 0c-3.8 0-6.9-3.1-6.9-6.9 0-3.9 3.1-6.9 6.9-6.9 3.8 0 6.9 3.1 6.9 6.9 0 3.8-3.1 6.9-6.9 6.9zm.1 68.5c-2.5 0-4.4-1.9-4.4-4.2 0-2.3 1.9-4.3 4.3-4.3s4.3 2 4.3 4.3c0 2.4-1.9 4.3-4.2 4.2zm-147.3 127.2h-50v-83.2h1.2l.1 82 50-.1"/><path class="st3" d="M1602.2 1376.6c0-1.8 1.5-3.3 3.3-3.3 1.8 0 3.3 1.5 3.3 3.3 0 1.8-1.4 3.3-3.3 3.3-1.8 0-3.3-1.4-3.3-3.3zm.1 82.3c0-1.8 1.4-3.3 3.2-3.3 1.9 0 3.4 1.5 3.4 3.3 0 1.9-1.5 3.3-3.4 3.3-1.8 0-3.2-1.4-3.2-3.3zm49.9-.1c0-1.8 1.5-3.3 3.3-3.3 1.8 0 3.3 1.5 3.3 3.3 0 1.9-1.5 3.3-3.3 3.3-1.8 0-3.3-1.3-3.3-3.3zm43.3-27.3h29.7v1.8h-27.9m165.8-80.5h9.8v81.5h-2.7v-78.9h-9.8v-26.9h2.7zm-522.4 32.6h67.7v2.6h-70.5v-15l-52.8-.1.1 52.8h-2.8v-55.4h58.3z"/><path class="st4" d="M1809.7 1136.1h35.8v35.8h-35.8z"/><path class="st5" d="M1702.3 1330.2h35.8v35.8h-35.8z"/><path class="st6" d="M1493.2 1336.7h35.8v35.8h-35.8z"/><path class="st3" d="M2013 1463.5c0-9.7 7.8-17.5 17.5-17.5 9.7.1 17.5 7.8 17.5 17.5m-2.4 0c0-8.3-6.8-15.1-15.1-15.2-8.3 0-15.1 6.8-15.1 15.1m-132.9-259.3c9.7.1 17.5 7.8 17.5 17.5s-7.9 17.5-17.5 17.5c-9.7 0-17.5-7.9-17.5-17.5s7.8-17.4 17.5-17.5zm0 2.3c-8.3 0-15.1 6.8-15.1 15.1 0 8.4 6.8 15.2 15.1 15.2s15.1-6.7 15.1-15.1c0-8.3-6.8-15.1-15.1-15.2zm-81.3 32.5c9.7.1 17.5 7.9 17.5 17.5-.1 9.7-7.9 17.5-17.5 17.5-9.7 0-17.5-7.9-17.5-17.5-.1-9.7 7.7-17.5 17.5-17.5zm-.1 2.3c-8.3 0-15.1 6.8-15.1 15.1 0 8.4 6.8 15.2 15.1 15.2s15.1-6.8 15.1-15.1c.1-8.4-6.7-15.1-15.1-15.2zm1.8 68.9c9.7.1 17.5 7.9 17.5 17.5s-7.9 17.5-17.5 17.5c-9.7 0-17.5-7.9-17.5-17.5-.1-9.7 7.8-17.5 17.5-17.5zm-.1 2.4c-8.3 0-15.1 6.8-15.1 15.1s6.8 15.1 15.1 15.1 15.1-6.7 15.1-15.1c0-8.3-6.7-15.1-15.1-15.1zm145.2 2.5c9.6 0 17.4 7.8 17.4 17.4 0 9.7-7.8 17.5-17.4 17.5-9.7 0-17.5-7.8-17.5-17.5 0-9.6 7.9-17.5 17.5-17.4zm-.1 2.3c-8.3 0-15.1 6.8-15.1 15.1 0 8.4 6.8 15.2 15.1 15.2 8.4-.1 15.2-6.8 15.2-15.2 0-8.3-6.8-15.1-15.2-15.1zm-292.5 124.1c9.7.1 17.5 7.9 17.5 17.5-.1 9.7-7.9 17.5-17.5 17.5-9.7 0-17.5-7.9-17.5-17.5s7.8-17.4 17.5-17.5zm0 2.4c-8.3 0-15.1 6.8-15.1 15.1 0 8.4 6.8 15.2 15.1 15.2s15.1-6.8 15.1-15.1c0-8.4-6.8-15.2-15.1-15.2zm-243.4-11.5c9.6 0 17.4 7.8 17.4 17.4 0 9.7-7.7 17.5-17.4 17.5s-17.5-7.8-17.5-17.5c0-9.6 7.8-17.4 17.5-17.4zm0 2.3c-8.4 0-15.2 6.8-15.2 15.1 0 8.4 6.8 15.2 15.2 15.2 8.3 0 15.1-6.8 15.1-15.2 0-8.3-6.8-15-15.1-15.1zm-146.3 40.6c0-9.7 7.8-17.4 17.5-17.4 9.6 0 17.4 7.7 17.4 17.4m-2.3 0c0-8.3-6.8-15.1-15.1-15.1-8.4 0-15.2 6.8-15.2 15.1m-252.2-12.3c-.1-9.6 7.8-17.4 17.5-17.4 9.6 0 17.4 7.8 17.4 17.4m-2.4 0c0-8.3-6.7-15.1-15-15.1-8.4 0-15.2 6.8-15.2 15.1m1013.5-100.5c9.7 0 17.5 7.8 17.5 17.5-.1 9.7-7.8 17.5-17.5 17.5s-17.5-7.9-17.5-17.5c0-9.7 7.9-17.5 17.5-17.5zm0 2.4c-8.3 0-15.1 6.8-15.1 15.1-.1 8.3 6.7 15.1 15.1 15.1 8.3 0 15.1-6.8 15.1-15.2 0-8.3-6.8-15.1-15.1-15zm-305.9-187.1c9.6-.1 17.4 7.7 17.4 17.4.1 9.6-7.8 17.5-17.4 17.5s-17.5-7.9-17.5-17.5c0-9.7 7.8-17.5 17.5-17.4zm-.1 2.2c-8.3 0-15.1 6.8-15.1 15.1 0 8.4 6.8 15.2 15.2 15.2 8.3.1 15.1-6.7 15.1-15.1 0-8.3-6.8-15.1-15.2-15.2zm-.8 235.1c9.6 0 17.4 7.8 17.4 17.4 0 9.7-7.7 17.5-17.4 17.5s-17.5-7.9-17.5-17.5c0-9.7 7.9-17.4 17.5-17.4zm0 2.4c-8.3 0-15.1 6.8-15.1 15.1-.1 8.3 6.7 15.1 15.1 15.1 8.3 0 15.1-6.8 15.1-15.2 0-8.3-6.8-15.1-15.1-15z"/></g></svg>